<svg id="图层_1" data-name="图层 1" xmlns="http://www.w3.org/2000/svg" xmlns:xlink="http://www.w3.org/1999/xlink" viewBox="0 0 501.88 431.94"><defs><style>.cls-1,.cls-10,.cls-5{fill:none;}.cls-2{clip-path:url(#clip-path);}.cls-3{clip-path:url(#clip-path-2);}.cls-11,.cls-4{fill:#adc2f7;}.cls-4,.cls-6,.cls-7,.cls-8{fill-rule:evenodd;}.cls-5{stroke:#fff;stroke-linecap:round;stroke-linejoin:round;stroke-width:0.96px;}.cls-14,.cls-6{fill:#0d3396;}.cls-12,.cls-7{fill:#5780ed;}.cls-13,.cls-8{fill:#174de0;}.cls-9{fill:#abffff;}.cls-10{stroke:#000;stroke-linecap:square;stroke-miterlimit:10;stroke-width:0.48px;}</style><clipPath id="clip-path" transform="translate(-199.16 -23.43)"><rect class="cls-1" y="0.12" width="771.84" height="590.88"/></clipPath><clipPath id="clip-path-2" transform="translate(-199.16 -23.43)"><rect class="cls-1" y="0.12" width="771.83" height="590.88"/></clipPath></defs><g class="cls-2"><g class="cls-3"><polygon class="cls-4" points="182.66 266.85 243.62 236.83 240.76 231.56 237.63 226.76 233.79 221.96 229.71 217.89 225.4 213.8 220.59 210.2 215.56 207.31 210.28 204.69 204.75 202.51 199 200.6 193.24 199.66 187.24 198.92 182.66 198.68 182.66 266.85"/><polygon class="cls-5" points="182.66 266.85 243.62 236.83 240.76 231.56 237.63 226.76 233.79 221.96 229.71 217.89 225.4 213.8 220.59 210.2 215.56 207.31 210.28 204.69 204.75 202.51 199 200.6 193.24 199.66 187.24 198.92 182.66 198.68 182.66 266.85"/><polygon class="cls-6" points="182.66 266.85 182.43 96.7 167.81 97.4 152.92 99.32 138.51 102.44 124.36 107.01 110.69 112.52 97.48 119.5 84.99 127.39 73.24 136.53 62.43 146.6 52.36 157.41 43.23 169.17 35.31 181.66 28.34 194.85 22.85 208.52 18.27 222.69 15.17 237.1 13.22 251.97 12.52 266.11 182.66 266.85"/><polygon class="cls-5" points="182.66 266.85 182.43 96.7 167.81 97.4 152.92 99.32 138.51 102.44 124.36 107.01 110.69 112.52 97.48 119.5 84.99 127.39 73.24 136.53 62.43 146.6 52.36 157.41 43.23 169.17 35.31 181.66 28.34 194.85 22.85 208.52 18.27 222.69 15.17 237.1 13.22 251.97 12.52 266.11 182.66 266.85"/><polygon class="cls-7" points="182.66 266.85 279.39 298.99 281.78 290.59 283.46 281.73 284.44 272.83 284.44 263.96 283.97 255.1 282.52 246.44 280.36 237.8 277.47 229.41 274.1 221.96 182.66 266.85"/><polygon class="cls-5" points="182.66 266.85 279.39 298.99 281.78 290.59 283.46 281.73 284.44 272.83 284.44 263.96 283.97 255.1 282.52 246.44 280.36 237.8 277.47 229.41 274.1 221.96 182.66 266.85"/><polygon class="cls-8" points="182.66 266.85 46.6 266.35 47.07 278.13 48.52 289.89 51.15 301.41 54.51 312.92 59.09 323.74 64.58 334.28 70.84 344.36 78.05 353.73 86.2 362.59 94.83 370.52 104.19 377.97 114.29 384.22 124.6 389.72 135.64 394.29 146.93 397.88 158.44 400.54 170.2 402.21 182.19 402.69 193.95 402.21 205.73 400.77 217.25 398.12 228.77 394.76 239.54 390.19 250.12 384.69 260.19 378.44 269.55 371.25 278.44 363.09 286.36 354.43 293.8 345.09 300.03 334.99 305.56 324.68 310.1 313.63 311.55 309.8 182.66 266.85"/><polygon class="cls-5" points="182.66 266.85 46.6 266.35 47.07 278.13 48.52 289.89 51.15 301.41 54.51 312.92 59.09 323.74 64.58 334.28 70.84 344.36 78.05 353.73 86.2 362.59 94.83 370.52 104.19 377.97 114.29 384.22 124.6 389.72 135.64 394.29 146.93 397.88 158.44 400.54 170.2 402.21 182.19 402.69 193.95 402.21 205.73 400.77 217.25 398.12 228.77 394.76 239.54 390.19 250.12 384.69 260.19 378.44 269.55 371.25 278.44 363.09 286.36 354.43 293.8 345.09 300.03 334.99 305.56 324.68 310.1 313.63 311.55 309.8 182.66 266.85"/></g><g class="cls-3"><path d="M218.56,150.89h5.16V153h-8.08v-.9a4.1,4.1,0,0,1,.35-1.74,5.42,5.42,0,0,1,1-1.46,11.6,11.6,0,0,1,1.9-1.59,7.56,7.56,0,0,0,1.64-1.56,2.44,2.44,0,0,0,.48-1.44c0-1.09-.6-1.64-1.79-1.64a4.48,4.48,0,0,0-3,1.26v-2.26a6.41,6.41,0,0,1,3.58-1,4.23,4.23,0,0,1,2.88.93,3.25,3.25,0,0,1,1.06,2.56,4.24,4.24,0,0,1-.31,1.64,4.71,4.71,0,0,1-.89,1.38,10.85,10.85,0,0,1-1.86,1.55,10.93,10.93,0,0,0-1.65,1.35A1.4,1.4,0,0,0,218.56,150.89Z" transform="translate(-199.16 -23.43)"/><path d="M226,152.68v-2.19a5,5,0,0,0,2.69.77,2.45,2.45,0,0,0,1.68-.53,1.78,1.78,0,0,0,.61-1.43c0-1.26-.87-1.89-2.59-1.89a21.09,21.09,0,0,0-2.21.14l.46-6.71h6.43v2.09h-4.38l-.18,2.56q.66-.06,1.2-.06a4,4,0,0,1,2.82,1,3.41,3.41,0,0,1,1,2.63,3.91,3.91,0,0,1-1.25,3,4.75,4.75,0,0,1-3.39,1.17A7.22,7.22,0,0,1,226,152.68Z" transform="translate(-199.16 -23.43)"/><path d="M244.47,150.05c0,1.13.42,1.69,1.25,1.69S247,151.16,247,150a2,2,0,0,0-.34-1.26,1.05,1.05,0,0,0-.89-.45C244.9,148.27,244.47,148.86,244.47,150.05Zm-1.71.08a3.33,3.33,0,0,1,.84-2.39,2.89,2.89,0,0,1,2.23-.89,2.71,2.71,0,0,1,2.1.8,3.15,3.15,0,0,1,.75,2.25,3.33,3.33,0,0,1-.84,2.38,2.92,2.92,0,0,1-2.22.89,2.71,2.71,0,0,1-2.08-.84A3.08,3.08,0,0,1,242.76,150.13Zm4.12-9.29L239,153h-2l7.89-12.17Zm-9.93,3c0,1.12.41,1.69,1.24,1.69s1.26-.59,1.26-1.76-.4-1.7-1.21-1.7S237,142.7,237,143.88Zm-1.73.09a3.39,3.39,0,0,1,.83-2.39,2.89,2.89,0,0,1,2.24-.9,2.72,2.72,0,0,1,2.1.81,3.23,3.23,0,0,1,.75,2.26,3.33,3.33,0,0,1-.83,2.36,2.92,2.92,0,0,1-2.22.88,2.71,2.71,0,0,1-2.09-.83A3.06,3.06,0,0,1,235.22,144Z" transform="translate(-199.16 -23.43)"/></g><g class="cls-3"><path d="M335.38,450.72h3.19v-4.45q-.39.71-1.08,1.71C337,448.65,336.32,449.56,335.38,450.72Zm5.49-7.72v7.72h1.72v1.85h-1.72v2.59h-2.3v-2.59h-5.43v-1.86a45.76,45.76,0,0,0,3.16-4,26.12,26.12,0,0,0,2.23-3.72Z" transform="translate(-199.16 -23.43)"/><path d="M345.22,450.72h3.19v-4.45q-.39.71-1.08,1.71C346.86,448.65,346.16,449.56,345.22,450.72Zm5.49-7.72v7.72h1.72v1.85h-1.72v2.59h-2.3v-2.59H343v-1.86a45.76,45.76,0,0,0,3.16-4,26.12,26.12,0,0,0,2.23-3.72Z" transform="translate(-199.16 -23.43)"/><path d="M353.34,454a1.23,1.23,0,0,1,.45-1,1.6,1.6,0,0,1,1.07-.37,1.54,1.54,0,0,1,1.05.38,1.29,1.29,0,0,1,0,1.94,1.63,1.63,0,0,1-1.09.37,1.51,1.51,0,0,1-1-.39A1.21,1.21,0,0,1,353.34,454Z" transform="translate(-199.16 -23.43)"/><path d="M360.28,446.84a2.2,2.2,0,0,0,.47,1.51,1.56,1.56,0,0,0,1.27.55,1.52,1.52,0,0,0,1.19-.52,1.91,1.91,0,0,0,.47-1.31,2.89,2.89,0,0,0-.47-1.63,1.49,1.49,0,0,0-2.47-.09A2.36,2.36,0,0,0,360.28,446.84Zm-1.8,6a4.2,4.2,0,0,0,2.29.62c2,0,3-1.27,3-3.83h0a2.74,2.74,0,0,1-2.47,1.23,3.22,3.22,0,0,1-2.49-1.06,3.83,3.83,0,0,1-1-2.68A4.18,4.18,0,0,1,359,444,4.13,4.13,0,0,1,362,442.8a3.65,3.65,0,0,1,3.09,1.5,6.83,6.83,0,0,1,1.12,4.18,8.42,8.42,0,0,1-1.35,5,4.55,4.55,0,0,1-3.9,1.85,6.51,6.51,0,0,1-2.52-.46Z" transform="translate(-199.16 -23.43)"/><path d="M377,452.21c0,1.13.42,1.69,1.25,1.69s1.26-.58,1.26-1.76a2,2,0,0,0-.34-1.26,1.05,1.05,0,0,0-.89-.45C377.38,450.43,377,451,377,452.21Zm-1.72.08a3.33,3.33,0,0,1,.84-2.39,2.92,2.92,0,0,1,2.24-.9,2.72,2.72,0,0,1,2.1.81,3.15,3.15,0,0,1,.75,2.25,3.33,3.33,0,0,1-.84,2.38,2.92,2.92,0,0,1-2.22.89,2.71,2.71,0,0,1-2.08-.84A3.09,3.09,0,0,1,375.23,452.29Zm4.12-9.29-7.9,12.16h-2L377.37,443Zm-9.92,3c0,1.12.41,1.69,1.24,1.69s1.26-.59,1.26-1.76-.4-1.7-1.21-1.7S369.43,444.86,369.43,446Zm-1.73.09a3.37,3.37,0,0,1,.83-2.39,2.89,2.89,0,0,1,2.24-.9,2.72,2.72,0,0,1,2.1.81,3.23,3.23,0,0,1,.75,2.26,3.33,3.33,0,0,1-.83,2.36,2.92,2.92,0,0,1-2.22.88,2.71,2.71,0,0,1-2.09-.83A3.06,3.06,0,0,1,367.7,446.13Z" transform="translate(-199.16 -23.43)"/></g><g class="cls-3"><path d="M500.73,276.66v12.42h-2.55v-9.57a4.59,4.59,0,0,1-1.28.74,6.23,6.23,0,0,1-1.5.4v-2.17a11.53,11.53,0,0,0,3.72-1.82Z" transform="translate(-199.16 -23.43)"/><path d="M507.52,287h5.16v2.11h-8.09v-.91a4.24,4.24,0,0,1,.35-1.73,5.94,5.94,0,0,1,1-1.46,11.53,11.53,0,0,1,1.9-1.59,7.42,7.42,0,0,0,1.65-1.56,2.43,2.43,0,0,0,.47-1.44c0-1.09-.59-1.64-1.79-1.64a4.48,4.48,0,0,0-3,1.26v-2.26a6.4,6.4,0,0,1,3.57-1,4.19,4.19,0,0,1,2.88.93,3.21,3.21,0,0,1,1.06,2.56,4.28,4.28,0,0,1-.3,1.64,4.92,4.92,0,0,1-.89,1.38,11.71,11.71,0,0,1-1.86,1.55,11.73,11.73,0,0,0-1.66,1.35A1.38,1.38,0,0,0,507.52,287Z" transform="translate(-199.16 -23.43)"/><path d="M514.38,287.94a1.23,1.23,0,0,1,.45-1,1.58,1.58,0,0,1,1.06-.37A1.55,1.55,0,0,1,517,287a1.31,1.31,0,0,1,0,1.94,1.63,1.63,0,0,1-1.09.37,1.52,1.52,0,0,1-1.05-.39A1.21,1.21,0,0,1,514.38,287.94Z" transform="translate(-199.16 -23.43)"/><path d="M520.66,284.64h3.18v-4.45a17,17,0,0,1-1.08,1.71C522.3,282.57,521.59,283.48,520.66,284.64Zm5.49-7.72v7.72h1.72v1.85h-1.72v2.59h-2.31v-2.59h-5.43v-1.86a44,44,0,0,0,3.17-4,25,25,0,0,0,2.22-3.72Z" transform="translate(-199.16 -23.43)"/><path d="M538,286.13c0,1.13.42,1.69,1.25,1.69s1.25-.58,1.25-1.76a2.06,2.06,0,0,0-.33-1.26,1.05,1.05,0,0,0-.89-.45C538.42,284.35,538,284.94,538,286.13Zm-1.72.08a3.33,3.33,0,0,1,.84-2.39,2.92,2.92,0,0,1,2.24-.89,2.71,2.71,0,0,1,2.1.8,3.15,3.15,0,0,1,.75,2.25,3.33,3.33,0,0,1-.84,2.38,2.92,2.92,0,0,1-2.22.89,2.7,2.7,0,0,1-2.08-.84A3,3,0,0,1,536.27,286.21Zm4.12-9.29-7.9,12.17h-2l7.89-12.17Zm-9.92,3c0,1.12.41,1.69,1.24,1.69s1.26-.59,1.26-1.76-.4-1.7-1.21-1.7S530.47,278.78,530.47,280Zm-1.73.09a3.37,3.37,0,0,1,.83-2.39,2.89,2.89,0,0,1,2.24-.9,2.72,2.72,0,0,1,2.1.81,3.23,3.23,0,0,1,.75,2.26,3.29,3.29,0,0,1-.84,2.36,2.89,2.89,0,0,1-2.22.88,2.71,2.71,0,0,1-2.08-.83A3.06,3.06,0,0,1,528.74,280.05Z" transform="translate(-199.16 -23.43)"/></g><g class="cls-3"><path d="M428.49,209.46v12.42h-2.55v-9.57a4.59,4.59,0,0,1-1.28.74,6.23,6.23,0,0,1-1.5.4v-2.17a11.53,11.53,0,0,0,3.72-1.82Z" transform="translate(-199.16 -23.43)"/><path d="M440.74,211.27q-1.47,2.64-2.2,4.26a25.58,25.58,0,0,0-1.18,3.15,24.13,24.13,0,0,0-.7,3.2h-2.72a22.49,22.49,0,0,1,1.38-4.82,36.27,36.27,0,0,1,2.75-5.25h-5.8v-2.09h8.47Z" transform="translate(-199.16 -23.43)"/><path d="M442.14,220.74a1.23,1.23,0,0,1,.45-1,1.59,1.59,0,0,1,1.06-.37,1.55,1.55,0,0,1,1.06.38,1.29,1.29,0,0,1,0,1.94,1.63,1.63,0,0,1-1.09.37,1.49,1.49,0,0,1-1-.39A1.21,1.21,0,0,1,442.14,220.74Z" transform="translate(-199.16 -23.43)"/><path d="M449.5,213a1.7,1.7,0,0,0,.41,1.14,1.32,1.32,0,0,0,1,.48,1.33,1.33,0,0,0,1-.47,1.63,1.63,0,0,0,.42-1.15,1.71,1.71,0,0,0-.41-1.17,1.3,1.3,0,0,0-1-.48,1.28,1.28,0,0,0-1,.48A1.76,1.76,0,0,0,449.5,213Zm-.38,5.37a1.92,1.92,0,0,0,.49,1.36,1.9,1.9,0,0,0,2.59,0,1.84,1.84,0,0,0,.5-1.36,1.82,1.82,0,0,0-.51-1.32,1.82,1.82,0,0,0-2.57,0A1.85,1.85,0,0,0,449.12,218.38Zm-2.53.23a3.07,3.07,0,0,1,.61-1.89,3.52,3.52,0,0,1,1.78-1.21,3.86,3.86,0,0,1-1.44-1.17,2.75,2.75,0,0,1-.5-1.59,2.82,2.82,0,0,1,.5-1.65,3.33,3.33,0,0,1,1.39-1.16,4.62,4.62,0,0,1,2-.42,4.93,4.93,0,0,1,2,.41,3.27,3.27,0,0,1,1.4,1.15,2.83,2.83,0,0,1,.5,1.64,2.57,2.57,0,0,1-.55,1.58,3.78,3.78,0,0,1-1.49,1.15,3.77,3.77,0,0,1,1.78,1.21,3.24,3.24,0,0,1-.57,4.44,5.49,5.49,0,0,1-6.23,0A3.07,3.07,0,0,1,446.59,218.61Z" transform="translate(-199.16 -23.43)"/><path d="M465.75,218.93c0,1.13.42,1.69,1.25,1.69s1.26-.58,1.26-1.76a2.06,2.06,0,0,0-.34-1.26,1.05,1.05,0,0,0-.89-.45C466.18,217.15,465.75,217.74,465.75,218.93ZM464,219a3.33,3.33,0,0,1,.84-2.39,2.92,2.92,0,0,1,2.24-.89,2.71,2.71,0,0,1,2.1.8,3.15,3.15,0,0,1,.75,2.25,3.33,3.33,0,0,1-.84,2.38,2.92,2.92,0,0,1-2.22.89,2.7,2.7,0,0,1-2.08-.84A3.09,3.09,0,0,1,464,219Zm4.12-9.29-7.9,12.17h-2l7.89-12.17Zm-9.92,3c0,1.12.41,1.69,1.24,1.69s1.26-.59,1.26-1.76-.4-1.7-1.21-1.7S458.23,211.58,458.23,212.76Zm-1.73.09a3.37,3.37,0,0,1,.83-2.39,2.89,2.89,0,0,1,2.24-.9,2.72,2.72,0,0,1,2.1.81,3.23,3.23,0,0,1,.75,2.26,3.33,3.33,0,0,1-.83,2.36,2.92,2.92,0,0,1-2.23.88,2.71,2.71,0,0,1-2.08-.83A3.06,3.06,0,0,1,456.5,212.85Z" transform="translate(-199.16 -23.43)"/></g><g class="cls-3"><rect class="cls-9" x="424.34" y="29.97" width="77.29" height="119.04"/><rect class="cls-10" x="424.34" y="29.97" width="77.29" height="119.04"/></g><g class="cls-3"><rect class="cls-11" x="427.71" y="33.1" width="45.6" height="22.07"/><rect class="cls-5" x="427.71" y="33.1" width="45.6" height="22.07"/></g><g class="cls-3"><path d="M687.05,69.26,685,63.6a7.8,7.8,0,0,1-.21-1h0a5.92,5.92,0,0,1-.22,1l-2,5.66Zm3.87,5.26H689l-1.39-3.73h-5.67l-1.3,3.73h-2l5.19-13.61h1.88Z" transform="translate(-199.16 -23.43)"/><path d="M694.6,79.32V71.4a4.1,4.1,0,0,1-.93.62,5.94,5.94,0,0,1-1.21.48V71.35A8,8,0,0,0,694,70.7a6.73,6.73,0,0,0,1.28-.84h.45v9.46Z" transform="translate(-199.16 -23.43)"/></g><g class="cls-3"><rect class="cls-12" x="427.71" y="62.38" width="45.6" height="22.06"/><rect class="cls-5" x="427.71" y="62.38" width="45.6" height="22.06"/></g><g class="cls-3"><path d="M687.05,98.54,685,92.88a7.8,7.8,0,0,1-.21-.95h0a5.92,5.92,0,0,1-.22.95l-2,5.66Zm3.87,5.26H689l-1.39-3.73h-5.67l-1.3,3.73h-2l5.19-13.61h1.88Z" transform="translate(-199.16 -23.43)"/><path d="M696.29,101.77a1.5,1.5,0,0,0-.47-1.17,1.85,1.85,0,0,0-1.29-.43,2.65,2.65,0,0,0-1.16.29,4,4,0,0,0-1.09.84v-1.14a3.1,3.1,0,0,1,2.38-1,2.93,2.93,0,0,1,2,.67,2.31,2.31,0,0,1,.77,1.82,3.29,3.29,0,0,1-.47,1.77,5.68,5.68,0,0,1-1.61,1.53c-.77.53-1.29.91-1.55,1.14a2.33,2.33,0,0,0-.54.67,1.65,1.65,0,0,0-.16.77h4.6v1H691.9v-.46a3.83,3.83,0,0,1,.22-1.36,3.55,3.55,0,0,1,.72-1.09,11.5,11.5,0,0,1,1.57-1.27,5.94,5.94,0,0,0,1.48-1.34A2.21,2.21,0,0,0,696.29,101.77Z" transform="translate(-199.16 -23.43)"/></g><g class="cls-3"><rect class="cls-13" x="427.71" y="91.63" width="45.6" height="22.09"/><rect class="cls-5" x="427.71" y="91.63" width="45.6" height="22.09"/></g><g class="cls-3"><path d="M687.05,127.82,685,122.16a7.8,7.8,0,0,1-.21-1h0a5.92,5.92,0,0,1-.22,1l-2,5.66Zm3.87,5.26H689l-1.39-3.73h-5.67l-1.3,3.73h-2l5.19-13.61h1.88Z" transform="translate(-199.16 -23.43)"/><path d="M692.05,136.33a3.39,3.39,0,0,0,2.14.74,2.32,2.32,0,0,0,1.52-.47,1.58,1.58,0,0,0,.55-1.26c0-1.17-.83-1.76-2.51-1.76H693v-1h.73c1.49,0,2.23-.55,2.23-1.65s-.57-1.53-1.7-1.53a3,3,0,0,0-1.84.66V129a4.21,4.21,0,0,1,2.13-.53,2.79,2.79,0,0,1,1.89.62,2,2,0,0,1,.72,1.6,2.26,2.26,0,0,1-1.85,2.34v0a2.5,2.5,0,0,1,1.59.71,2.1,2.1,0,0,1,.58,1.5,2.51,2.51,0,0,1-.9,2,3.57,3.57,0,0,1-2.39.76,4,4,0,0,1-2.12-.49Z" transform="translate(-199.16 -23.43)"/></g><g class="cls-3"><rect class="cls-14" x="427.71" y="120.91" width="45.6" height="22.09"/><rect class="cls-5" x="427.71" y="120.91" width="45.6" height="22.09"/></g><g class="cls-3"><path d="M687.05,157.1,685,151.44a7.8,7.8,0,0,1-.21-.95h0a5.92,5.92,0,0,1-.22.95l-2,5.66Zm3.87,5.26H689l-1.39-3.73h-5.67l-1.3,3.73h-2l5.19-13.61h1.88Z" transform="translate(-199.16 -23.43)"/><path d="M692.61,164h3v-4.41c-.41.74-.86,1.46-1.33,2.16S693.25,163.22,692.61,164Zm4.14-6.11V164h1.38v1h-1.38v2.18h-1.14V165h-4.32v-.91a28.82,28.82,0,0,0,2.32-3,26.56,26.56,0,0,0,1.92-3.17Z" transform="translate(-199.16 -23.43)"/></g><g class="cls-3"><path d="M222.23,24.65l-4.4,16.51h-3.91l-2.81-10.77a9,9,0,0,1-.27-1.82h0a10.9,10.9,0,0,1-.3,1.82l-2.88,10.77h-4.06l-4.4-16.51H203l2.45,11.19a11.59,11.59,0,0,1,.22,1.85h.08a8.93,8.93,0,0,1,.33-1.9l3.07-11.14h3.74l2.79,11.27a12.81,12.81,0,0,1,.27,1.75H216a9.86,9.86,0,0,1,.25-1.81l2.39-11.21Z" transform="translate(-199.16 -23.43)"/><path d="M231.3,34.08c0-1.76-.71-2.64-2.14-2.64a2.12,2.12,0,0,0-1.57.72,3.44,3.44,0,0,0-.85,1.92Zm3.21,2.15h-7.76q.18,2.75,3.31,2.74a6.23,6.23,0,0,0,3.44-1v2.53a8.63,8.63,0,0,1-4.22.91,5.86,5.86,0,0,1-4.38-1.59,6.06,6.06,0,0,1-1.56-4.43A6.43,6.43,0,0,1,225,30.85a5.49,5.49,0,0,1,4.18-1.77,5.1,5.1,0,0,1,3.92,1.52,5.88,5.88,0,0,1,1.41,4.17Z" transform="translate(-199.16 -23.43)"/><path d="M236.71,41.16V29.37h3.43V41.16Zm-.25-15.59a1.64,1.64,0,0,1,.55-1.29,2.11,2.11,0,0,1,1.44-.49,2.06,2.06,0,0,1,1.45.5,1.65,1.65,0,0,1,.55,1.28,1.7,1.7,0,0,1-.56,1.29,2.09,2.09,0,0,1-1.44.52,2,2,0,0,1-1.43-.53A1.64,1.64,0,0,1,236.46,25.57Z" transform="translate(-199.16 -23.43)"/><path d="M251.24,34.51a2.91,2.91,0,0,0-.71-2,2.27,2.27,0,0,0-1.79-.8,2.32,2.32,0,0,0-2,1,4.56,4.56,0,0,0-.73,2.77,3.8,3.8,0,0,0,.7,2.43,2.24,2.24,0,0,0,1.86.89,2.34,2.34,0,0,0,1.91-.9,3.64,3.64,0,0,0,.74-2.36Zm3.4,5.35a6.64,6.64,0,0,1-1.87,5,7.52,7.52,0,0,1-5.39,1.78,8.83,8.83,0,0,1-3.79-.68V43.07a7.26,7.26,0,0,0,3.69,1.06,4.08,4.08,0,0,0,2.89-1,3.61,3.61,0,0,0,1-2.74v-1h-.06a4.1,4.1,0,0,1-3.71,2,4.42,4.42,0,0,1-3.56-1.59,6.41,6.41,0,0,1-1.34-4.26A7.13,7.13,0,0,1,244,30.86a4.76,4.76,0,0,1,3.87-1.78,3.61,3.61,0,0,1,3.26,1.7h.06V29.37h3.43Z" transform="translate(-199.16 -23.43)"/><path d="M268.78,41.16h-3.43V34.44c0-1.81-.66-2.71-2-2.71a2.07,2.07,0,0,0-1.64.75,2.93,2.93,0,0,0-.64,2v6.72h-3.45V23.71h3.45v7.43h0a4.17,4.17,0,0,1,3.64-2.06c2.68,0,4,1.62,4,4.84Z" transform="translate(-199.16 -23.43)"/><path d="M278.74,41a5.09,5.09,0,0,1-2.35.43q-3.75,0-3.75-4V31.94H270.7V29.37h1.94V26.78l3.42-1v3.57h2.68v2.57h-2.68v5c0,1.25.49,1.88,1.49,1.88a2.43,2.43,0,0,0,1.19-.34Z" transform="translate(-199.16 -23.43)"/><path d="M280.61,38a6.65,6.65,0,0,0,3.47,1.08q2.13,0,2.13-1.14c0-.54-.59-1-1.76-1.36a7.41,7.41,0,0,1-3-1.51,3.11,3.11,0,0,1-.83-2.27A3.14,3.14,0,0,1,282,30.07a6.29,6.29,0,0,1,3.69-1,10.17,10.17,0,0,1,3.12.48v2.71a5.83,5.83,0,0,0-3-.81,2.69,2.69,0,0,0-1.32.29.88.88,0,0,0-.5.77c0,.54.5,1,1.49,1.32a14.56,14.56,0,0,1,2.41,1A3.08,3.08,0,0,1,289.1,36a3.16,3.16,0,0,1,.42,1.65,3.23,3.23,0,0,1-1.46,2.83,6.75,6.75,0,0,1-3.9,1,10.22,10.22,0,0,1-3.55-.61Z" transform="translate(-199.16 -23.43)"/><path d="M301,35.27c0,2.36.95,3.53,2.87,3.53s2.76-1.21,2.76-3.62-.92-3.45-2.78-3.45a2.54,2.54,0,0,0-2.1.92A4.07,4.07,0,0,0,301,35.27Zm-3.49,0a6,6,0,0,1,1.74-4.58,6.55,6.55,0,0,1,4.69-1.66,6.21,6.21,0,0,1,4.52,1.64,5.87,5.87,0,0,1,1.67,4.39,6.21,6.21,0,0,1-1.72,4.62,7.14,7.14,0,0,1-9.21.07A6,6,0,0,1,297.5,35.32Z" transform="translate(-199.16 -23.43)"/><path d="M320.09,26.36a3.76,3.76,0,0,0-1.34-.27c-1.18,0-1.77.65-1.77,2v1.32h2.69v2.57H317v9.22h-3.44V31.94h-2V29.37h2V27.86a4.16,4.16,0,0,1,1.31-3.22,4.87,4.87,0,0,1,3.44-1.21,6,6,0,0,1,1.8.23Z" transform="translate(-199.16 -23.43)"/><path d="M331.35,36a3.07,3.07,0,0,0,.68,2,2.21,2.21,0,0,0,1.77.8,2.33,2.33,0,0,0,2-1,4.79,4.79,0,0,0,.72-2.83q0-3.24-2.52-3.24a2.37,2.37,0,0,0-1.92.89,3.51,3.51,0,0,0-.74,2.3Zm.06,3.79v6.84H328V29.37h3.45v1.8h0a4.62,4.62,0,0,1,7.34-.52,6.62,6.62,0,0,1,1.27,4.28,7.22,7.22,0,0,1-1.47,4.74,4.79,4.79,0,0,1-3.86,1.78,3.67,3.67,0,0,1-3.28-1.71Z" transform="translate(-199.16 -23.43)"/><path d="M345.38,35.27c0,2.36,1,3.53,2.88,3.53S351,37.59,351,35.18s-.92-3.45-2.78-3.45a2.54,2.54,0,0,0-2.1.92A4.07,4.07,0,0,0,345.38,35.27Zm-3.48,0a6,6,0,0,1,1.74-4.58,6.55,6.55,0,0,1,4.69-1.66,6.21,6.21,0,0,1,4.52,1.64,5.87,5.87,0,0,1,1.67,4.39,6.21,6.21,0,0,1-1.72,4.62,7.14,7.14,0,0,1-9.21.07A6,6,0,0,1,341.9,35.32Z" transform="translate(-199.16 -23.43)"/><path d="M360.39,36a3.07,3.07,0,0,0,.68,2,2.21,2.21,0,0,0,1.77.8,2.33,2.33,0,0,0,2-1,4.79,4.79,0,0,0,.72-2.83q0-3.24-2.52-3.24a2.37,2.37,0,0,0-1.92.89,3.51,3.51,0,0,0-.74,2.3Zm.06,3.79v6.84H357V29.37h3.45v1.8h0a4.62,4.62,0,0,1,7.34-.52,6.62,6.62,0,0,1,1.27,4.28,7.22,7.22,0,0,1-1.47,4.74,4.79,4.79,0,0,1-3.86,1.78,3.67,3.67,0,0,1-3.28-1.71Z" transform="translate(-199.16 -23.43)"/><path d="M382.66,41.16h-3.42v-1.8h-.05a4.09,4.09,0,0,1-3.61,2.09q-4.12,0-4.12-5V29.37h3.44v6.79q0,2.64,2.07,2.64a2.06,2.06,0,0,0,1.65-.72,2.9,2.9,0,0,0,.62-2V29.37h3.42Z" transform="translate(-199.16 -23.43)"/><ellipse cx="188.3" cy="9" rx="2.43" ry="12.34"/><path d="M396.46,35.82q-1.86.24-1.86,1.68a1.37,1.37,0,0,0,.45,1.07,1.76,1.76,0,0,0,1.22.4,2.29,2.29,0,0,0,1.74-.74,2.68,2.68,0,0,0,.68-1.86v-.84Zm-3.89-5.74a7.72,7.72,0,0,1,2.14-.72,11.15,11.15,0,0,1,2.28-.28q5,0,4.95,5v7.12h-3.27V39.44h-.05a3.87,3.87,0,0,1-3.52,2,3.71,3.71,0,0,1-2.68-1,3.36,3.36,0,0,1-1-2.59c0-2.26,1.34-3.58,4-3.95l3.24-.43c0-1.38-.72-2.06-2.14-2.06a6.92,6.92,0,0,0-4,1.28Z" transform="translate(-199.16 -23.43)"/><path d="M411.94,41a5.09,5.09,0,0,1-2.35.43q-3.76,0-3.76-4V31.94h-1.94V29.37h1.94V26.78l3.42-1v3.57h2.69v2.57h-2.69v5c0,1.25.5,1.88,1.5,1.88a2.43,2.43,0,0,0,1.19-.34Z" transform="translate(-199.16 -23.43)"/><path d="M414.07,41.16V29.37h3.43V41.16Zm-.26-15.59a1.65,1.65,0,0,1,.56-1.29,2.1,2.1,0,0,1,1.44-.49,2.06,2.06,0,0,1,1.45.5,1.65,1.65,0,0,1,.55,1.28,1.67,1.67,0,0,1-.57,1.29,2,2,0,0,1-1.43.52,2,2,0,0,1-1.43-.53A1.65,1.65,0,0,1,413.81,25.57Z" transform="translate(-199.16 -23.43)"/><path d="M423.38,35.27c0,2.36,1,3.53,2.88,3.53S429,37.59,429,35.18s-.93-3.45-2.78-3.45a2.54,2.54,0,0,0-2.1.92A4,4,0,0,0,423.38,35.27Zm-3.48,0a6,6,0,0,1,1.74-4.58,6.54,6.54,0,0,1,4.69-1.66,6.17,6.17,0,0,1,4.51,1.64,5.84,5.84,0,0,1,1.68,4.39,6.21,6.21,0,0,1-1.72,4.62,7.14,7.14,0,0,1-9.21.07A6,6,0,0,1,419.9,35.32Z" transform="translate(-199.16 -23.43)"/><path d="M446.2,41.16h-3.42V34.58c0-1.9-.68-2.85-2-2.85a2.07,2.07,0,0,0-1.64.76,2.9,2.9,0,0,0-.65,1.94v6.73H435V29.37h3.44v1.88h.05a4.14,4.14,0,0,1,3.79-2.17c2.62,0,3.92,1.62,3.92,4.86Z" transform="translate(-199.16 -23.43)"/><path d="M466.78,41.16h-3.43V34.44c0-1.81-.66-2.71-2-2.71a2.05,2.05,0,0,0-1.63.75,2.93,2.93,0,0,0-.65,2v6.72h-3.44V23.71h3.44v7.43h.05a4.16,4.16,0,0,1,3.64-2.06c2.67,0,4,1.62,4,4.84Z" transform="translate(-199.16 -23.43)"/><path d="M474,35.82c-1.24.16-1.87.72-1.87,1.68a1.38,1.38,0,0,0,.46,1.07,1.76,1.76,0,0,0,1.22.4,2.25,2.25,0,0,0,1.73-.74,2.64,2.64,0,0,0,.69-1.86v-.84Zm-3.89-5.74a7.6,7.6,0,0,1,2.14-.72,11.15,11.15,0,0,1,2.28-.28q5,0,4.95,5v7.12h-3.27V39.44h-.05a3.87,3.87,0,0,1-3.52,2,3.75,3.75,0,0,1-2.69-1,3.39,3.39,0,0,1-1-2.59c0-2.26,1.34-3.58,4-3.95l3.24-.43c0-1.38-.72-2.06-2.15-2.06a6.92,6.92,0,0,0-4,1.28Z" transform="translate(-199.16 -23.43)"/><path d="M485.91,36a3.07,3.07,0,0,0,.68,2,2.21,2.21,0,0,0,1.77.8,2.33,2.33,0,0,0,2-1,4.79,4.79,0,0,0,.72-2.83c0-2.16-.84-3.24-2.53-3.24a2.36,2.36,0,0,0-1.91.89,3.51,3.51,0,0,0-.74,2.3Zm0,3.79v6.84h-3.44V29.37H486v1.8H486a4.62,4.62,0,0,1,7.34-.52,6.62,6.62,0,0,1,1.27,4.28,7.22,7.22,0,0,1-1.47,4.74,4.79,4.79,0,0,1-3.86,1.78A3.67,3.67,0,0,1,486,39.74Z" transform="translate(-199.16 -23.43)"/><path d="M500.55,36a3.07,3.07,0,0,0,.68,2,2.21,2.21,0,0,0,1.77.8,2.33,2.33,0,0,0,2-1,4.79,4.79,0,0,0,.72-2.83c0-2.16-.84-3.24-2.53-3.24a2.35,2.35,0,0,0-1.91.89,3.51,3.51,0,0,0-.74,2.3Zm.05,3.79v6.84h-3.44V29.37h3.44v1.8h0a4.62,4.62,0,0,1,7.34-.52,6.62,6.62,0,0,1,1.27,4.28,7.22,7.22,0,0,1-1.47,4.74,4.79,4.79,0,0,1-3.86,1.78,3.67,3.67,0,0,1-3.28-1.71Z" transform="translate(-199.16 -23.43)"/><path d="M511.75,41.16V29.37h3.43V41.16Zm-.26-15.59a1.65,1.65,0,0,1,.56-1.29,2.07,2.07,0,0,1,1.43-.49,2,2,0,0,1,1.45.5,1.74,1.74,0,0,1,0,2.57,2.05,2.05,0,0,1-1.44.52,2,2,0,0,1-1.42-.53A1.65,1.65,0,0,1,511.49,25.57Z" transform="translate(-199.16 -23.43)"/><path d="M529.48,41.16h-3.42V34.58c0-1.9-.68-2.85-2.06-2.85a2.06,2.06,0,0,0-1.63.76,2.9,2.9,0,0,0-.65,1.94v6.73h-3.44V29.37h3.44v1.88h0a4.14,4.14,0,0,1,3.79-2.17q3.91,0,3.92,4.86Z" transform="translate(-199.16 -23.43)"/><path d="M539.7,34.08c0-1.76-.72-2.64-2.14-2.64a2.1,2.1,0,0,0-1.57.72,3.44,3.44,0,0,0-.85,1.92Zm3.21,2.15h-7.76q.18,2.75,3.3,2.74a6.2,6.2,0,0,0,3.44-1v2.53a8.6,8.6,0,0,1-4.22.91,5.85,5.85,0,0,1-4.37-1.59,6.06,6.06,0,0,1-1.56-4.43,6.38,6.38,0,0,1,1.66-4.58,5.49,5.49,0,0,1,4.18-1.77,5.08,5.08,0,0,1,3.91,1.52,5.84,5.84,0,0,1,1.42,4.17Z" transform="translate(-199.16 -23.43)"/><path d="M544.85,38a6.65,6.65,0,0,0,3.47,1.08q2.13,0,2.13-1.14c0-.54-.59-1-1.76-1.36a7.46,7.46,0,0,1-3-1.51,3.42,3.42,0,0,1,.59-5,6.29,6.29,0,0,1,3.69-1,10.17,10.17,0,0,1,3.12.48v2.71a5.88,5.88,0,0,0-3-.81,2.64,2.64,0,0,0-1.32.29.88.88,0,0,0-.5.77c0,.54.5,1,1.49,1.32a14,14,0,0,1,2.4,1A3,3,0,0,1,553.34,36a3.16,3.16,0,0,1,.42,1.65,3.25,3.25,0,0,1-1.46,2.83,6.75,6.75,0,0,1-3.9,1,10.22,10.22,0,0,1-3.55-.61Z" transform="translate(-199.16 -23.43)"/><path d="M555.65,38a6.65,6.65,0,0,0,3.47,1.08q2.13,0,2.13-1.14c0-.54-.59-1-1.76-1.36a7.46,7.46,0,0,1-3-1.51,3.42,3.42,0,0,1,.59-5,6.29,6.29,0,0,1,3.69-1,10.17,10.17,0,0,1,3.12.48v2.71a5.88,5.88,0,0,0-3-.81,2.64,2.64,0,0,0-1.32.29.88.88,0,0,0-.5.77c0,.54.5,1,1.49,1.32a14,14,0,0,1,2.4,1A3,3,0,0,1,564.14,36a3.16,3.16,0,0,1,.42,1.65,3.25,3.25,0,0,1-1.46,2.83,6.75,6.75,0,0,1-3.9,1,10.22,10.22,0,0,1-3.55-.61Z" transform="translate(-199.16 -23.43)"/></g></g></svg>