<svg id="图层_1" data-name="图层 1" xmlns="http://www.w3.org/2000/svg" xmlns:xlink="http://www.w3.org/1999/xlink" viewBox="0 0 537.8 416.82"><defs><style>.cls-1,.cls-10,.cls-5{fill:none;}.cls-2{clip-path:url(#clip-path);}.cls-3{clip-path:url(#clip-path-2);}.cls-11,.cls-4{fill:#abccf5;}.cls-4,.cls-6,.cls-7,.cls-8{fill-rule:evenodd;}.cls-5{stroke:#fff;stroke-linecap:round;stroke-linejoin:round;stroke-width:0.96px;}.cls-14,.cls-6{fill:#0f4282;}.cls-13,.cls-7{fill:#176bd1;}.cls-12,.cls-8{fill:#5296eb;}.cls-9{fill:#abffff;}.cls-10{stroke:#000;stroke-linecap:square;stroke-miterlimit:10;stroke-width:0.48px;}</style><clipPath id="clip-path" transform="translate(-163.24 -23.43)"><rect class="cls-1" y="0.12" width="771.84" height="590.88"/></clipPath><clipPath id="clip-path-2" transform="translate(-163.24 -23.43)"><rect class="cls-1" y="0.12" width="771.83" height="590.88"/></clipPath></defs><g class="cls-2"><g class="cls-3"><polygon class="cls-4" points="218.59 266.85 285.3 279.58 286.04 273.57 286.51 267.56 286.28 261.81 285.57 255.8 284.36 250.03 282.68 244.29 280.52 238.78 277.89 233.47 274.76 228.44 271.16 223.63 267.32 219.33 263 215.24 258.19 211.65 253.41 208.29 248.12 205.4 242.6 203.25 237.07 201.34 231.31 199.89 225.32 199.15 219.32 198.68 218.59 198.68 218.59 266.85"/><polygon class="cls-5" points="218.59 266.85 285.3 279.58 286.04 273.57 286.51 267.56 286.28 261.81 285.57 255.8 284.36 250.03 282.68 244.29 280.52 238.78 277.89 233.47 274.76 228.44 271.16 223.63 267.32 219.33 263 215.24 258.19 211.65 253.41 208.29 248.12 205.4 242.6 203.25 237.07 201.34 231.31 199.89 225.32 199.15 219.32 198.68 218.59 198.68 218.59 266.85"/><polygon class="cls-6" points="218.59 266.85 218.35 96.7 203.73 97.4 188.84 99.32 174.43 102.44 160.28 107.01 146.61 112.52 133.41 119.5 120.91 127.39 109.16 136.53 98.35 146.6 88.28 157.41 79.15 169.17 71.24 181.66 64.27 194.85 58.77 208.52 54.2 222.69 51.09 237.1 49.15 251.97 48.44 266.62 49.15 281.49 51.09 296.37 54.2 310.77 58.77 324.91 64.27 338.61 71.24 351.81 79.15 364.27 88.28 376.06 90.91 379.18 218.59 266.85"/><polygon class="cls-5" points="218.59 266.85 218.35 96.7 203.73 97.4 188.84 99.32 174.43 102.44 160.28 107.01 146.61 112.52 133.41 119.5 120.91 127.39 109.16 136.53 98.35 146.6 88.28 157.41 79.15 169.17 71.24 181.66 64.27 194.85 58.77 208.52 54.2 222.69 51.09 237.1 49.15 251.97 48.44 266.62 49.15 281.49 51.09 296.37 54.2 310.77 58.77 324.91 64.27 338.61 71.24 351.81 79.15 364.27 88.28 376.06 90.91 379.18 218.59 266.85"/><polygon class="cls-7" points="218.59 266.85 116.37 356.61 124.75 365.24 133.64 372.93 143.24 380.12 153.31 386.13 164.12 391.4 175.17 395.73 186.45 398.86 198.21 401.24 203.23 401.95 218.59 266.85"/><polygon class="cls-5" points="218.59 266.85 116.37 356.61 124.75 365.24 133.64 372.93 143.24 380.12 153.31 386.13 164.12 391.4 175.17 395.73 186.45 398.86 198.21 401.24 203.23 401.95 218.59 266.85"/><polygon class="cls-8" points="218.59 266.85 207.07 368.13 215.96 368.6 224.84 368.6 233.47 367.63 242.36 365.95 250.98 363.56 259.17 360.21 267.08 356.38 274.76 351.81 281.97 346.54 288.67 340.76 294.93 334.28 300.43 327.33 305.47 319.88 309.79 312.22 313.39 304.06 316.28 295.63 318.44 287 318.68 285.79 218.59 266.85"/><polygon class="cls-5" points="218.59 266.85 207.07 368.13 215.96 368.6 224.84 368.6 233.47 367.63 242.36 365.95 250.98 363.56 259.17 360.21 267.08 356.38 274.76 351.81 281.97 346.54 288.67 340.76 294.93 334.28 300.43 327.33 305.47 319.88 309.79 312.22 313.39 304.06 316.28 295.63 318.44 287 318.68 285.79 218.59 266.85"/></g><g class="cls-3"><path d="M163.24,205.79a4.59,4.59,0,0,0,2.84.91,2.67,2.67,0,0,0,1.63-.45,1.55,1.55,0,0,0,.61-1.3,1.46,1.46,0,0,0-.72-1.31,3.71,3.71,0,0,0-2-.46H164.5v-2h1c1.63,0,2.45-.55,2.45-1.65s-.63-1.56-1.88-1.56a4.15,4.15,0,0,0-2.38.8v-2.09a6.43,6.43,0,0,1,3-.65,4.58,4.58,0,0,1,2.8.79,2.61,2.61,0,0,1,1.08,2.21,2.86,2.86,0,0,1-2.42,3v0a3.14,3.14,0,0,1,2,.93,2.66,2.66,0,0,1,.76,1.92,3.23,3.23,0,0,1-1.26,2.71,5.47,5.47,0,0,1-3.38,1,6.37,6.37,0,0,1-3-.62Z" transform="translate(-163.24 -23.43)"/><path d="M175.3,204.44a2.7,2.7,0,0,0,.47,1.6,1.45,1.45,0,0,0,1.24.66,1.42,1.42,0,0,0,1.22-.6,2.47,2.47,0,0,0,.45-1.52c0-1.36-.56-2-1.69-2a1.54,1.54,0,0,0-1.22.54A2,2,0,0,0,175.3,204.44Zm5-5.89a4,4,0,0,0-2-.53,2.67,2.67,0,0,0-2.24,1.11,4.5,4.5,0,0,0-.85,2.85h0a2.88,2.88,0,0,1,2.58-1.33,3,3,0,0,1,2.43,1,4,4,0,0,1,.9,2.73,4.16,4.16,0,0,1-1.17,3,4,4,0,0,1-3,1.2,3.72,3.72,0,0,1-3.2-1.51A6.81,6.81,0,0,1,172.7,203a8.19,8.19,0,0,1,1.44-5,4.73,4.73,0,0,1,4-1.92,5.78,5.78,0,0,1,2.17.33Z" transform="translate(-163.24 -23.43)"/><path d="M182.46,207.3a1.23,1.23,0,0,1,.45-1A1.6,1.6,0,0,1,184,206a1.57,1.57,0,0,1,1.06.38,1.31,1.31,0,0,1,0,1.94,1.6,1.6,0,0,1-1.09.37,1.52,1.52,0,0,1-1-.39A1.21,1.21,0,0,1,182.46,207.3Z" transform="translate(-163.24 -23.43)"/><path d="M187.6,208.12v-2.19a5,5,0,0,0,2.69.77,2.45,2.45,0,0,0,1.68-.53,1.78,1.78,0,0,0,.61-1.43c0-1.26-.86-1.89-2.59-1.89a21.09,21.09,0,0,0-2.21.14l.46-6.71h6.43v2.09h-4.38l-.18,2.56q.66-.06,1.2-.06a4,4,0,0,1,2.82,1,3.41,3.41,0,0,1,1,2.63,3.91,3.91,0,0,1-1.25,3,4.75,4.75,0,0,1-3.39,1.17A7.22,7.22,0,0,1,187.6,208.12Z" transform="translate(-163.24 -23.43)"/><path d="M206.07,205.49c0,1.13.42,1.69,1.25,1.69s1.26-.58,1.26-1.76a2,2,0,0,0-.34-1.26,1,1,0,0,0-.89-.45C206.5,203.71,206.07,204.3,206.07,205.49Zm-1.71.08a3.33,3.33,0,0,1,.84-2.39,2.89,2.89,0,0,1,2.23-.89,2.71,2.71,0,0,1,2.1.8,3.15,3.15,0,0,1,.75,2.25,3.33,3.33,0,0,1-.84,2.38,2.92,2.92,0,0,1-2.22.89,2.71,2.71,0,0,1-2.08-.84A3.08,3.08,0,0,1,204.36,205.57Zm4.12-9.29-7.91,12.17h-2l7.89-12.17Zm-9.93,3c0,1.12.41,1.69,1.24,1.69s1.26-.59,1.26-1.76-.4-1.7-1.21-1.7S198.55,198.14,198.55,199.32Zm-1.73.09a3.37,3.37,0,0,1,.83-2.39,2.89,2.89,0,0,1,2.24-.9,2.72,2.72,0,0,1,2.1.81,3.23,3.23,0,0,1,.75,2.26,3.33,3.33,0,0,1-.83,2.36,2.92,2.92,0,0,1-2.22.88,2.71,2.71,0,0,1-2.09-.83A3.06,3.06,0,0,1,196.82,199.41Z" transform="translate(-163.24 -23.43)"/></g><g class="cls-3"><path d="M270.1,427.62V440h-2.55v-9.57a4.82,4.82,0,0,1-1.29.74,6.11,6.11,0,0,1-1.5.4v-2.17a11.53,11.53,0,0,0,3.72-1.82Z" transform="translate(-163.24 -23.43)"/><path d="M279.94,427.62V440h-2.55v-9.57a4.82,4.82,0,0,1-1.29.74,6.11,6.11,0,0,1-1.5.4v-2.17a11.53,11.53,0,0,0,3.72-1.82Z" transform="translate(-163.24 -23.43)"/><path d="M283.74,438.9a1.23,1.23,0,0,1,.45-1,1.6,1.6,0,0,1,1.07-.37,1.58,1.58,0,0,1,1.06.38,1.31,1.31,0,0,1,0,1.94,1.68,1.68,0,0,1-1.1.37,1.51,1.51,0,0,1-1-.39A1.21,1.21,0,0,1,283.74,438.9Z" transform="translate(-163.24 -23.43)"/><path d="M296.74,429.43q-1.47,2.64-2.2,4.26a27.31,27.31,0,0,0-1.18,3.15,24.13,24.13,0,0,0-.7,3.2h-2.72a22,22,0,0,1,1.39-4.82,35.17,35.17,0,0,1,2.74-5.25h-5.8v-2.09h8.47Z" transform="translate(-163.24 -23.43)"/><path d="M307.35,437.09c0,1.13.42,1.69,1.25,1.69s1.26-.58,1.26-1.76a2,2,0,0,0-.34-1.26,1.05,1.05,0,0,0-.89-.45C307.78,435.31,307.35,435.9,307.35,437.09Zm-1.71.08a3.37,3.37,0,0,1,.83-2.39,2.92,2.92,0,0,1,2.24-.9,2.72,2.72,0,0,1,2.1.81,3.15,3.15,0,0,1,.75,2.25,3.33,3.33,0,0,1-.84,2.38,2.92,2.92,0,0,1-2.22.89,2.71,2.71,0,0,1-2.08-.84A3.08,3.08,0,0,1,305.64,437.17Zm4.11-9.29L301.85,440h-2l7.89-12.16Zm-9.92,3c0,1.12.41,1.69,1.24,1.69s1.26-.59,1.26-1.76-.4-1.7-1.21-1.7S299.83,429.74,299.83,430.92Zm-1.73.09a3.37,3.37,0,0,1,.83-2.39,2.89,2.89,0,0,1,2.24-.9,2.72,2.72,0,0,1,2.1.81,3.23,3.23,0,0,1,.75,2.26,3.33,3.33,0,0,1-.83,2.36A2.92,2.92,0,0,1,301,434a2.71,2.71,0,0,1-2.09-.83A3.06,3.06,0,0,1,298.1,431Z" transform="translate(-163.24 -23.43)"/></g><g class="cls-3"><path d="M452.32,395.69h5.16v2.11h-8.09v-.91a4.24,4.24,0,0,1,.35-1.73,5.71,5.71,0,0,1,1-1.46,11,11,0,0,1,1.89-1.59,7.42,7.42,0,0,0,1.65-1.56,2.43,2.43,0,0,0,.47-1.44c0-1.09-.59-1.64-1.79-1.64a4.48,4.48,0,0,0-3,1.26v-2.26a6.4,6.4,0,0,1,3.57-1,4.19,4.19,0,0,1,2.88.93,3.21,3.21,0,0,1,1.06,2.56,4.28,4.28,0,0,1-.3,1.64,4.92,4.92,0,0,1-.89,1.38,11.71,11.71,0,0,1-1.86,1.55,10.93,10.93,0,0,0-1.65,1.35A1.35,1.35,0,0,0,452.32,395.69Z" transform="translate(-163.24 -23.43)"/><path d="M459.63,395.15a4.62,4.62,0,0,0,2.85.91,2.69,2.69,0,0,0,1.63-.45,1.55,1.55,0,0,0,.6-1.3A1.48,1.48,0,0,0,464,393a3.77,3.77,0,0,0-2-.45H460.9v-2h1c1.64,0,2.45-.55,2.45-1.65s-.62-1.56-1.87-1.56a4.15,4.15,0,0,0-2.38.8v-2.09a6.4,6.4,0,0,1,3-.65,4.6,4.6,0,0,1,2.8.79,2.6,2.6,0,0,1,1.07,2.21,2.85,2.85,0,0,1-2.41,3v0a3.16,3.16,0,0,1,2,.93,2.66,2.66,0,0,1,.76,1.92A3.22,3.22,0,0,1,466,397a5.44,5.44,0,0,1-3.37,1,6.44,6.44,0,0,1-3-.62Z" transform="translate(-163.24 -23.43)"/><path d="M469,396.66a1.23,1.23,0,0,1,.45-1,1.59,1.59,0,0,1,1.06-.37,1.55,1.55,0,0,1,1.06.38,1.31,1.31,0,0,1,0,1.94,1.63,1.63,0,0,1-1.09.37,1.49,1.49,0,0,1-1-.39A1.18,1.18,0,0,1,469,396.66Z" transform="translate(-163.24 -23.43)"/><path d="M476.38,388.93a1.7,1.7,0,0,0,.41,1.14,1.32,1.32,0,0,0,1,.48,1.33,1.33,0,0,0,1-.47,1.65,1.65,0,0,0,.42-1.15,1.71,1.71,0,0,0-.41-1.17,1.3,1.3,0,0,0-1-.48,1.28,1.28,0,0,0-1,.48A1.76,1.76,0,0,0,476.38,388.93ZM476,394.3a1.9,1.9,0,0,0,.49,1.35,1.9,1.9,0,0,0,2.59,0,2,2,0,0,0,0-2.67,1.82,1.82,0,0,0-2.57,0A1.85,1.85,0,0,0,476,394.3Zm-2.53.22a3.07,3.07,0,0,1,.61-1.88,3.52,3.52,0,0,1,1.78-1.21,3.86,3.86,0,0,1-1.44-1.17,2.75,2.75,0,0,1-.5-1.59,2.82,2.82,0,0,1,.5-1.65,3.26,3.26,0,0,1,1.39-1.16,4.62,4.62,0,0,1,2-.42,4.93,4.93,0,0,1,2,.41,3.27,3.27,0,0,1,1.4,1.15,2.83,2.83,0,0,1,.5,1.64,2.57,2.57,0,0,1-.55,1.58,3.85,3.85,0,0,1-1.49,1.15,3.77,3.77,0,0,1,1.78,1.21,3.24,3.24,0,0,1-.57,4.44,5.49,5.49,0,0,1-6.23,0A3.07,3.07,0,0,1,473.47,394.52Z" transform="translate(-163.24 -23.43)"/><path d="M492.63,394.85c0,1.13.42,1.69,1.25,1.69s1.25-.58,1.25-1.76a2.06,2.06,0,0,0-.33-1.26,1.05,1.05,0,0,0-.89-.45C493.06,393.07,492.63,393.66,492.63,394.85Zm-1.72.08a3.33,3.33,0,0,1,.84-2.39,2.92,2.92,0,0,1,2.24-.89,2.71,2.71,0,0,1,2.1.8,3.15,3.15,0,0,1,.75,2.25,3.33,3.33,0,0,1-.84,2.38,2.92,2.92,0,0,1-2.22.89,2.7,2.7,0,0,1-2.08-.84A3,3,0,0,1,490.91,394.93Zm4.12-9.29-7.9,12.16h-2l7.89-12.16Zm-9.92,3c0,1.12.41,1.69,1.24,1.69s1.26-.59,1.26-1.76-.4-1.7-1.21-1.7S485.11,387.5,485.11,388.68Zm-1.73.09a3.37,3.37,0,0,1,.83-2.39,2.89,2.89,0,0,1,2.24-.9,2.72,2.72,0,0,1,2.1.81,3.23,3.23,0,0,1,.75,2.26,3.29,3.29,0,0,1-.84,2.36,2.89,2.89,0,0,1-2.22.88,2.71,2.71,0,0,1-2.08-.83A3.06,3.06,0,0,1,483.38,388.77Z" transform="translate(-163.24 -23.43)"/></g><g class="cls-3"><path d="M443.44,235.61h5.16v2.11h-8.09v-.91a4.24,4.24,0,0,1,.35-1.73,5.71,5.71,0,0,1,1-1.46,11.45,11.45,0,0,1,1.89-1.59,7.42,7.42,0,0,0,1.65-1.56,2.43,2.43,0,0,0,.47-1.44c0-1.09-.59-1.64-1.79-1.64a4.48,4.48,0,0,0-3,1.26v-2.26a6.4,6.4,0,0,1,3.57-1,4.19,4.19,0,0,1,2.88.93,3.21,3.21,0,0,1,1.06,2.56,4.24,4.24,0,0,1-.3,1.64,4.92,4.92,0,0,1-.89,1.38,11.71,11.71,0,0,1-1.86,1.55,10.93,10.93,0,0,0-1.65,1.35A1.35,1.35,0,0,0,443.44,235.61Z" transform="translate(-163.24 -23.43)"/><path d="M453.1,228.85a1.7,1.7,0,0,0,.41,1.14,1.32,1.32,0,0,0,1,.48,1.33,1.33,0,0,0,1-.47,1.63,1.63,0,0,0,.42-1.15,1.71,1.71,0,0,0-.41-1.17,1.3,1.3,0,0,0-1-.48,1.28,1.28,0,0,0-1,.48A1.76,1.76,0,0,0,453.1,228.85Zm-.38,5.37a1.92,1.92,0,0,0,.49,1.36,1.9,1.9,0,0,0,2.59,0,1.84,1.84,0,0,0,.5-1.36,1.82,1.82,0,0,0-.51-1.32,1.82,1.82,0,0,0-2.57,0A1.85,1.85,0,0,0,452.72,234.22Zm-2.53.23a3.07,3.07,0,0,1,.61-1.89,3.52,3.52,0,0,1,1.78-1.21,3.86,3.86,0,0,1-1.44-1.17,2.75,2.75,0,0,1-.5-1.59,2.82,2.82,0,0,1,.5-1.65,3.33,3.33,0,0,1,1.39-1.16,4.62,4.62,0,0,1,2-.42,4.93,4.93,0,0,1,2,.41,3.27,3.27,0,0,1,1.4,1.15,2.83,2.83,0,0,1,.5,1.64,2.57,2.57,0,0,1-.55,1.58,3.78,3.78,0,0,1-1.49,1.15,3.77,3.77,0,0,1,1.78,1.21,3.24,3.24,0,0,1-.57,4.44,5.49,5.49,0,0,1-6.23,0A3.07,3.07,0,0,1,450.19,234.45Z" transform="translate(-163.24 -23.43)"/><path d="M469.35,234.77c0,1.13.42,1.69,1.25,1.69s1.26-.58,1.26-1.76a2.06,2.06,0,0,0-.34-1.26,1.05,1.05,0,0,0-.89-.45C469.78,233,469.35,233.58,469.35,234.77Zm-1.72.08a3.33,3.33,0,0,1,.84-2.39,2.92,2.92,0,0,1,2.24-.89,2.71,2.71,0,0,1,2.1.8,3.15,3.15,0,0,1,.75,2.25,3.33,3.33,0,0,1-.84,2.38,2.92,2.92,0,0,1-2.22.89,2.7,2.7,0,0,1-2.08-.84A3.09,3.09,0,0,1,467.63,234.85Zm4.12-9.29-7.9,12.17h-2l7.89-12.17Zm-9.92,3c0,1.12.41,1.69,1.24,1.69s1.26-.59,1.26-1.76-.4-1.7-1.21-1.7S461.83,227.42,461.83,228.6Zm-1.73.09a3.37,3.37,0,0,1,.83-2.39,2.89,2.89,0,0,1,2.24-.9,2.72,2.72,0,0,1,2.1.81,3.23,3.23,0,0,1,.75,2.26,3.33,3.33,0,0,1-.83,2.36,2.92,2.92,0,0,1-2.23.88,2.71,2.71,0,0,1-2.08-.83A3.06,3.06,0,0,1,460.1,228.69Z" transform="translate(-163.24 -23.43)"/></g><g class="cls-3"><rect class="cls-9" x="460.27" y="29.97" width="77.29" height="119.04"/><rect class="cls-10" x="460.27" y="29.97" width="77.29" height="119.04"/></g><g class="cls-3"><rect class="cls-11" x="463.63" y="33.1" width="45.6" height="22.07"/><rect class="cls-5" x="463.63" y="33.1" width="45.6" height="22.07"/></g><g class="cls-3"><path d="M687.05,69.26,685,63.6a7.8,7.8,0,0,1-.21-1h0a5.92,5.92,0,0,1-.22,1l-2,5.66Zm3.87,5.26H689l-1.39-3.73h-5.67l-1.3,3.73h-2l5.19-13.61h1.88Z" transform="translate(-163.24 -23.43)"/><path d="M697.49,76.46a2.83,2.83,0,0,1-.9,2.19,3.45,3.45,0,0,1-2.42.83,3.81,3.81,0,0,1-1.94-.39V77.9a3.53,3.53,0,0,0,1.91.61,2.25,2.25,0,0,0,1.57-.54,1.84,1.84,0,0,0,.59-1.42,1.64,1.64,0,0,0-.62-1.37,2.72,2.72,0,0,0-1.75-.5,14.81,14.81,0,0,0-1.57.08l.34-4.69H697v1h-3.34l-.19,2.62.84,0a3.39,3.39,0,0,1,2.31.73A2.58,2.58,0,0,1,697.49,76.46Z" transform="translate(-163.24 -23.43)"/></g><g class="cls-3"><rect class="cls-12" x="463.63" y="62.38" width="45.6" height="22.06"/><rect class="cls-5" x="463.63" y="62.38" width="45.6" height="22.06"/></g><g class="cls-3"><path d="M687.05,98.54,685,92.88a7.8,7.8,0,0,1-.21-.95h0a5.92,5.92,0,0,1-.22.95l-2,5.66Zm3.87,5.26H689l-1.39-3.73h-5.67l-1.3,3.73h-2l5.19-13.61h1.88Z" transform="translate(-163.24 -23.43)"/><path d="M693.16,105.57a2.55,2.55,0,0,0,.49,1.56,1.53,1.53,0,0,0,1.29.66,1.56,1.56,0,0,0,1.25-.57,2.17,2.17,0,0,0,.47-1.44,2.25,2.25,0,0,0-.45-1.49,1.59,1.59,0,0,0-1.28-.53,1.66,1.66,0,0,0-1.28.54A1.85,1.85,0,0,0,693.16,105.57Zm4.11-5a3.33,3.33,0,0,0-1.51-.37,2.25,2.25,0,0,0-1.93,1,5,5,0,0,0-.74,2.85h0a2.22,2.22,0,0,1,2.1-1.27,2.49,2.49,0,0,1,1.92.78,3,3,0,0,1,.71,2.08,3.1,3.1,0,0,1-.82,2.23,2.81,2.81,0,0,1-2.12.87,2.57,2.57,0,0,1-2.21-1.1,5.28,5.28,0,0,1-.8-3.13,6.48,6.48,0,0,1,1.05-3.89,3.28,3.28,0,0,1,2.78-1.44,3.6,3.6,0,0,1,1.54.27Z" transform="translate(-163.24 -23.43)"/></g><g class="cls-3"><rect class="cls-13" x="463.63" y="91.63" width="45.6" height="22.09"/><rect class="cls-5" x="463.63" y="91.63" width="45.6" height="22.09"/></g><g class="cls-3"><path d="M687.05,127.82,685,122.16a7.8,7.8,0,0,1-.21-1h0a5.92,5.92,0,0,1-.22,1l-2,5.66Zm3.87,5.26H689l-1.39-3.73h-5.67l-1.3,3.73h-2l5.19-13.61h1.88Z" transform="translate(-163.24 -23.43)"/><path d="M697.73,129.35a34.6,34.6,0,0,0-2.29,4.71,16.28,16.28,0,0,0-1,3.82h-1.22a16.37,16.37,0,0,1,1-3.72,34.15,34.15,0,0,1,2.2-4.5h-4.58v-1h5.87Z" transform="translate(-163.24 -23.43)"/></g><g class="cls-3"><rect class="cls-14" x="463.63" y="120.91" width="45.6" height="22.09"/><rect class="cls-5" x="463.63" y="120.91" width="45.6" height="22.09"/></g><g class="cls-3"><path d="M687.05,157.1,685,151.44a7.8,7.8,0,0,1-.21-.95h0a5.92,5.92,0,0,1-.22.95l-2,5.66Zm3.87,5.26H689l-1.39-3.73h-5.67l-1.3,3.73h-2l5.19-13.61h1.88Z" transform="translate(-163.24 -23.43)"/><path d="M693.26,160.21a1.53,1.53,0,0,0,2.61,1.06,1.43,1.43,0,0,0,.45-1.06,1.4,1.4,0,0,0-.44-1.06,1.5,1.5,0,0,0-1.1-.44,1.47,1.47,0,0,0-1.09.43A1.42,1.42,0,0,0,693.26,160.21Zm-.34,4.31a1.76,1.76,0,0,0,.51,1.32,2.06,2.06,0,0,0,2.7,0,1.72,1.72,0,0,0,.52-1.31,1.68,1.68,0,0,0-.53-1.28,2,2,0,0,0-2.67,0A1.75,1.75,0,0,0,692.92,164.52Zm-1.14.06a2.49,2.49,0,0,1,.48-1.48,2.54,2.54,0,0,1,1.23-1,2.79,2.79,0,0,1-1-.87,2.1,2.1,0,0,1-.35-1.15,2.24,2.24,0,0,1,.34-1.21,2.32,2.32,0,0,1,.93-.85,2.8,2.8,0,0,1,1.33-.31,2.83,2.83,0,0,1,1.33.31,2.34,2.34,0,0,1,.94.85,2.27,2.27,0,0,1,.33,1.21,2.08,2.08,0,0,1-.34,1.14,2.64,2.64,0,0,1-1,.88,2.66,2.66,0,0,1,1.23,1,2.54,2.54,0,0,1,.47,1.47,2.62,2.62,0,0,1-.38,1.41,2.49,2.49,0,0,1-1.06,1,3.5,3.5,0,0,1-1.56.35,3.4,3.4,0,0,1-1.55-.35,2.58,2.58,0,0,1-1.07-1A2.71,2.71,0,0,1,691.78,164.58Z" transform="translate(-163.24 -23.43)"/></g><g class="cls-3"><path d="M217.67,24.65l-4.4,16.51h-3.91l-2.81-10.77a9,9,0,0,1-.27-1.82h0a10.9,10.9,0,0,1-.3,1.82l-2.88,10.77H199l-4.4-16.51h3.86l2.45,11.19a11.59,11.59,0,0,1,.22,1.85h.08a8.93,8.93,0,0,1,.33-1.9l3.07-11.14h3.74l2.79,11.27a11.42,11.42,0,0,1,.27,1.75h.05a9.86,9.86,0,0,1,.25-1.81l2.39-11.21Z" transform="translate(-163.24 -23.43)"/><path d="M226.74,34.08c0-1.76-.71-2.64-2.14-2.64a2.12,2.12,0,0,0-1.57.72,3.44,3.44,0,0,0-.85,1.92ZM230,36.23h-7.76Q222.37,39,225.5,39a6.23,6.23,0,0,0,3.44-1v2.53a8.63,8.63,0,0,1-4.22.91,5.86,5.86,0,0,1-4.38-1.59,6.06,6.06,0,0,1-1.56-4.43,6.43,6.43,0,0,1,1.66-4.58,5.49,5.49,0,0,1,4.18-1.77,5.1,5.1,0,0,1,3.92,1.52A5.88,5.88,0,0,1,230,34.77Z" transform="translate(-163.24 -23.43)"/><path d="M232.15,41.16V29.37h3.43V41.16Zm-.25-15.59a1.64,1.64,0,0,1,.55-1.29,2.11,2.11,0,0,1,1.44-.49,2.06,2.06,0,0,1,1.45.5,1.65,1.65,0,0,1,.55,1.28,1.7,1.7,0,0,1-.56,1.29,2.09,2.09,0,0,1-1.44.52,2,2,0,0,1-1.43-.53A1.64,1.64,0,0,1,231.9,25.57Z" transform="translate(-163.24 -23.43)"/><path d="M246.68,34.51a2.91,2.91,0,0,0-.71-2,2.27,2.27,0,0,0-1.79-.8,2.32,2.32,0,0,0-2,1,4.56,4.56,0,0,0-.73,2.77,3.8,3.8,0,0,0,.7,2.43,2.24,2.24,0,0,0,1.86.89,2.34,2.34,0,0,0,1.91-.9,3.64,3.64,0,0,0,.74-2.36Zm3.4,5.35a6.64,6.64,0,0,1-1.87,5,7.52,7.52,0,0,1-5.39,1.78A8.83,8.83,0,0,1,239,46V43.07a7.26,7.26,0,0,0,3.69,1.06,4.08,4.08,0,0,0,2.89-1,3.61,3.61,0,0,0,1-2.74v-1h-.06a4.1,4.1,0,0,1-3.71,2,4.42,4.42,0,0,1-3.56-1.59A6.41,6.41,0,0,1,238,35.6a7.13,7.13,0,0,1,1.48-4.74,4.76,4.76,0,0,1,3.87-1.78,3.61,3.61,0,0,1,3.26,1.7h.06V29.37h3.43Z" transform="translate(-163.24 -23.43)"/><path d="M264.22,41.16h-3.43V34.44c0-1.81-.66-2.71-2-2.71a2.07,2.07,0,0,0-1.64.75,2.93,2.93,0,0,0-.64,2v6.72h-3.45V23.71h3.45v7.43h0a4.17,4.17,0,0,1,3.64-2.06c2.68,0,4,1.62,4,4.84Z" transform="translate(-163.24 -23.43)"/><path d="M274.18,41a5.09,5.09,0,0,1-2.35.43q-3.75,0-3.75-4V31.94h-1.94V29.37h1.94V26.78l3.42-1v3.57h2.68v2.57H271.5v5c0,1.25.49,1.88,1.49,1.88a2.43,2.43,0,0,0,1.19-.34Z" transform="translate(-163.24 -23.43)"/><path d="M276.05,38a6.65,6.65,0,0,0,3.47,1.08q2.13,0,2.13-1.14c0-.54-.59-1-1.76-1.36a7.41,7.41,0,0,1-3-1.51,3.11,3.11,0,0,1-.83-2.27,3.14,3.14,0,0,1,1.41-2.72,6.29,6.29,0,0,1,3.69-1,10.17,10.17,0,0,1,3.12.48v2.71a5.83,5.83,0,0,0-3-.81,2.69,2.69,0,0,0-1.32.29.88.88,0,0,0-.5.77c0,.54.5,1,1.49,1.32a14.56,14.56,0,0,1,2.41,1A3.08,3.08,0,0,1,284.54,36a3.16,3.16,0,0,1,.42,1.65,3.23,3.23,0,0,1-1.46,2.83,6.75,6.75,0,0,1-3.9,1,10.22,10.22,0,0,1-3.55-.61Z" transform="translate(-163.24 -23.43)"/><path d="M296.43,35.27c0,2.36.95,3.53,2.87,3.53s2.76-1.21,2.76-3.62-.92-3.45-2.78-3.45a2.54,2.54,0,0,0-2.1.92A4.07,4.07,0,0,0,296.43,35.27Zm-3.49,0a6,6,0,0,1,1.74-4.58,6.55,6.55,0,0,1,4.69-1.66,6.21,6.21,0,0,1,4.52,1.64,5.87,5.87,0,0,1,1.67,4.39,6.21,6.21,0,0,1-1.72,4.62,7.14,7.14,0,0,1-9.21.07A6,6,0,0,1,292.94,35.32Z" transform="translate(-163.24 -23.43)"/><path d="M315.53,26.36a3.76,3.76,0,0,0-1.34-.27c-1.18,0-1.77.65-1.77,2v1.32h2.69v2.57h-2.69v9.22H309V31.94h-2V29.37h2V27.86a4.16,4.16,0,0,1,1.31-3.22,4.87,4.87,0,0,1,3.44-1.21,6,6,0,0,1,1.8.23Z" transform="translate(-163.24 -23.43)"/><path d="M323,37a6.91,6.91,0,0,0,4.53,1.65,3.84,3.84,0,0,0,2.16-.49,1.51,1.51,0,0,0,.73-1.28,1.81,1.81,0,0,0-.58-1.26,10.69,10.69,0,0,0-3-1.62q-3.87-1.65-3.87-4.78a4.15,4.15,0,0,1,1.76-3.57,7.71,7.71,0,0,1,4.64-1.28,11.43,11.43,0,0,1,4.06.63v3.3a6.79,6.79,0,0,0-3.89-1.13,3.93,3.93,0,0,0-2.08.48,1.43,1.43,0,0,0-.78,1.27,1.64,1.64,0,0,0,.54,1.18,9.8,9.8,0,0,0,2.63,1.45,8.66,8.66,0,0,1,3.38,2.23,4.34,4.34,0,0,1,.92,2.79,4.24,4.24,0,0,1-1.68,3.63,7.94,7.94,0,0,1-4.79,1.25,10.27,10.27,0,0,1-4.64-.92Z" transform="translate(-163.24 -23.43)"/><path d="M343.54,41a5.09,5.09,0,0,1-2.35.43q-3.76,0-3.76-4V31.94h-1.94V29.37h1.94V26.78l3.43-1v3.57h2.68v2.57h-2.68v5c0,1.25.49,1.88,1.49,1.88a2.43,2.43,0,0,0,1.19-.34Z" transform="translate(-163.24 -23.43)"/><path d="M353.24,32.49a3,3,0,0,0-1.53-.36,2.22,2.22,0,0,0-1.86.9,3.91,3.91,0,0,0-.68,2.46v5.67h-3.45V29.37h3.45v2.22h0a3.13,3.13,0,0,1,3.1-2.42,2.33,2.33,0,0,1,.93.14Z" transform="translate(-163.24 -23.43)"/><path d="M362.34,34.08c0-1.76-.71-2.64-2.14-2.64a2.12,2.12,0,0,0-1.57.72,3.44,3.44,0,0,0-.85,1.92Zm3.21,2.15h-7.76Q358,39,361.09,39a6.26,6.26,0,0,0,3.45-1v2.53a8.63,8.63,0,0,1-4.22.91,5.86,5.86,0,0,1-4.38-1.59,6.06,6.06,0,0,1-1.56-4.43A6.38,6.38,0,0,1,356,30.85a5.49,5.49,0,0,1,4.18-1.77,5.1,5.1,0,0,1,3.92,1.52,5.88,5.88,0,0,1,1.41,4.17Z" transform="translate(-163.24 -23.43)"/><path d="M379,41.16h-3.42V34.58c0-1.9-.68-2.85-2.05-2.85a2,2,0,0,0-1.63.76,2.85,2.85,0,0,0-.65,1.94v6.73H367.8V29.37h3.45v1.88h0a4.14,4.14,0,0,1,3.79-2.17c2.62,0,3.92,1.62,3.92,4.86Z" transform="translate(-163.24 -23.43)"/><path d="M390,34.51a2.91,2.91,0,0,0-.71-2,2.28,2.28,0,0,0-1.79-.8,2.34,2.34,0,0,0-2,1,4.63,4.63,0,0,0-.73,2.77,3.8,3.8,0,0,0,.71,2.43,2.24,2.24,0,0,0,1.86.89,2.35,2.35,0,0,0,1.91-.9,3.64,3.64,0,0,0,.74-2.36Zm3.4,5.35a6.64,6.64,0,0,1-1.87,5,7.52,7.52,0,0,1-5.39,1.78,8.91,8.91,0,0,1-3.8-.68V43.07a7.32,7.32,0,0,0,3.7,1.06,4,4,0,0,0,2.88-1,3.57,3.57,0,0,0,1-2.74v-1h-.05a4.1,4.1,0,0,1-3.71,2,4.42,4.42,0,0,1-3.56-1.59,6.36,6.36,0,0,1-1.34-4.26,7.13,7.13,0,0,1,1.48-4.74,4.76,4.76,0,0,1,3.87-1.78,3.61,3.61,0,0,1,3.26,1.7h.05V29.37h3.44Z" transform="translate(-163.24 -23.43)"/><path d="M403.3,41a5.09,5.09,0,0,1-2.35.43q-3.76,0-3.76-4V31.94h-1.94V29.37h1.94V26.78l3.42-1v3.57h2.69v2.57h-2.69v5c0,1.25.5,1.88,1.5,1.88a2.43,2.43,0,0,0,1.19-.34Z" transform="translate(-163.24 -23.43)"/><path d="M416.62,41.16h-3.43V34.44c0-1.81-.66-2.71-2-2.71a2.06,2.06,0,0,0-1.64.75,2.93,2.93,0,0,0-.65,2v6.72h-3.44V23.71h3.44v7.43H409a4.16,4.16,0,0,1,3.64-2.06c2.67,0,4,1.62,4,4.84Z" transform="translate(-163.24 -23.43)"/><path d="M434.12,34.49a2.81,2.81,0,0,0-.72-2,2.35,2.35,0,0,0-1.8-.78,2.31,2.31,0,0,0-2,1,4.55,4.55,0,0,0-.72,2.7,3.9,3.9,0,0,0,.7,2.5,2.27,2.27,0,0,0,1.9.88,2.3,2.3,0,0,0,1.88-.93,3.74,3.74,0,0,0,.74-2.4Zm3.37,6.67h-3.43V39.49H434a4.08,4.08,0,0,1-3.69,2,4.4,4.4,0,0,1-3.57-1.59,6.52,6.52,0,0,1-1.33-4.33,7,7,0,0,1,1.49-4.67,4.8,4.8,0,0,1,3.88-1.78A3.38,3.38,0,0,1,434,30.74h.05v-7h3.43Z" transform="translate(-163.24 -23.43)"/><path d="M447.78,34.08c0-1.76-.71-2.64-2.14-2.64a2.12,2.12,0,0,0-1.57.72,3.44,3.44,0,0,0-.85,1.92ZM451,36.23h-7.76q.18,2.75,3.3,2.74A6.26,6.26,0,0,0,450,38v2.53a8.64,8.64,0,0,1-4.23.91,5.85,5.85,0,0,1-4.37-1.59,6.06,6.06,0,0,1-1.56-4.43,6.38,6.38,0,0,1,1.66-4.58,5.49,5.49,0,0,1,4.18-1.77,5.11,5.11,0,0,1,3.92,1.52A5.88,5.88,0,0,1,451,34.77Z" transform="translate(-163.24 -23.43)"/><path d="M464.25,29.37l-4.42,11.79h-3.89l-4.21-11.79h3.69l2.16,7.42a9.09,9.09,0,0,1,.39,2H458a10.52,10.52,0,0,1,.41-2l2.21-7.48Z" transform="translate(-163.24 -23.43)"/><path d="M473.22,34.08c0-1.76-.71-2.64-2.14-2.64a2.12,2.12,0,0,0-1.57.72,3.44,3.44,0,0,0-.85,1.92Zm3.21,2.15h-7.76Q468.85,39,472,39a6.26,6.26,0,0,0,3.45-1v2.53a8.64,8.64,0,0,1-4.23.91,5.85,5.85,0,0,1-4.37-1.59,6.06,6.06,0,0,1-1.56-4.43,6.38,6.38,0,0,1,1.66-4.58,5.49,5.49,0,0,1,4.18-1.77A5.11,5.11,0,0,1,475,30.6a5.88,5.88,0,0,1,1.41,4.17Z" transform="translate(-163.24 -23.43)"/><ellipse cx="317.11" cy="9" rx="2.43" ry="12.34"/><path d="M487.94,35.27c0,2.36,1,3.53,2.88,3.53s2.76-1.21,2.76-3.62-.93-3.45-2.78-3.45a2.57,2.57,0,0,0-2.11.92A4.07,4.07,0,0,0,487.94,35.27Zm-3.48,0a6,6,0,0,1,1.74-4.58,6.53,6.53,0,0,1,4.68-1.66,6.18,6.18,0,0,1,4.52,1.64,5.84,5.84,0,0,1,1.68,4.39,6.57,6.57,0,0,1-10.93,4.69A6,6,0,0,1,484.46,35.32Z" transform="translate(-163.24 -23.43)"/><path d="M503,36a3.07,3.07,0,0,0,.68,2,2.21,2.21,0,0,0,1.77.8,2.33,2.33,0,0,0,2-1,4.79,4.79,0,0,0,.72-2.83c0-2.16-.84-3.24-2.53-3.24a2.35,2.35,0,0,0-1.91.89,3.51,3.51,0,0,0-.74,2.3Zm.05,3.79v6.84h-3.44V29.37H503v1.8h.05a4.62,4.62,0,0,1,7.34-.52,6.62,6.62,0,0,1,1.27,4.28,7.22,7.22,0,0,1-1.47,4.74,4.79,4.79,0,0,1-3.86,1.78,3.67,3.67,0,0,1-3.28-1.71Z" transform="translate(-163.24 -23.43)"/><path d="M532.69,41.16h-3.43V34.43c0-1.8-.66-2.7-2-2.7a1.84,1.84,0,0,0-1.53.82,3.27,3.27,0,0,0-.6,2v6.61h-3.43V34.35c0-1.75-.65-2.62-2-2.62a1.85,1.85,0,0,0-1.56.78,3.43,3.43,0,0,0-.58,2.07v6.58H514.2V29.37h3.44v1.84h.05a4.33,4.33,0,0,1,1.64-1.57,4.45,4.45,0,0,1,2.15-.56,3.37,3.37,0,0,1,3.4,2.23,4.37,4.37,0,0,1,4-2.23q3.85,0,3.85,4.76Z" transform="translate(-163.24 -23.43)"/><path d="M542.82,34.08c0-1.76-.72-2.64-2.14-2.64a2.1,2.1,0,0,0-1.57.72,3.44,3.44,0,0,0-.85,1.92ZM546,36.23h-7.76q.18,2.75,3.3,2.74A6.2,6.2,0,0,0,545,38v2.53a8.6,8.6,0,0,1-4.22.91,5.85,5.85,0,0,1-4.37-1.59,6.06,6.06,0,0,1-1.56-4.43,6.38,6.38,0,0,1,1.66-4.58,5.49,5.49,0,0,1,4.18-1.77,5.08,5.08,0,0,1,3.91,1.52A5.84,5.84,0,0,1,546,34.77Z" transform="translate(-163.24 -23.43)"/><path d="M559.48,41.16h-3.42V34.58c0-1.9-.68-2.85-2.06-2.85a2.06,2.06,0,0,0-1.63.76,2.9,2.9,0,0,0-.65,1.94v6.73h-3.44V29.37h3.44v1.88h0a4.14,4.14,0,0,1,3.79-2.17q3.91,0,3.92,4.86Z" transform="translate(-163.24 -23.43)"/><path d="M569.38,41a5.11,5.11,0,0,1-2.36.43q-3.75,0-3.75-4V31.94h-1.94V29.37h1.94V26.78l3.42-1v3.57h2.69v2.57h-2.69v5c0,1.25.5,1.88,1.5,1.88a2.43,2.43,0,0,0,1.19-.34Z" transform="translate(-163.24 -23.43)"/></g></g></svg>