<svg id="图层_1" data-name="图层 1" xmlns="http://www.w3.org/2000/svg" xmlns:xlink="http://www.w3.org/1999/xlink" viewBox="0 0 452.13 201.02"><defs><style>.cls-1,.cls-11,.cls-15,.cls-26{fill:none;}.cls-2{clip-path:url(#clip-path);}.cls-3{clip-path:url(#clip-path-2);}.cls-4{clip-path:url(#clip-path-3);}.cls-5{font-size:15.71px;}.cls-23,.cls-5{font-family:MicrosoftYaHei-Bold, Microsoft YaHei;font-weight:700;}.cls-6{clip-path:url(#clip-path-6);}.cls-14,.cls-7{fill:#fff;}.cls-12,.cls-16,.cls-7{fill-rule:evenodd;}.cls-8{fill:#4f81bd;}.cls-9{clip-path:url(#clip-path-10);}.cls-10,.cls-11,.cls-14,.cls-15{font-size:7.81px;}.cls-10,.cls-11,.cls-14,.cls-15,.cls-25,.cls-26{font-family:SimHei;}.cls-11,.cls-26{stroke:#000;}.cls-11,.cls-15,.cls-26{stroke-linecap:square;stroke-linejoin:bevel;}.cls-11,.cls-15{stroke-width:0.22px;}.cls-12,.cls-21{fill:#475f72;}.cls-13{clip-path:url(#clip-path-17);}.cls-15{stroke:#fff;}.cls-16{fill:#abb3b9;}.cls-17{clip-path:url(#clip-path-24);}.cls-18{clip-path:url(#clip-path-31);}.cls-19{clip-path:url(#clip-path-38);}.cls-20{clip-path:url(#clip-path-45);}.cls-22{clip-path:url(#clip-path-52);}.cls-23,.cls-25,.cls-26{font-size:6.72px;}.cls-24{clip-path:url(#clip-path-56);}.cls-26{stroke-width:0.19px;}.cls-27{clip-path:url(#clip-path-60);}.cls-28{clip-path:url(#clip-path-64);}.cls-29{clip-path:url(#clip-path-68);}.cls-30{clip-path:url(#clip-path-72);}</style><clipPath id="clip-path" transform="translate(-71.04 -77.18)"><rect class="cls-1" x="49.76" y="53.36" width="495.68" height="735.2"/></clipPath><clipPath id="clip-path-2" transform="translate(-71.04 -77.18)"><rect class="cls-1" x="0.48" y="0.48" width="594.24" height="840.95"/></clipPath><clipPath id="clip-path-3" transform="translate(-71.04 -77.18)"><rect class="cls-1" x="50.88" y="54.48" width="489.78" height="243.72"/></clipPath><clipPath id="clip-path-6" transform="translate(-71.04 -77.18)"><rect class="cls-1" x="49.2" y="52.8" width="492.02" height="247.08"/></clipPath><clipPath id="clip-path-10" transform="translate(-71.04 -77.18)"><rect class="cls-1" x="99.41" y="186.58" width="48.99" height="22.15"/></clipPath><clipPath id="clip-path-17" transform="translate(-71.04 -77.18)"><rect class="cls-1" x="167.65" y="186.98" width="46.97" height="22.15"/></clipPath><clipPath id="clip-path-24" transform="translate(-71.04 -77.18)"><rect class="cls-1" x="235.37" y="186.95" width="46.96" height="22.15"/></clipPath><clipPath id="clip-path-31" transform="translate(-71.04 -77.18)"><rect class="cls-1" x="305.04" y="186.95" width="46.96" height="22.15"/></clipPath><clipPath id="clip-path-38" transform="translate(-71.04 -77.18)"><rect class="cls-1" x="372.76" y="186.98" width="47.61" height="22.15"/></clipPath><clipPath id="clip-path-45" transform="translate(-71.04 -77.18)"><rect class="cls-1" x="441.15" y="186.98" width="48.99" height="22.15"/></clipPath><clipPath id="clip-path-52" transform="translate(-71.04 -77.18)"><rect class="cls-1" x="67.01" y="111.6" width="120.96" height="43.88"/></clipPath><clipPath id="clip-path-56" transform="translate(-71.04 -77.18)"><rect class="cls-1" x="130.51" y="225.42" width="133.34" height="69.08"/></clipPath><clipPath id="clip-path-60" transform="translate(-71.04 -77.18)"><rect class="cls-1" x="193.18" y="104.6" width="147.81" height="57.68"/></clipPath><clipPath id="clip-path-64" transform="translate(-71.04 -77.18)"><rect class="cls-1" x="263.85" y="225.56" width="124.91" height="54.77"/></clipPath><clipPath id="clip-path-68" transform="translate(-71.04 -77.18)"><rect class="cls-1" x="334.88" y="115.1" width="127.79" height="48.5"/></clipPath><clipPath id="clip-path-72" transform="translate(-71.04 -77.18)"><rect class="cls-1" x="401.47" y="224.55" width="125.24" height="67.56"/></clipPath></defs><g class="cls-2"><g class="cls-3"><g class="cls-4"><text class="cls-5" transform="translate(89.34 13.51)">O</text><text class="cls-5" transform="translate(102.17 13.51)">u</text><text class="cls-5" transform="translate(112.36 13.51)">t</text><text class="cls-5" transform="translate(118.86 13.51)">e</text><text class="cls-5" transform="translate(127.98 13.51)">r</text><text class="cls-5" transform="translate(134.65 13.51)"> </text><text class="cls-5" transform="translate(139.32 13.51)">S</text><text class="cls-5" transform="translate(148.76 13.51)">p</text><text class="cls-5" transform="translate(159.2 13.51)">a</text><text class="cls-5" transform="translate(168.28 13.51)">c</text><text class="cls-5" transform="translate(176.37 13.51)">e</text><text class="cls-5" transform="translate(185.47 13.51)"> </text><text class="cls-5" transform="translate(190.14 13.51)">T</text><text class="cls-5" transform="translate(199.94 13.51)">r</text><text class="cls-5" transform="translate(206.61 13.51)">e</text><text class="cls-5" transform="translate(215.74 13.51)">a</text><text class="cls-5" transform="translate(224.81 13.51)">t</text><text class="cls-5" transform="translate(231.3 13.51)">y</text><text class="cls-5" transform="translate(240.29 13.51)"> </text><text class="cls-5" transform="translate(244.97 13.51)">P</text><text class="cls-5" transform="translate(255.27 13.51)">l</text><text class="cls-5" transform="translate(259.92 13.51)">a</text><text class="cls-5" transform="translate(268.99 13.51)">n</text><text class="cls-5" transform="translate(279.18 13.51)">n</text><text class="cls-5" transform="translate(289.38 13.51)">i</text><text class="cls-5" transform="translate(294.02 13.51)">n</text><text class="cls-5" transform="translate(304.22 13.51)">g</text><text class="cls-5" transform="translate(314.63 13.51)"> </text><text class="cls-5" transform="translate(319.31 13.51)">T</text><text class="cls-5" transform="translate(329.11 13.51)">i</text><text class="cls-5" transform="translate(333.76 13.51)">m</text><text class="cls-5" transform="translate(349.18 13.51)">e</text><text class="cls-5" transform="translate(358.31 13.51)">l</text><text class="cls-5" transform="translate(362.96 13.51)">i</text><text class="cls-5" transform="translate(367.61 13.51)">n</text><text class="cls-5" transform="translate(377.8 13.51)">e</text></g></g></g><g class="cls-2"><g class="cls-3"><g class="cls-6"><polyline class="cls-7" points="12 131.5 28.32 109.42 93.72 109.42 77.4 131.5 12 131.5"/><path class="cls-8" d="M83.53,209.06l-.45-.89H148.4l-.45.23,16.33-22.15.45.89H99.41l.45-.22L83.53,209.06M99,186.25l.07-.08.08-.06.1-.05.1,0h65.42l.12,0,.12,0,.1.06.09.09.07.1,0,.12,0,.12v.12l0,.12-.06.11-16.33,22.14-.07.08-.08.07-.1,0-.1,0H83l-.12,0-.1-.07-.09-.08-.07-.11,0-.11,0-.12v-.13l0-.11.06-.11Z" transform="translate(-71.04 -77.18)"/></g></g></g><g class="cls-2"><g class="cls-3"><g class="cls-6"><g class="cls-9"><text class="cls-10" transform="translate(44.89 122.82)">2</text><text class="cls-11" transform="translate(44.89 122.82)">2</text><text class="cls-10" transform="translate(48.87 122.82)">0</text><text class="cls-11" transform="translate(48.87 122.82)">0</text><text class="cls-10" transform="translate(52.84 122.82)">3</text><text class="cls-11" transform="translate(52.84 122.82)">3</text><text class="cls-10" transform="translate(56.82 122.82)">0</text><text class="cls-11" transform="translate(56.82 122.82)">0</text></g></g></g></g><g class="cls-2"><g class="cls-3"><g class="cls-6"><polyline class="cls-12" points="81 131.98 96.6 109.78 159.24 109.78 143.52 131.98 81 131.98"/></g></g></g><g class="cls-2"><g class="cls-3"><g class="cls-6"><g class="cls-13"><text class="cls-14" transform="translate(112.12 123.21)">2</text><text class="cls-15" transform="translate(112.12 123.21)">2</text><text class="cls-14" transform="translate(116.09 123.21)">0</text><text class="cls-15" transform="translate(116.09 123.21)">0</text><text class="cls-14" transform="translate(120.07 123.21)">3</text><text class="cls-15" transform="translate(120.07 123.21)">3</text><text class="cls-14" transform="translate(124.05 123.21)">5</text><text class="cls-15" transform="translate(124.05 123.21)">5</text></g></g></g></g><g class="cls-2"><g class="cls-3"><g class="cls-6"><polyline class="cls-16" points="148.68 131.86 164.28 109.78 226.92 109.78 211.32 131.86 148.68 131.86"/></g></g></g><g class="cls-2"><g class="cls-3"><g class="cls-6"><g class="cls-17"><text class="cls-14" transform="translate(179.84 123.18)">2</text><text class="cls-15" transform="translate(179.84 123.18)">2</text><text class="cls-14" transform="translate(183.82 123.18)">0</text><text class="cls-15" transform="translate(183.82 123.18)">0</text><text class="cls-14" transform="translate(187.8 123.18)">5</text><text class="cls-15" transform="translate(187.8 123.18)">5</text><text class="cls-14" transform="translate(191.77 123.18)">0</text><text class="cls-15" transform="translate(191.77 123.18)">0</text></g></g></g></g><g class="cls-2"><g class="cls-3"><g class="cls-6"><polyline class="cls-7" points="218.4 131.86 234 109.78 296.64 109.78 280.92 131.86 218.4 131.86"/><path class="cls-8" d="M289.84,209.42l-.46-.88H352l-.45.23,15.65-22.15.45.89H305l.45-.24-15.65,22.15m14.74-22.8.07-.08.08-.06.1,0,.1,0h62.84l.11,0,.1.06.09.09.07.1,0,.11,0,.12v.13l0,.11-.06.11-15.65,22.15-.07.08-.08.07-.1.05-.1,0H289.38l-.12,0-.11,0-.11-.06-.09-.08-.06-.11-.05-.11,0-.12V209l0-.12.06-.11Z" transform="translate(-71.04 -77.18)"/></g></g></g><g class="cls-2"><g class="cls-3"><g class="cls-6"><g class="cls-18"><text class="cls-10" transform="translate(249.51 123.18)">2</text><text class="cls-11" transform="translate(249.51 123.18)">2</text><text class="cls-10" transform="translate(253.48 123.18)">0</text><text class="cls-11" transform="translate(253.48 123.18)">0</text><text class="cls-10" transform="translate(257.46 123.18)">7</text><text class="cls-11" transform="translate(257.46 123.18)">7</text><text class="cls-10" transform="translate(261.44 123.18)">5</text><text class="cls-11" transform="translate(261.44 123.18)">5</text></g></g></g></g><g class="cls-2"><g class="cls-3"><g class="cls-6"><polyline class="cls-12" points="285.84 131.98 301.68 109.78 365.16 109.78 349.32 131.98 285.84 131.98"/></g></g></g><g class="cls-2"><g class="cls-3"><g class="cls-6"><g class="cls-19"><text class="cls-14" transform="translate(317.57 123.21)">2</text><text class="cls-15" transform="translate(317.57 123.21)">2</text><text class="cls-14" transform="translate(321.55 123.21)">0</text><text class="cls-15" transform="translate(321.55 123.21)">0</text><text class="cls-14" transform="translate(325.52 123.21)">9</text><text class="cls-15" transform="translate(325.52 123.21)">9</text><text class="cls-14" transform="translate(329.5 123.21)">0</text><text class="cls-15" transform="translate(329.5 123.21)">0</text></g></g></g></g><g class="cls-2"><g class="cls-3"><g class="cls-6"><polyline class="cls-16" points="353.76 131.98 370.08 109.78 435.48 109.78 419.04 131.98 353.76 131.98"/></g></g></g><g class="cls-2"><g class="cls-3"><g class="cls-6"><g class="cls-20"><text class="cls-14" transform="translate(386.63 123.21)">2</text><text class="cls-15" transform="translate(386.63 123.21)">2</text><text class="cls-14" transform="translate(390.61 123.21)">3</text><text class="cls-15" transform="translate(390.61 123.21)">3</text><text class="cls-14" transform="translate(394.58 123.21)">0</text><text class="cls-15" transform="translate(394.58 123.21)">0</text><text class="cls-14" transform="translate(398.56 123.21)">0</text><text class="cls-15" transform="translate(398.56 123.21)">0</text></g></g></g></g><g class="cls-2"><g class="cls-3"><g class="cls-6"><path class="cls-21" d="M124.32,160.4v-1.68h-.84v1.68h.84m0,3.36v-2.52h-.84v2.52Zm0,3.36V164.6h-.84v2.52Zm0,3.36V168h-.84v2.52Zm0,3.36v-2.52h-.84v2.52Zm0,3.36v-2.52h-.84v2.52Zm0,3.36V178h-.84v2.52Zm0,3.36V181.4h-.84v2.52Z" transform="translate(-71.04 -77.18)"/><path class="cls-12" d="M122,157.32a1.81,1.81,0,0,1,1.86-1.73,1.71,1.71,0,1,1,0,3.4,1.8,1.8,0,0,1-1.86-1.67" transform="translate(-71.04 -77.18)"/><path class="cls-21" d="M122.61,157.32v.05l0,.17,0-.06.05.16,0,0,.06.15,0-.05.08.15,0-.05.09.14,0-.05.1.14,0-.05.12.12,0,0,.13.11,0,0,.14.09,0,0,.16.08,0,0,.16.07,0,0,.17.06,0,0,.18,0h0l.18,0H124l.19,0h0l.17,0,0,0,.16-.06,0,0,.16-.07,0,0,.15-.08,0,0,.14-.09,0,0,.13-.11,0,0,.12-.12,0,.05.1-.14,0,.05.09-.14,0,.05.08-.15,0,.05.06-.15,0,0,.05-.16,0,.06,0-.17v-.16l0-.17,0,.06-.05-.17,0,.06-.06-.16,0,.06-.08-.15,0,0-.09-.14,0,0-.1-.13,0,0-.12-.12,0,0-.13-.11,0,0-.14-.1,0,0-.15-.09,0,0-.16-.07,0,0-.16-.05h0l-.17,0h0l-.19,0h-.22l-.18,0h0l-.18,0h0l-.17.05,0,0-.16.07,0,0-.16.09,0,0-.14.1,0,0-.13.11,0,0-.12.12,0,0-.1.13,0,0-.09.14,0,0-.08.15,0-.06-.06.16,0-.06-.05.17,0-.06,0,.17v.11m-1.1-.24V157l0-.17v-.06l0-.16,0,0,.06-.16,0,0,.07-.15,0-.05.09-.14,0-.05.1-.13,0,0,.12-.12,0,0,.13-.11,0,0,.14-.1,0,0,.15-.09,0,0,.16-.07.05,0,.17-.06h0l.17,0h0l.19,0h.53l.18,0h.05l.18,0h0l.17.06,0,0,.16.07,0,0,.15.09,0,0,.15.1,0,0,.13.11,0,0,.12.12,0,0,.11.13,0,.05.1.14,0,.05.07.15,0,0,.06.16,0,0,0,.16,0,.06,0,.17v.53l0,.17,0,.06,0,.16,0,.06-.06.16,0,.05-.07.15,0,0-.1.14,0,0-.11.13,0,0-.12.12,0,0-.13.11,0,0-.15.1,0,0-.15.09,0,0-.16.07,0,0-.17.06,0,0-.18,0h-.05l-.18,0h-.53l-.19,0h0l-.17,0,0,0-.17-.06-.05,0-.16-.07,0,0-.15-.09,0,0-.14-.1,0,0-.13-.11,0,0-.12-.12,0,0-.1-.13,0,0-.09-.14,0,0-.07-.15,0-.05-.06-.16,0-.06,0-.16v-.06l0-.17v-.47Z" transform="translate(-71.04 -77.18)"/><path class="cls-21" d="M193.25,236.73v1.66h-.84v-1.66h.84m0-3.36v2.52h-.84v-2.52Zm0-3.36v2.52h-.84V230Zm0-3.36v2.52h-.84v-2.52Zm0-3.36v2.52h-.84v-2.52Zm0-3.36v2.52h-.84v-2.52Zm0-3.36v2.52h-.84v-2.52Zm0-3.36v2.52h-.84v-2.52Z" transform="translate(-71.04 -77.18)"/><path class="cls-12" d="M191,239.88a1.69,1.69,0,0,0,1.79,1.64,1.7,1.7,0,1,0,0-3.4,1.72,1.72,0,0,0-1.79,1.76" transform="translate(-71.04 -77.18)"/><path class="cls-21" d="M191.55,239.79v0l0-.17v.06l0-.16v.05l.06-.15,0,0,.08-.15,0,0,.09-.14,0,0,.11-.13,0,0,.12-.12,0,0,.13-.11,0,0,.14-.09-.05,0,.16-.08,0,0,.16-.07-.05,0,.17-.06-.05,0,.18-.05h-.05l.18,0h.21l.19,0h-.05l.17.05-.05,0,.17.06-.05,0,.16.07,0,0,.15.08-.05,0,.14.09,0,0,.13.11,0,0,.12.12,0,0,.1.13,0,0,.09.14,0,0,.08.15,0,0,.07.15,0-.05,0,.16v-.06l0,.17v.17l0,.16v0l0,.16,0-.06-.07.16,0-.06-.08.15,0-.05-.09.14,0,0-.1.13,0,0-.12.12,0,0-.13.11,0,0-.14.1.05,0-.15.09,0,0-.16.08.05,0-.17,0h.05l-.17,0h.05l-.19,0h-.21l-.18,0h.05l-.18,0h.05l-.17,0,.05,0-.16-.08,0,0-.16-.09.05,0-.14-.1,0,0-.13-.11,0,0-.12-.12,0,0-.11-.13,0,0-.09-.14,0,.05-.08-.15,0,.06-.06-.16v.06l0-.16v0l0-.16v-.12m-1.11.24v.06l0,.17v.06l0,.16v.05l.07.16,0,.05.08.15,0,.05.1.14,0,0,.11.13,0,0,.12.12,0,0,.13.11,0,0,.14.1.05,0,.15.08,0,0,.16.07.05,0,.17.05.05,0,.18,0h0l.18,0h.53l.18,0h0l.18,0,.05,0,.17-.05.05,0,.16-.07,0,0,.15-.08,0,0,.14-.1,0,0,.13-.11,0,0,.12-.12,0,0,.1-.13,0,0,.09-.14,0-.05.08-.15,0-.05.06-.16,0-.05,0-.16,0-.06,0-.17v-.53l0-.17,0-.06,0-.16,0-.06L195,239l0-.06-.08-.14,0,0-.09-.14,0,0-.1-.13,0,0-.12-.12,0,0-.13-.11,0,0-.14-.09,0,0-.15-.09,0,0-.16-.07-.05,0-.17-.06h-.05l-.18,0h0l-.18,0h-.53l-.18,0h0l-.18,0h-.05l-.17.06-.05,0-.16.07,0,0-.15.09-.05,0-.14.09,0,0-.13.11,0,0-.12.12,0,0-.11.13,0,0-.1.14,0,0-.08.14,0,.06-.07.15v.06l0,.16v.06l0,.17V240Z" transform="translate(-71.04 -77.18)"/><path class="cls-21" d="M259.79,160.35v-1.63H259v1.63h.84m0,3.36v-2.52H259v2.52Zm0,3.36v-2.52H259v2.52Zm0,3.36v-2.52H259v2.52Zm0,3.36v-2.52H259v2.52Zm0,3.36v-2.52H259v2.52Zm0,3.36V178H259v2.52Zm0,3.36v-2.52H259v2.52Z" transform="translate(-71.04 -77.18)"/><path class="cls-12" d="M257.64,157.32a1.74,1.74,0,0,1,1.73-1.73,1.7,1.7,0,1,1,0,3.39,1.72,1.72,0,0,1-1.73-1.66" transform="translate(-71.04 -77.18)"/><path class="cls-21" d="M258.22,157.31v.06l0,.17v-.06l0,.17,0-.06.06.16,0-.05.07.15,0,0,.09.14,0,0,.1.13,0-.05.11.12,0,0,.12.11-.05,0,.14.1-.05,0,.14.08,0,0,.15.07-.06,0,.16.06-.05,0,.16,0h-.05l.17,0h.18l.17,0h-.06l.17,0-.06,0,.16-.06,0,0,.15-.07-.05,0,.14-.08,0,0,.13-.1,0,0,.12-.11,0,0,.11-.12,0,.05.1-.13,0,0,.08-.14,0,0,.07-.15,0,.05.05-.16v.06l0-.17v.06l0-.17v-.17l0-.17v.05l0-.16V157l-.05-.15,0,.05-.07-.15,0,.05-.08-.14,0,0-.1-.13,0,0-.11-.12,0,0-.12-.11,0,0-.13-.09,0,0-.14-.09.05,0-.15-.07,0,0-.16-.06.06,0-.17-.05.06,0-.17,0h-.18l-.17,0,.05,0-.16.05.05,0-.16.06.06,0-.15.07,0,0-.14.09.05,0-.14.09.05,0-.12.11,0,0-.11.12,0,0-.1.13,0,0-.09.14,0-.05-.07.15,0-.05-.06.15,0-.05,0,.16V157l0,.17v.11m-1.11-.23V157l0-.17v-.06l.05-.16v0l.06-.16,0-.05.07-.15,0,0,.08-.14,0,0,.1-.13,0,0,.11-.12,0,0,.12-.11,0,0,.13-.1,0,0,.15-.09,0,0,.15-.07.05,0,.16-.06.05,0,.17,0h.05l.17,0h.52l.17,0h.05l.16,0,.06,0,.15.06,0,0,.15.07.05,0,.14.09.05,0,.13.1,0,0,.12.11,0,0,.11.12,0,0,.1.13,0,0,.09.14,0,0,.08.15,0,.05,0,.16,0,0,0,.16,0,.06,0,.17v.51l0,.17,0,.06,0,.16,0,0,0,.16,0,.05-.08.15,0,0-.09.14,0,0-.1.13,0,0-.11.12,0,0-.12.11,0,0-.13.1-.05,0-.14.08-.05,0-.15.07,0,0-.15.06-.06,0-.16,0h-.05l-.17,0h-.52l-.17,0h-.05l-.17,0-.05,0-.16-.06-.05,0-.15-.07,0,0-.15-.08,0,0L258,159l0,0-.12-.11,0,0-.11-.12,0,0-.1-.13,0,0-.08-.14,0,0-.07-.15,0-.05-.06-.16v0l-.05-.16v-.06l0-.17v-.46Z" transform="translate(-71.04 -77.18)"/><path class="cls-21" d="M327.07,236.73v1.66h-.84v-1.66h.84m0-3.36v2.52h-.84v-2.52Zm0-3.36v2.52h-.84V230Zm0-3.36v2.52h-.84v-2.52Zm0-3.36v2.52h-.84v-2.52Zm0-3.36v2.52h-.84v-2.52Zm0-3.36v2.52h-.84v-2.52Zm0-3.36v2.52h-.84v-2.52Z" transform="translate(-71.04 -77.18)"/><path class="cls-12" d="M325,239.88a1.69,1.69,0,1,0,1.69-1.76,1.72,1.72,0,0,0-1.69,1.76" transform="translate(-71.04 -77.18)"/><path class="cls-21" d="M325.53,239.79v-.06l0-.17v.06l0-.16,0,0,.06-.16,0,.05.07-.15,0,.05.09-.14,0,.05.1-.13,0,0,.11-.12,0,0,.12-.12,0,0,.13-.1,0,0,.13-.08,0,0,.14-.07-.05,0,.16-.05h-.06l.16,0h-.05l.17,0h.17l.16,0h0l.16,0H327l.15.05-.05,0,.15.07,0,0,.14.08-.05,0,.13.1,0,0,.12.12,0,0,.11.12,0,0,.1.13,0-.05.08.14,0-.05.08.15,0-.05.06.16,0,0,.05.16,0-.06,0,.17v.18l0,.17,0-.05-.05.16,0-.05-.06.15,0,0-.08.15,0,0-.08.14,0,0-.1.13,0,0-.11.12,0,0-.12.11,0,0-.13.09.05,0-.14.09,0,0-.15.07.05,0-.15.06.05,0-.16,0h0l-.16,0h-.17l-.17,0h.05l-.16,0,.06,0-.16-.06.05,0-.14-.07,0,0-.13-.09,0,0-.13-.09,0,0-.12-.11,0,0-.11-.12,0,0-.1-.13,0,0-.09-.14,0,0-.07-.15,0,0-.06-.15,0,.05,0-.16v.05l0-.17v-.12m-1.11.23v.06l0,.17v.05l.05.16v.06l.06.15,0,.05.07.15,0,0,.08.14,0,0,.1.13,0,.05.11.12,0,0,.12.11.05,0,.13.1,0,0,.14.08.05,0,.14.07.05,0,.16.06.05,0,.16,0h.06l.16,0h.52l.17,0h.05l.16,0,.06,0,.15-.06.05,0,.15-.07.05,0,.13-.08.05,0,.13-.1,0,0,.12-.11,0,0,.1-.12,0-.05.09-.13,0,0,.09-.14,0,0,.06-.15,0-.05,0-.15,0-.06,0-.16v-.05l0-.17v-.51l0-.17v-.06l0-.16,0-.05,0-.16,0-.05-.06-.15,0-.05-.09-.13,0-.05-.09-.13,0,0-.1-.12,0,0-.12-.11,0,0-.13-.1-.05,0-.13-.09-.05,0-.15-.07-.05,0-.15,0-.06,0-.16,0h-.05l-.17,0h-.52l-.16,0h-.06l-.16,0-.05,0-.16,0-.05,0-.14.07-.05,0-.14.09,0,0-.13.1-.05,0-.12.11,0,0-.11.12,0,0-.1.13,0,.05-.08.13,0,.05-.07.15,0,.05-.06.16v.05l-.05.16v.06l0,.17V240Z" transform="translate(-71.04 -77.18)"/><path class="cls-21" d="M395.84,160.4v-1.68H395v1.68h.84m0,3.36v-2.52H395v2.52Zm0,3.36V164.6H395v2.52Zm0,3.36V168H395v2.52Zm0,3.36v-2.52H395v2.52Zm0,3.36v-2.52H395v2.52Zm0,3.36V178H395v2.52Zm0,3.36V181.4H395v2.52Z" transform="translate(-71.04 -77.18)"/><path class="cls-12" d="M393.6,157.32a1.74,1.74,0,0,1,1.82-1.73,1.71,1.71,0,1,1,0,3.4,1.73,1.73,0,0,1-1.82-1.67" transform="translate(-71.04 -77.18)"/><path class="cls-21" d="M394.13,157.32v.05l0,.17v-.06l0,.16,0,0,.07.15,0-.05.08.15,0-.05.1.14,0-.05.11.14,0-.05.12.12,0,0,.13.11,0,0,.14.09,0,0,.15.08,0,0,.16.07-.05,0,.17.06-.05,0,.18,0h-.06l.19,0h.22l.18,0h0l.18,0,0,0,.17-.06,0,0,.16-.07,0,0,.15-.08,0,0,.14-.09,0,0,.13-.11,0,0,.12-.12,0,.05.11-.14,0,.05.1-.14,0,.05.08-.15,0,.05.07-.15,0,0,0-.16v.06l0-.17v-.16l0-.17v.06l0-.17,0,.06-.07-.16,0,.06-.08-.15,0,0-.1-.14,0,0-.11-.13,0,0-.12-.12,0,0-.13-.11,0,0-.14-.1,0,0-.15-.09,0,0-.16-.07,0,0-.17-.05h0l-.18,0h0l-.18,0h-.22l-.19,0h.06l-.18,0h.05l-.17.05.05,0-.16.07,0,0-.15.09,0,0-.14.1,0,0-.13.11,0,0-.12.12,0,0-.11.13,0,0-.1.14,0,0-.08.15,0-.06-.07.16,0-.06,0,.17V157l0,.17v.11m-1.11-.24V157l0-.17v-.06l.05-.16,0,0,.06-.16,0,0,.08-.15,0-.05.09-.14,0-.05.11-.13,0,0,.11-.12,0,0,.14-.11,0,0,.14-.1,0,0,.16-.09,0,0,.16-.07,0,0,.17-.06h.05l.18,0H395l.18,0h.54l.18,0h.05l.18,0h0l.17.06.05,0,.16.07,0,0,.16.09,0,0,.14.1,0,0,.14.11,0,0,.12.12,0,0,.11.13,0,.05.09.14,0,.05.08.15,0,0,.06.16,0,0,0,.16v.06l0,.17v.53l0,.17v.06l0,.16,0,.06-.06.16,0,.05-.08.15,0,0-.09.14,0,0-.11.13,0,0-.12.12,0,0L397,159l0,0-.14.1,0,0-.16.09,0,0-.16.07-.05,0-.17.06,0,0-.18,0h-.05l-.18,0h-.54l-.18,0h-.05l-.18,0-.05,0-.17-.06,0,0-.16-.07,0,0-.16-.09,0,0-.14-.1,0,0-.14-.11,0,0-.11-.12,0,0-.11-.13,0,0-.09-.14,0,0-.08-.15,0-.05-.06-.16,0-.06-.05-.16v-.06l0-.17v-.47Z" transform="translate(-71.04 -77.18)"/><path class="cls-21" d="M466.06,236.73v1.66h-.84v-1.66h.84m0-3.36v2.52h-.84v-2.52Zm0-3.36v2.52h-.84V230Zm0-3.36v2.52h-.84v-2.52Zm0-3.36v2.52h-.84v-2.52Zm0-3.36v2.52h-.84v-2.52Zm0-3.36v2.52h-.84v-2.52Zm0-3.36v2.52h-.84v-2.52Z" transform="translate(-71.04 -77.18)"/><path class="cls-12" d="M463.8,239.88a1.85,1.85,0,1,0,1.84-1.76,1.79,1.79,0,0,0-1.84,1.76" transform="translate(-71.04 -77.18)"/><path class="cls-21" d="M464.36,239.79v0l0-.17,0,.06.05-.16,0,.06.06-.16,0,0,.08-.15,0,0,.09-.14,0,0,.1-.13,0,0,.11-.12,0,0,.13-.11,0,0,.14-.09-.05,0,.16-.08-.05,0,.16-.07,0,0,.17-.06,0,0,.18,0h0l.18,0h.23l.18,0h-.05l.18,0-.05,0,.16.06,0,0,.16.07-.05,0,.15.08,0,0,.14.09,0,0,.13.11,0,0,.12.12,0,0,.1.13,0,0,.09.14,0,0,.08.15,0,0,.06.16,0-.06.05.16,0-.06,0,.17v.16l0,.17,0-.06-.05.17,0-.06-.06.16,0-.06-.08.15,0-.05-.09.14,0,0-.1.13,0,0-.12.12,0,0-.13.11,0,0-.14.1,0,0-.15.09.05,0-.16.07h0l-.16,0h.05l-.18,0h.05l-.18,0h-.23l-.18,0h0l-.18,0h0l-.17,0h0l-.16-.07.05,0-.16-.09.05,0-.14-.1,0,0-.13-.11,0,0-.11-.12,0,0-.1-.13,0,0-.09-.14,0,.05-.08-.15,0,.06-.06-.16,0,.06-.05-.17,0,.06,0-.17v-.11m-1.11.24v.06l0,.17v.06l0,.16,0,.06.06.15,0,.05.07.15,0,.05.09.14,0,0,.1.14,0,0,.12.12,0,0,.13.11,0,0,.14.1,0,0,.15.08.05,0,.16.07.05,0,.17.05.05,0,.17,0h.05l.19,0h.53l.18,0h.05l.18,0,.05,0,.17-.05,0,0,.16-.07.05,0,.15-.08,0,0,.15-.1,0,0,.13-.11,0,0,.12-.12,0,0,.11-.14,0,0,.1-.14,0-.05.07-.15,0-.05.06-.15,0-.06,0-.16,0-.06,0-.17v-.53l0-.17,0-.06,0-.16,0-.06-.06-.15,0-.06-.07-.15,0,0-.1-.14,0,0-.11-.13,0,0-.12-.12,0,0-.13-.11,0,0L467,238l0,0-.15-.09-.05,0-.16-.07,0,0-.17-.06h-.05l-.18,0h-.05l-.18,0h-.53l-.19,0h-.05l-.17,0h-.05l-.17.06-.05,0-.16.07-.05,0-.15.09,0,0-.14.1,0,0-.13.11,0,0-.12.12,0,0-.1.13,0,0-.09.14,0,0-.07.15,0,.06-.06.15,0,.06,0,.16v.06l0,.17V240Z" transform="translate(-71.04 -77.18)"/></g></g></g><g class="cls-2"><g class="cls-3"><g class="cls-6"><g class="cls-22"><text class="cls-23" transform="translate(0 46.69)">I</text><text class="cls-23" transform="translate(2.27 46.69)">n</text><text class="cls-23" transform="translate(6.64 46.69)">c</text><text class="cls-23" transform="translate(10.11 46.69)">l</text><text class="cls-23" transform="translate(12.1 46.69)">u</text><text class="cls-23" transform="translate(16.46 46.69)">d</text><text class="cls-23" transform="translate(20.92 46.69)">e</text><text class="cls-23" transform="translate(24.84 46.69)"> </text><text class="cls-23" transform="translate(26.82 46.69)">a</text><text class="cls-23" transform="translate(30.72 46.69)">s</text><text class="cls-23" transform="translate(34.02 46.69)">t</text><text class="cls-23" transform="translate(36.79 46.69)">e</text><text class="cls-23" transform="translate(40.71 46.69)">r</text><text class="cls-23" transform="translate(43.57 46.69)">o</text><text class="cls-23" transform="translate(47.99 46.69)">i</text><text class="cls-23" transform="translate(49.98 46.69)">d</text><text class="cls-23" transform="translate(54.43 46.69)"> </text><text class="cls-23" transform="translate(56.42 46.69)">m</text><text class="cls-23" transform="translate(63.03 46.69)">i</text><text class="cls-23" transform="translate(65.02 46.69)">n</text><text class="cls-23" transform="translate(69.38 46.69)">i</text><text class="cls-23" transform="translate(71.37 46.69)">n</text><text class="cls-23" transform="translate(75.74 46.69)">g</text><text class="cls-23" transform="translate(80.19 46.69)"> </text><text class="cls-23" transform="translate(82.18 46.69)">i</text><text class="cls-23" transform="translate(84.17 46.69)">n</text><text class="cls-23" transform="translate(88.54 46.69)"> </text><text class="cls-23" transform="translate(90.52 46.69)">t</text><text class="cls-23" transform="translate(93.3 46.69)">h</text><text class="cls-23" transform="translate(97.64 46.69)">e</text><text class="cls-23" transform="translate(101.56 46.69)"> </text><text class="cls-23" transform="translate(0 59.76)">e</text><text class="cls-23" transform="translate(3.92 59.76)">n</text><text class="cls-23" transform="translate(8.29 59.76)">e</text><text class="cls-23" transform="translate(12.21 59.76)">r</text><text class="cls-23" transform="translate(15.06 59.76)">g</text><text class="cls-23" transform="translate(19.52 59.76)">y</text><text class="cls-23" transform="translate(23.38 59.76)"> </text><text class="cls-23" transform="translate(25.37 59.76)">d</text><text class="cls-23" transform="translate(29.82 59.76)">e</text><text class="cls-23" transform="translate(33.74 59.76)">v</text><text class="cls-23" transform="translate(37.63 59.76)">e</text><text class="cls-23" transform="translate(41.55 59.76)">l</text><text class="cls-23" transform="translate(43.54 59.76)">o</text><text class="cls-23" transform="translate(47.96 59.76)">p</text><text class="cls-23" transform="translate(52.44 59.76)">m</text><text class="cls-23" transform="translate(59.05 59.76)">e</text><text class="cls-23" transform="translate(62.97 59.76)">n</text><text class="cls-23" transform="translate(67.34 59.76)">t</text><text class="cls-23" transform="translate(70.11 59.76)"> </text><text class="cls-23" transform="translate(72.1 59.76)">p</text><text class="cls-23" transform="translate(76.58 59.76)">l</text><text class="cls-23" transform="translate(78.57 59.76)">a</text><text class="cls-23" transform="translate(82.46 59.76)">n</text><text class="cls-23" transform="translate(86.83 59.76)">s</text><text class="cls-23" transform="translate(90.13 59.76)"> </text><text class="cls-23" transform="translate(92.12 59.76)">o</text><text class="cls-23" transform="translate(96.54 59.76)">f</text><text class="cls-23" transform="translate(99.26 59.76)"> </text><text class="cls-23" transform="translate(101.25 59.76)">a</text><text class="cls-23" transform="translate(105.14 59.76)">l</text><text class="cls-23" transform="translate(107.13 59.76)">l</text><text class="cls-23" transform="translate(109.12 59.76)"> </text><text class="cls-23" transform="translate(0 72.84)">U</text><text class="cls-23" transform="translate(5.21 72.84)">N</text><text class="cls-23" transform="translate(10.92 72.84)"> </text><text class="cls-23" transform="translate(12.91 72.84)">m</text><text class="cls-23" transform="translate(19.52 72.84)">e</text><text class="cls-23" transform="translate(23.44 72.84)">m</text><text class="cls-23" transform="translate(30.04 72.84)">b</text><text class="cls-23" transform="translate(34.52 72.84)">e</text><text class="cls-23" transform="translate(38.44 72.84)">r</text><text class="cls-23" transform="translate(41.3 72.84)"> </text><text class="cls-23" transform="translate(43.29 72.84)">s</text><text class="cls-23" transform="translate(46.59 72.84)">t</text><text class="cls-23" transform="translate(49.36 72.84)">a</text><text class="cls-23" transform="translate(53.26 72.84)">t</text><text class="cls-23" transform="translate(56.03 72.84)">e</text><text class="cls-23" transform="translate(59.95 72.84)">s</text></g></g></g></g><g class="cls-2"><g class="cls-3"><g class="cls-6"><g class="cls-24"><text class="cls-25" transform="translate(63.5 173.11)">R</text><text class="cls-26" transform="translate(63.5 173.11)">R</text><text class="cls-23" transform="translate(66.89 173.11)">e</text><text class="cls-23" transform="translate(70.81 173.11)">l</text><text class="cls-23" transform="translate(72.8 173.11)">e</text><text class="cls-23" transform="translate(76.72 173.11)">v</text><text class="cls-23" transform="translate(80.61 173.11)">a</text><text class="cls-23" transform="translate(84.5 173.11)">n</text><text class="cls-23" transform="translate(88.87 173.11)">t</text><text class="cls-23" transform="translate(91.64 173.11)"> </text><text class="cls-23" transform="translate(93.63 173.11)">r</text><text class="cls-23" transform="translate(96.49 173.11)">e</text><text class="cls-23" transform="translate(100.41 173.11)">s</text><text class="cls-23" transform="translate(103.71 173.11)">e</text><text class="cls-23" transform="translate(107.63 173.11)">a</text><text class="cls-23" transform="translate(111.52 173.11)">r</text><text class="cls-23" transform="translate(114.38 173.11)">c</text><text class="cls-23" transform="translate(117.85 173.11)">h</text><text class="cls-23" transform="translate(122.19 173.11)">e</text><text class="cls-23" transform="translate(126.11 173.11)">r</text><text class="cls-23" transform="translate(128.97 173.11)">s</text><text class="cls-23" transform="translate(132.27 173.11)"> </text><text class="cls-23" transform="translate(134.26 173.11)">f</text><text class="cls-23" transform="translate(136.98 173.11)">r</text><text class="cls-23" transform="translate(139.83 173.11)">o</text><text class="cls-23" transform="translate(144.26 173.11)">m</text><text class="cls-23" transform="translate(150.86 173.11)"> </text><text class="cls-23" transform="translate(152.85 173.11)">U</text><text class="cls-23" transform="translate(158.06 173.11)">N</text><text class="cls-23" transform="translate(163.77 173.11)"> </text><text class="cls-23" transform="translate(63.5 186.18)">m</text><text class="cls-23" transform="translate(70.11 186.18)">e</text><text class="cls-23" transform="translate(74.03 186.18)">m</text><text class="cls-23" transform="translate(80.64 186.18)">b</text><text class="cls-23" transform="translate(85.12 186.18)">e</text><text class="cls-23" transform="translate(89.04 186.18)">r</text><text class="cls-23" transform="translate(91.9 186.18)"> </text><text class="cls-23" transform="translate(93.88 186.18)">s</text><text class="cls-23" transform="translate(97.19 186.18)">t</text><text class="cls-23" transform="translate(99.96 186.18)">a</text><text class="cls-23" transform="translate(103.85 186.18)">t</text><text class="cls-23" transform="translate(106.62 186.18)">e</text><text class="cls-23" transform="translate(110.54 186.18)">s</text><text class="cls-23" transform="translate(113.85 186.18)"> </text><text class="cls-23" transform="translate(115.84 186.18)">a</text><text class="cls-23" transform="translate(119.73 186.18)">r</text><text class="cls-23" transform="translate(122.58 186.18)">e</text><text class="cls-23" transform="translate(126.5 186.18)"> </text><text class="cls-23" transform="translate(128.49 186.18)">a</text><text class="cls-23" transform="translate(132.38 186.18)">l</text><text class="cls-23" transform="translate(134.37 186.18)">l</text><text class="cls-23" transform="translate(136.36 186.18)"> </text><text class="cls-23" transform="translate(138.35 186.18)">i</text><text class="cls-23" transform="translate(140.34 186.18)">n</text><text class="cls-23" transform="translate(144.7 186.18)">v</text><text class="cls-23" transform="translate(148.6 186.18)">o</text><text class="cls-23" transform="translate(153.02 186.18)">l</text><text class="cls-23" transform="translate(155.01 186.18)">v</text><text class="cls-23" transform="translate(158.9 186.18)">e</text><text class="cls-23" transform="translate(162.82 186.18)">d</text><text class="cls-23" transform="translate(167.27 186.18)"> </text><text class="cls-23" transform="translate(169.26 186.18)">i</text><text class="cls-23" transform="translate(171.25 186.18)">n</text><text class="cls-23" transform="translate(175.62 186.18)"> </text><text class="cls-23" transform="translate(177.6 186.18)">t</text><text class="cls-23" transform="translate(180.38 186.18)">h</text><text class="cls-23" transform="translate(184.72 186.18)">e</text><text class="cls-23" transform="translate(188.64 186.18)"> </text><text class="cls-23" transform="translate(63.5 199.26)">r</text><text class="cls-23" transform="translate(66.36 199.26)">e</text><text class="cls-23" transform="translate(70.28 199.26)">s</text><text class="cls-23" transform="translate(73.58 199.26)">e</text><text class="cls-23" transform="translate(77.5 199.26)">a</text><text class="cls-23" transform="translate(81.4 199.26)">r</text><text class="cls-23" transform="translate(84.25 199.26)">c</text><text class="cls-23" transform="translate(87.72 199.26)">h</text><text class="cls-23" transform="translate(92.06 199.26)"> </text><text class="cls-23" transform="translate(94.05 199.26)">o</text><text class="cls-23" transform="translate(98.48 199.26)">f</text><text class="cls-23" transform="translate(101.19 199.26)"> </text><text class="cls-23" transform="translate(103.18 199.26)">a</text><text class="cls-23" transform="translate(107.07 199.26)">s</text><text class="cls-23" transform="translate(110.38 199.26)">t</text><text class="cls-23" transform="translate(113.15 199.26)">e</text><text class="cls-23" transform="translate(117.07 199.26)">r</text><text class="cls-23" transform="translate(119.92 199.26)">o</text><text class="cls-23" transform="translate(124.35 199.26)">i</text><text class="cls-23" transform="translate(126.34 199.26)">d</text><text class="cls-23" transform="translate(130.79 199.26)"> </text><text class="cls-23" transform="translate(132.78 199.26)">m</text><text class="cls-23" transform="translate(139.38 199.26)">i</text><text class="cls-23" transform="translate(141.37 199.26)">n</text><text class="cls-23" transform="translate(145.74 199.26)">i</text><text class="cls-23" transform="translate(147.73 199.26)">n</text><text class="cls-23" transform="translate(152.1 199.26)">g</text></g></g></g></g><g class="cls-2"><g class="cls-3"><g class="cls-6"><g class="cls-27"><text class="cls-23" transform="translate(126.17 46.57)">A</text><text class="cls-23" transform="translate(131.21 46.57)">c</text><text class="cls-23" transform="translate(134.68 46.57)">h</text><text class="cls-23" transform="translate(139.02 46.57)">i</text><text class="cls-23" transform="translate(141.01 46.57)">e</text><text class="cls-23" transform="translate(144.93 46.57)">v</text><text class="cls-23" transform="translate(148.82 46.57)">e</text><text class="cls-23" transform="translate(152.74 46.57)"> </text><text class="cls-23" transform="translate(154.73 46.57)">g</text><text class="cls-23" transform="translate(159.18 46.57)">l</text><text class="cls-23" transform="translate(161.17 46.57)">o</text><text class="cls-23" transform="translate(165.59 46.57)">b</text><text class="cls-23" transform="translate(170.07 46.57)">a</text><text class="cls-23" transform="translate(173.96 46.57)">l</text><text class="cls-23" transform="translate(175.95 46.57)"> </text><text class="cls-23" transform="translate(177.94 46.57)">s</text><text class="cls-23" transform="translate(181.24 46.57)">h</text><text class="cls-23" transform="translate(185.58 46.57)">a</text><text class="cls-23" transform="translate(189.48 46.57)">r</text><text class="cls-23" transform="translate(192.33 46.57)">i</text><text class="cls-23" transform="translate(194.32 46.57)">n</text><text class="cls-23" transform="translate(198.69 46.57)">g</text><text class="cls-23" transform="translate(203.14 46.57)"> </text><text class="cls-23" transform="translate(205.13 46.57)">o</text><text class="cls-23" transform="translate(209.55 46.57)">f</text><text class="cls-23" transform="translate(212.27 46.57)"> </text><text class="cls-23" transform="translate(214.26 46.57)">s</text><text class="cls-23" transform="translate(217.56 46.57)">c</text><text class="cls-23" transform="translate(221.03 46.57)">i</text><text class="cls-23" transform="translate(223.02 46.57)">e</text><text class="cls-23" transform="translate(226.94 46.57)">n</text><text class="cls-23" transform="translate(231.31 46.57)">t</text><text class="cls-23" transform="translate(234.08 46.57)">i</text><text class="cls-23" transform="translate(236.07 46.57)">f</text><text class="cls-23" transform="translate(238.78 46.57)">i</text><text class="cls-23" transform="translate(240.77 46.57)">c</text><text class="cls-23" transform="translate(244.24 46.57)"> </text><text class="cls-23" transform="translate(126.17 59.65)">r</text><text class="cls-23" transform="translate(129.02 59.65)">e</text><text class="cls-23" transform="translate(132.94 59.65)">s</text><text class="cls-23" transform="translate(136.25 59.65)">e</text><text class="cls-23" transform="translate(140.17 59.65)">a</text><text class="cls-23" transform="translate(144.06 59.65)">r</text><text class="cls-23" transform="translate(146.92 59.65)">c</text><text class="cls-23" transform="translate(150.39 59.65)">h</text><text class="cls-23" transform="translate(154.73 59.65)"> </text><text class="cls-23" transform="translate(156.72 59.65)">r</text><text class="cls-23" transform="translate(159.57 59.65)">e</text><text class="cls-23" transform="translate(163.49 59.65)">s</text><text class="cls-23" transform="translate(166.8 59.65)">u</text><text class="cls-23" transform="translate(171.16 59.65)">l</text><text class="cls-23" transform="translate(173.15 59.65)">t</text><text class="cls-23" transform="translate(175.92 59.65)">s</text><text class="cls-23" transform="translate(179.23 59.65)"> </text><text class="cls-23" transform="translate(181.22 59.65)">o</text><text class="cls-23" transform="translate(185.64 59.65)">f</text><text class="cls-23" transform="translate(188.36 59.65)"> </text><text class="cls-23" transform="translate(190.34 59.65)">a</text><text class="cls-23" transform="translate(194.24 59.65)">s</text><text class="cls-23" transform="translate(197.54 59.65)">t</text><text class="cls-23" transform="translate(200.31 59.65)">e</text><text class="cls-23" transform="translate(204.23 59.65)">r</text><text class="cls-23" transform="translate(207.09 59.65)">o</text><text class="cls-23" transform="translate(211.51 59.65)">i</text><text class="cls-23" transform="translate(213.5 59.65)">d</text><text class="cls-23" transform="translate(217.95 59.65)"> </text><text class="cls-23" transform="translate(219.94 59.65)">m</text><text class="cls-23" transform="translate(226.55 59.65)">i</text><text class="cls-23" transform="translate(228.54 59.65)">n</text><text class="cls-23" transform="translate(232.9 59.65)">i</text><text class="cls-23" transform="translate(234.89 59.65)">n</text><text class="cls-23" transform="translate(239.26 59.65)">g</text><text class="cls-23" transform="translate(243.71 59.65)"> </text><text class="cls-23" transform="translate(245.7 59.65)">i</text><text class="cls-23" transform="translate(247.69 59.65)">n</text><text class="cls-23" transform="translate(252.06 59.65)"> </text><text class="cls-23" transform="translate(126.17 72.73)">a</text><text class="cls-23" transform="translate(130.06 72.73)">d</text><text class="cls-23" transform="translate(134.51 72.73)">v</text><text class="cls-23" transform="translate(138.4 72.73)">a</text><text class="cls-23" transform="translate(142.3 72.73)">n</text><text class="cls-23" transform="translate(146.66 72.73)">c</text><text class="cls-23" transform="translate(150.14 72.73)">e</text><text class="cls-23" transform="translate(154.06 72.73)">d</text><text class="cls-23" transform="translate(158.51 72.73)"> </text><text class="cls-23" transform="translate(160.5 72.73)">c</text><text class="cls-23" transform="translate(163.97 72.73)">o</text><text class="cls-23" transform="translate(168.39 72.73)">u</text><text class="cls-23" transform="translate(172.76 72.73)">n</text><text class="cls-23" transform="translate(177.13 72.73)">t</text><text class="cls-23" transform="translate(179.9 72.73)">r</text><text class="cls-23" transform="translate(182.76 72.73)">i</text><text class="cls-23" transform="translate(184.74 72.73)">e</text><text class="cls-23" transform="translate(188.66 72.73)">s</text></g></g></g></g><g class="cls-2"><g class="cls-3"><g class="cls-6"><g class="cls-28"><text class="cls-23" transform="translate(196.84 172.63)">E</text><text class="cls-23" transform="translate(200.68 172.63)">s</text><text class="cls-23" transform="translate(203.98 172.63)">t</text><text class="cls-23" transform="translate(206.75 172.63)">a</text><text class="cls-23" transform="translate(210.64 172.63)">b</text><text class="cls-23" transform="translate(215.12 172.63)">l</text><text class="cls-23" transform="translate(217.11 172.63)">i</text><text class="cls-23" transform="translate(219.1 172.63)">s</text><text class="cls-23" transform="translate(222.4 172.63)">h</text><text class="cls-23" transform="translate(226.74 172.63)"> </text><text class="cls-23" transform="translate(228.73 172.63)">a</text><text class="cls-23" transform="translate(232.62 172.63)">n</text><text class="cls-23" transform="translate(236.99 172.63)"> </text><text class="cls-23" transform="translate(238.98 172.63)">e</text><text class="cls-23" transform="translate(242.9 172.63)">x</text><text class="cls-23" transform="translate(246.82 172.63)">t</text><text class="cls-23" transform="translate(249.59 172.63)">r</text><text class="cls-23" transform="translate(252.45 172.63)">a</text><text class="cls-23" transform="translate(256.34 172.63)">t</text><text class="cls-23" transform="translate(259.11 172.63)">e</text><text class="cls-23" transform="translate(263.03 172.63)">r</text><text class="cls-23" transform="translate(265.89 172.63)">r</text><text class="cls-23" transform="translate(268.74 172.63)">e</text><text class="cls-23" transform="translate(272.66 172.63)">s</text><text class="cls-23" transform="translate(275.97 172.63)">t</text><text class="cls-23" transform="translate(278.74 172.63)">r</text><text class="cls-23" transform="translate(281.6 172.63)">i</text><text class="cls-23" transform="translate(283.58 172.63)">a</text><text class="cls-23" transform="translate(287.48 172.63)">l</text><text class="cls-23" transform="translate(289.46 172.63)"> </text><text class="cls-23" transform="translate(196.84 185.71)">a</text><text class="cls-23" transform="translate(200.73 185.71)">s</text><text class="cls-23" transform="translate(204.04 185.71)">t</text><text class="cls-23" transform="translate(206.81 185.71)">e</text><text class="cls-23" transform="translate(210.73 185.71)">r</text><text class="cls-23" transform="translate(213.58 185.71)">o</text><text class="cls-23" transform="translate(218.01 185.71)">i</text><text class="cls-23" transform="translate(220 185.71)">d</text><text class="cls-23" transform="translate(224.45 185.71)"> </text><text class="cls-23" transform="translate(226.44 185.71)">m</text><text class="cls-23" transform="translate(233.04 185.71)">i</text><text class="cls-23" transform="translate(235.03 185.71)">n</text><text class="cls-23" transform="translate(239.4 185.71)">i</text><text class="cls-23" transform="translate(241.39 185.71)">n</text><text class="cls-23" transform="translate(245.76 185.71)">g</text><text class="cls-23" transform="translate(250.21 185.71)"> </text><text class="cls-23" transform="translate(252.2 185.71)">r</text><text class="cls-23" transform="translate(255.05 185.71)">e</text><text class="cls-23" transform="translate(258.97 185.71)">s</text><text class="cls-23" transform="translate(262.28 185.71)">e</text><text class="cls-23" transform="translate(266.2 185.71)">a</text><text class="cls-23" transform="translate(270.09 185.71)">r</text><text class="cls-23" transform="translate(272.94 185.71)">c</text><text class="cls-23" transform="translate(276.42 185.71)">h</text><text class="cls-23" transform="translate(280.76 185.71)"> </text><text class="cls-23" transform="translate(282.74 185.71)">s</text><text class="cls-23" transform="translate(286.05 185.71)">t</text><text class="cls-23" transform="translate(288.82 185.71)">a</text><text class="cls-23" transform="translate(292.71 185.71)">t</text><text class="cls-23" transform="translate(295.48 185.71)">i</text><text class="cls-23" transform="translate(297.47 185.71)">o</text><text class="cls-23" transform="translate(301.9 185.71)">n</text></g></g></g></g><g class="cls-2"><g class="cls-3"><g class="cls-6"><g class="cls-29"><text class="cls-23" transform="translate(267.88 59.04)">E</text><text class="cls-23" transform="translate(271.71 59.04)">s</text><text class="cls-23" transform="translate(275.02 59.04)">t</text><text class="cls-23" transform="translate(277.79 59.04)">a</text><text class="cls-23" transform="translate(281.68 59.04)">b</text><text class="cls-23" transform="translate(286.16 59.04)">l</text><text class="cls-23" transform="translate(288.15 59.04)">i</text><text class="cls-23" transform="translate(290.14 59.04)">s</text><text class="cls-23" transform="translate(293.44 59.04)">h</text><text class="cls-23" transform="translate(297.78 59.04)"> </text><text class="cls-23" transform="translate(299.77 59.04)">a</text><text class="cls-23" transform="translate(303.66 59.04)"> </text><text class="cls-23" transform="translate(305.65 59.04)">g</text><text class="cls-23" transform="translate(310.1 59.04)">l</text><text class="cls-23" transform="translate(312.09 59.04)">o</text><text class="cls-23" transform="translate(316.51 59.04)">b</text><text class="cls-23" transform="translate(320.99 59.04)">a</text><text class="cls-23" transform="translate(324.88 59.04)">l</text><text class="cls-23" transform="translate(326.87 59.04)"> </text><text class="cls-23" transform="translate(328.86 59.04)">a</text><text class="cls-23" transform="translate(332.75 59.04)">l</text><text class="cls-23" transform="translate(334.74 59.04)">l</text><text class="cls-23" transform="translate(336.73 59.04)">i</text><text class="cls-23" transform="translate(338.72 59.04)">a</text><text class="cls-23" transform="translate(342.61 59.04)">n</text><text class="cls-23" transform="translate(346.98 59.04)">c</text><text class="cls-23" transform="translate(350.45 59.04)">e</text><text class="cls-23" transform="translate(354.37 59.04)"> </text><text class="cls-23" transform="translate(356.36 59.04)">o</text><text class="cls-23" transform="translate(360.78 59.04)">f</text><text class="cls-23" transform="translate(363.5 59.04)"> </text><text class="cls-23" transform="translate(267.88 72.11)">a</text><text class="cls-23" transform="translate(271.77 72.11)">s</text><text class="cls-23" transform="translate(275.07 72.11)">t</text><text class="cls-23" transform="translate(277.84 72.11)">e</text><text class="cls-23" transform="translate(281.76 72.11)">r</text><text class="cls-23" transform="translate(284.62 72.11)">o</text><text class="cls-23" transform="translate(289.04 72.11)">i</text><text class="cls-23" transform="translate(291.03 72.11)">d</text><text class="cls-23" transform="translate(295.48 72.11)"> </text><text class="cls-23" transform="translate(297.47 72.11)">m</text><text class="cls-23" transform="translate(304.08 72.11)">i</text><text class="cls-23" transform="translate(306.07 72.11)">n</text><text class="cls-23" transform="translate(310.44 72.11)">i</text><text class="cls-23" transform="translate(312.42 72.11)">n</text><text class="cls-23" transform="translate(316.79 72.11)">g</text><text class="cls-23" transform="translate(321.24 72.11)"> </text><text class="cls-23" transform="translate(323.23 72.11)">r</text><text class="cls-23" transform="translate(326.09 72.11)">e</text><text class="cls-23" transform="translate(330.01 72.11)">s</text><text class="cls-23" transform="translate(333.31 72.11)">e</text><text class="cls-23" transform="translate(337.23 72.11)">a</text><text class="cls-23" transform="translate(341.12 72.11)">r</text><text class="cls-23" transform="translate(343.98 72.11)">c</text><text class="cls-23" transform="translate(347.45 72.11)">h</text><text class="cls-23" transform="translate(351.79 72.11)"> </text><text class="cls-23" transform="translate(353.78 72.11)">i</text><text class="cls-23" transform="translate(355.77 72.11)">n</text><text class="cls-23" transform="translate(360.14 72.11)">s</text><text class="cls-23" transform="translate(363.44 72.11)">t</text><text class="cls-23" transform="translate(366.21 72.11)">i</text><text class="cls-23" transform="translate(368.2 72.11)">t</text><text class="cls-23" transform="translate(370.97 72.11)">u</text><text class="cls-23" transform="translate(375.34 72.11)">t</text><text class="cls-23" transform="translate(378.11 72.11)">e</text><text class="cls-23" transform="translate(382.03 72.11)">s</text></g></g></g></g><g class="cls-2"><g class="cls-3"><g class="cls-6"><g class="cls-30"><text class="cls-23" transform="translate(334.46 171.48)">P</text><text class="cls-23" transform="translate(338.88 171.48)">r</text><text class="cls-23" transform="translate(341.74 171.48)">o</text><text class="cls-23" transform="translate(346.16 171.48)">c</text><text class="cls-23" transform="translate(349.64 171.48)">e</text><text class="cls-23" transform="translate(353.56 171.48)">e</text><text class="cls-23" transform="translate(357.48 171.48)">d</text><text class="cls-23" transform="translate(361.93 171.48)">s</text><text class="cls-23" transform="translate(365.23 171.48)"> </text><text class="cls-23" transform="translate(367.22 171.48)">f</text><text class="cls-23" transform="translate(369.94 171.48)">r</text><text class="cls-23" transform="translate(372.79 171.48)">o</text><text class="cls-23" transform="translate(377.22 171.48)">m</text><text class="cls-23" transform="translate(383.82 171.48)"> </text><text class="cls-23" transform="translate(385.81 171.48)">a</text><text class="cls-23" transform="translate(389.7 171.48)">s</text><text class="cls-23" transform="translate(393.01 171.48)">t</text><text class="cls-23" transform="translate(395.78 171.48)">e</text><text class="cls-23" transform="translate(399.7 171.48)">r</text><text class="cls-23" transform="translate(402.56 171.48)">o</text><text class="cls-23" transform="translate(406.98 171.48)">i</text><text class="cls-23" transform="translate(408.97 171.48)">d</text><text class="cls-23" transform="translate(413.42 171.48)"> </text><text class="cls-23" transform="translate(415.41 171.48)">m</text><text class="cls-23" transform="translate(422.02 171.48)">i</text><text class="cls-23" transform="translate(424 171.48)">n</text><text class="cls-23" transform="translate(428.37 171.48)">i</text><text class="cls-23" transform="translate(430.36 171.48)">n</text><text class="cls-23" transform="translate(434.73 171.48)">g</text><text class="cls-23" transform="translate(439.18 171.48)"> </text><text class="cls-23" transform="translate(334.46 184.56)">a</text><text class="cls-23" transform="translate(338.35 184.56)">r</text><text class="cls-23" transform="translate(341.21 184.56)">e</text><text class="cls-23" transform="translate(345.13 184.56)"> </text><text class="cls-23" transform="translate(347.12 184.56)">d</text><text class="cls-23" transform="translate(351.57 184.56)">i</text><text class="cls-23" transform="translate(353.56 184.56)">s</text><text class="cls-23" transform="translate(356.86 184.56)">t</text><text class="cls-23" transform="translate(359.63 184.56)">r</text><text class="cls-23" transform="translate(362.49 184.56)">i</text><text class="cls-23" transform="translate(364.48 184.56)">b</text><text class="cls-23" transform="translate(368.96 184.56)">u</text><text class="cls-23" transform="translate(373.32 184.56)">t</text><text class="cls-23" transform="translate(376.1 184.56)">e</text><text class="cls-23" transform="translate(380.02 184.56)">d</text><text class="cls-23" transform="translate(384.47 184.56)"> </text><text class="cls-23" transform="translate(386.46 184.56)">e</text><text class="cls-23" transform="translate(390.38 184.56)">q</text><text class="cls-23" transform="translate(394.83 184.56)">u</text><text class="cls-23" transform="translate(399.2 184.56)">i</text><text class="cls-23" transform="translate(401.18 184.56)">t</text><text class="cls-23" transform="translate(403.96 184.56)">a</text><text class="cls-23" transform="translate(407.85 184.56)">b</text><text class="cls-23" transform="translate(412.33 184.56)">l</text><text class="cls-23" transform="translate(414.32 184.56)">y</text><text class="cls-23" transform="translate(418.18 184.56)"> </text><text class="cls-23" transform="translate(420.17 184.56)">t</text><text class="cls-23" transform="translate(422.94 184.56)">o</text><text class="cls-23" transform="translate(427.36 184.56)"> </text><text class="cls-23" transform="translate(429.35 184.56)">a</text><text class="cls-23" transform="translate(433.24 184.56)">l</text><text class="cls-23" transform="translate(435.23 184.56)">l</text><text class="cls-23" transform="translate(437.22 184.56)"> </text><text class="cls-23" transform="translate(439.21 184.56)">U</text><text class="cls-23" transform="translate(444.42 184.56)">N</text><text class="cls-23" transform="translate(450.13 184.56)"> </text><text class="cls-23" transform="translate(334.46 197.63)">m</text><text class="cls-23" transform="translate(341.07 197.63)">e</text><text class="cls-23" transform="translate(344.99 197.63)">m</text><text class="cls-23" transform="translate(351.6 197.63)">b</text><text class="cls-23" transform="translate(356.08 197.63)">e</text><text class="cls-23" transform="translate(360 197.63)">r</text><text class="cls-23" transform="translate(362.85 197.63)"> </text><text class="cls-23" transform="translate(364.84 197.63)">s</text><text class="cls-23" transform="translate(368.14 197.63)">t</text><text class="cls-23" transform="translate(370.92 197.63)">a</text><text class="cls-23" transform="translate(374.81 197.63)">t</text><text class="cls-23" transform="translate(377.58 197.63)">e</text><text class="cls-23" transform="translate(381.5 197.63)">s</text></g></g></g></g></svg>