<svg id="图层_1" data-name="图层 1" xmlns="http://www.w3.org/2000/svg" xmlns:xlink="http://www.w3.org/1999/xlink" viewBox="0 0 499.14 395.96"><defs><style>.cls-1,.cls-11,.cls-5{fill:none;}.cls-2{clip-path:url(#clip-path);}.cls-3{clip-path:url(#clip-path-2);}.cls-17,.cls-4{fill:#0a0f59;}.cls-10,.cls-4,.cls-6,.cls-7,.cls-8,.cls-9{fill-rule:evenodd;}.cls-5{stroke:#fff;stroke-linecap:round;stroke-linejoin:round;stroke-width:0.96px;}.cls-12,.cls-6{fill:#c4c7f7;}.cls-13,.cls-7{fill:#8a8ff2;}.cls-16,.cls-8{fill:#121a9c;}.cls-14,.cls-9{fill:#474fe8;}.cls-10,.cls-15{fill:#1f29e3;}.cls-11{stroke:#000;stroke-linecap:square;stroke-miterlimit:10;stroke-width:0.48px;}</style><clipPath id="clip-path" transform="translate(-181.72 -53.17)"><rect class="cls-1" y="0.12" width="771.84" height="590.88"/></clipPath><clipPath id="clip-path-2" transform="translate(-181.72 -53.17)"><rect class="cls-1" y="0.12" width="771.83" height="590.88"/></clipPath></defs><g class="cls-2"><g class="cls-3"><polygon class="cls-4" points="200.1 237.12 200.1 66.97 185.25 67.67 170.36 69.59 155.95 72.71 141.8 77.28 128.13 82.78 114.92 89.77 102.43 97.66 90.68 106.79 79.87 116.87 69.8 127.68 60.67 139.43 52.75 151.92 45.78 165.12 40.29 178.79 35.71 192.96 33.79 201.59 200.1 237.12"/><polygon class="cls-5" points="200.1 237.12 200.1 66.97 185.25 67.67 170.36 69.59 155.95 72.71 141.8 77.28 128.13 82.78 114.92 89.77 102.43 97.66 90.68 106.79 79.87 116.87 69.8 127.68 60.67 139.43 52.75 151.92 45.78 165.12 40.29 178.79 35.71 192.96 33.79 201.59 200.1 237.12"/><polygon class="cls-6" points="200.1 237.12 229.4 175.67 223.88 173.28 218.35 171.6 212.59 170.16 206.6 169.42 200.84 168.95 200.1 168.95 200.1 237.12"/><polygon class="cls-5" points="200.1 237.12 229.4 175.67 223.88 173.28 218.35 171.6 212.59 170.16 206.6 169.42 200.84 168.95 200.1 168.95 200.1 237.12"/><polygon class="cls-7" points="200.1 237.12 263.96 298.07 269.01 292.06 273.55 285.84 277.63 279.36 281 272.38 283.86 265.19 286.05 257.74 287.46 250.31 288.2 242.63 288.44 234.94 287.97 227.04 286.76 219.59 284.84 211.9 282.21 204.71 279.08 197.76 275.47 191.04 271.16 184.56 266.35 178.55 261.06 173.04 255.06 167.98 248.83 163.44 242.37 159.34 238.26 157.19 200.1 237.12"/><polygon class="cls-5" points="200.1 237.12 263.96 298.07 269.01 292.06 273.55 285.84 277.63 279.36 281 272.38 283.86 265.19 286.05 257.74 287.46 250.31 288.2 242.63 288.44 234.94 287.97 227.04 286.76 219.59 284.84 211.9 282.21 204.71 279.08 197.76 275.47 191.04 271.16 184.56 266.35 178.55 261.06 173.04 255.06 167.98 248.83 163.44 242.37 159.34 238.26 157.19 200.1 237.12"/><polygon class="cls-8" points="200.1 237.12 53.73 205.92 51.54 218.62 50.36 231.84 50.6 244.78 51.81 257.74 54.2 270.7 57.8 283.19 62.35 295.42 67.88 307.2 74.61 318.48 82.02 329.03 90.68 339.1 99.8 348.24 109.87 356.39 117.55 361.9 200.1 237.12"/><polygon class="cls-5" points="200.1 237.12 53.73 205.92 51.54 218.62 50.36 231.84 50.6 244.78 51.81 257.74 54.2 270.7 57.8 283.19 62.35 295.42 67.88 307.2 74.61 318.48 82.02 329.03 90.68 339.1 99.8 348.24 109.87 356.39 117.55 361.9 200.1 237.12"/><polygon class="cls-9" points="200.1 237.12 240.45 337.9 249.07 334.06 257.49 329.5 265.17 323.99 272.58 317.98 278.84 312 200.1 237.12"/><polygon class="cls-5" points="200.1 237.12 240.45 337.9 249.07 334.06 257.49 329.5 265.17 323.99 272.58 317.98 278.84 312 200.1 237.12"/><polygon class="cls-10" points="200.1 237.12 128.84 344.88 138.43 350.62 148.74 355.66 159.31 359.52 170.13 362.64 181.14 364.79 192.42 366 203.71 366.24 214.75 365.26 226.03 363.58 236.84 360.7 247.62 357.1 248.12 356.87 200.1 237.12"/><polygon class="cls-5" points="200.1 237.12 128.84 344.88 138.43 350.62 148.74 355.66 159.31 359.52 170.13 362.64 181.14 364.79 192.42 366 203.71 366.24 214.75 365.26 226.03 363.58 236.84 360.7 247.62 357.1 248.12 356.87 200.1 237.12"/></g><g class="cls-3"><path d="M218.56,137.93h5.16V140h-8.08v-.9a4.1,4.1,0,0,1,.35-1.74,5.42,5.42,0,0,1,1-1.46,11.6,11.6,0,0,1,1.9-1.59,7.56,7.56,0,0,0,1.64-1.56,2.44,2.44,0,0,0,.48-1.44c0-1.09-.6-1.64-1.79-1.64a4.48,4.48,0,0,0-3,1.26v-2.26a6.41,6.41,0,0,1,3.58-1,4.23,4.23,0,0,1,2.88.93,3.25,3.25,0,0,1,1.06,2.56,4.24,4.24,0,0,1-.31,1.64,4.71,4.71,0,0,1-.89,1.38,10.85,10.85,0,0,1-1.86,1.55,10.93,10.93,0,0,0-1.65,1.35A1.4,1.4,0,0,0,218.56,137.93Z" transform="translate(-181.72 -53.17)"/><path d="M231.46,127.62V140h-2.55v-9.57a4.82,4.82,0,0,1-1.29.74,6,6,0,0,1-1.5.4v-2.17a11.53,11.53,0,0,0,3.72-1.82Z" transform="translate(-181.72 -53.17)"/><path d="M235.26,138.9a1.23,1.23,0,0,1,.45-1,1.6,1.6,0,0,1,1.07-.37,1.57,1.57,0,0,1,1.06.38,1.31,1.31,0,0,1,0,1.94,1.62,1.62,0,0,1-1.09.37,1.52,1.52,0,0,1-1.05-.39A1.21,1.21,0,0,1,235.26,138.9Z" transform="translate(-181.72 -53.17)"/><path d="M248.27,129.43c-1,1.76-1.72,3.18-2.21,4.26a27.31,27.31,0,0,0-1.18,3.15,24.13,24.13,0,0,0-.7,3.2h-2.72a22.53,22.53,0,0,1,1.39-4.82,35.17,35.17,0,0,1,2.74-5.25h-5.8v-2.09h8.48Z" transform="translate(-181.72 -53.17)"/><path d="M258.87,137.09c0,1.13.42,1.69,1.25,1.69s1.26-.58,1.26-1.76a2,2,0,0,0-.34-1.26,1.05,1.05,0,0,0-.89-.45C259.3,135.31,258.87,135.9,258.87,137.09Zm-1.71.08a3.33,3.33,0,0,1,.84-2.39,2.89,2.89,0,0,1,2.23-.89,2.71,2.71,0,0,1,2.1.8,3.15,3.15,0,0,1,.75,2.25,3.33,3.33,0,0,1-.84,2.38,2.92,2.92,0,0,1-2.22.89,2.71,2.71,0,0,1-2.08-.84A3.08,3.08,0,0,1,257.16,137.17Zm4.12-9.29-7.91,12.17h-2l7.89-12.17Zm-9.93,3c0,1.12.41,1.69,1.24,1.69s1.26-.59,1.26-1.76-.4-1.7-1.21-1.7S251.35,129.74,251.35,130.92Zm-1.73.09a3.39,3.39,0,0,1,.83-2.39,2.89,2.89,0,0,1,2.24-.9,2.72,2.72,0,0,1,2.1.81,3.23,3.23,0,0,1,.75,2.26,3.33,3.33,0,0,1-.83,2.36,2.92,2.92,0,0,1-2.22.88,2.71,2.71,0,0,1-2.09-.83A3.06,3.06,0,0,1,249.62,131Z" transform="translate(-181.72 -53.17)"/></g><g class="cls-3"><path d="M187.06,346.5v12.42h-2.55v-9.57a4.82,4.82,0,0,1-1.29.74,6,6,0,0,1-1.5.4v-2.17a11.53,11.53,0,0,0,3.72-1.82Z" transform="translate(-181.72 -53.17)"/><path d="M193.24,350.6a2.26,2.26,0,0,0,.47,1.51,1.56,1.56,0,0,0,1.27.55,1.52,1.52,0,0,0,1.19-.52,1.91,1.91,0,0,0,.47-1.31,2.89,2.89,0,0,0-.47-1.63,1.45,1.45,0,0,0-1.25-.7,1.47,1.47,0,0,0-1.22.61A2.36,2.36,0,0,0,193.24,350.6Zm-1.8,6a4.22,4.22,0,0,0,2.29.62c2,0,3-1.27,3-3.83h-.05a2.73,2.73,0,0,1-2.47,1.23,3.22,3.22,0,0,1-2.49-1.06,3.83,3.83,0,0,1-1-2.68,4.22,4.22,0,0,1,1.18-3.09,4.13,4.13,0,0,1,3.07-1.18,3.65,3.65,0,0,1,3.09,1.5,6.83,6.83,0,0,1,1.12,4.18,8.42,8.42,0,0,1-1.35,5,4.54,4.54,0,0,1-3.9,1.85,6.55,6.55,0,0,1-2.52-.46Z" transform="translate(-181.72 -53.17)"/><path d="M200.7,357.78a1.23,1.23,0,0,1,.45-1,1.6,1.6,0,0,1,1.07-.37,1.57,1.57,0,0,1,1.06.38,1.31,1.31,0,0,1,0,1.94,1.65,1.65,0,0,1-1.09.37,1.52,1.52,0,0,1-1.05-.39A1.21,1.21,0,0,1,200.7,357.78Z" transform="translate(-181.72 -53.17)"/><path d="M211.3,346.5v12.42h-2.55v-9.57a4.82,4.82,0,0,1-1.29.74,6,6,0,0,1-1.5.4v-2.17a11.53,11.53,0,0,0,3.72-1.82Z" transform="translate(-181.72 -53.17)"/><path d="M224.31,356c0,1.13.42,1.69,1.25,1.69s1.26-.58,1.26-1.76a2,2,0,0,0-.34-1.26,1,1,0,0,0-.89-.45C224.74,354.19,224.31,354.78,224.31,356Zm-1.71.08a3.33,3.33,0,0,1,.84-2.39,2.89,2.89,0,0,1,2.23-.89,2.71,2.71,0,0,1,2.1.8,3.15,3.15,0,0,1,.75,2.25,3.33,3.33,0,0,1-.84,2.38,2.92,2.92,0,0,1-2.22.89,2.71,2.71,0,0,1-2.08-.84A3.08,3.08,0,0,1,222.6,356.05Zm4.12-9.29-7.91,12.16h-2l7.89-12.16Zm-9.93,3c0,1.12.41,1.69,1.24,1.69s1.26-.59,1.26-1.76-.4-1.7-1.21-1.7S216.79,348.62,216.79,349.8Zm-1.73.09a3.37,3.37,0,0,1,.83-2.39,2.89,2.89,0,0,1,2.24-.9,2.72,2.72,0,0,1,2.1.81,3.23,3.23,0,0,1,.75,2.26,3.33,3.33,0,0,1-.83,2.36,2.92,2.92,0,0,1-2.22.88,2.71,2.71,0,0,1-2.09-.83A3.06,3.06,0,0,1,215.06,349.89Z" transform="translate(-181.72 -53.17)"/></g><g class="cls-3"><path d="M349.78,436.5v12.42h-2.55v-9.57a4.82,4.82,0,0,1-1.29.74,6.23,6.23,0,0,1-1.5.4v-2.17a11.53,11.53,0,0,0,3.72-1.82Z" transform="translate(-181.72 -53.17)"/><path d="M354.15,448.6v-2.19a5.05,5.05,0,0,0,2.7.77,2.45,2.45,0,0,0,1.68-.53,1.81,1.81,0,0,0,.61-1.43c0-1.26-.87-1.89-2.59-1.89a20.93,20.93,0,0,0-2.21.14l.46-6.71h6.43v2.09h-4.38l-.18,2.56q.66-.06,1.2-.06a4,4,0,0,1,2.82,1,3.45,3.45,0,0,1,1,2.63,3.91,3.91,0,0,1-1.25,3,4.75,4.75,0,0,1-3.39,1.17A7.27,7.27,0,0,1,354.15,448.6Z" transform="translate(-181.72 -53.17)"/><path d="M363.42,447.78a1.23,1.23,0,0,1,.45-1,1.6,1.6,0,0,1,1.07-.37,1.54,1.54,0,0,1,1.05.38,1.29,1.29,0,0,1,0,1.94,1.63,1.63,0,0,1-1.09.37,1.51,1.51,0,0,1-1-.39A1.21,1.21,0,0,1,363.42,447.78Z" transform="translate(-181.72 -53.17)"/><path d="M368.44,446.27a4.57,4.57,0,0,0,2.84.91,2.67,2.67,0,0,0,1.63-.45,1.55,1.55,0,0,0,.6-1.3,1.48,1.48,0,0,0-.72-1.32,3.74,3.74,0,0,0-2-.45H369.7v-2h1c1.63,0,2.44-.55,2.44-1.65s-.62-1.56-1.87-1.56a4.15,4.15,0,0,0-2.38.8v-2.09a6.4,6.4,0,0,1,3-.65,4.6,4.6,0,0,1,2.8.79,2.61,2.61,0,0,1,1.08,2.21,2.86,2.86,0,0,1-2.42,3v0a3.16,3.16,0,0,1,2,.93,2.66,2.66,0,0,1,.76,1.92,3.24,3.24,0,0,1-1.26,2.71,5.49,5.49,0,0,1-3.38,1,6.37,6.37,0,0,1-3-.62Z" transform="translate(-181.72 -53.17)"/><path d="M387,446c0,1.13.42,1.69,1.25,1.69s1.26-.58,1.26-1.76a2.06,2.06,0,0,0-.34-1.26,1.05,1.05,0,0,0-.89-.45C387.46,444.19,387,444.78,387,446Zm-1.72.08a3.33,3.33,0,0,1,.84-2.39,2.92,2.92,0,0,1,2.24-.9,2.72,2.72,0,0,1,2.1.81,3.15,3.15,0,0,1,.75,2.25,3.33,3.33,0,0,1-.84,2.38,2.92,2.92,0,0,1-2.22.89,2.71,2.71,0,0,1-2.08-.84A3.09,3.09,0,0,1,385.31,446.05Zm4.12-9.29-7.9,12.16h-2l7.89-12.16Zm-9.92,3c0,1.12.41,1.69,1.24,1.69s1.26-.59,1.26-1.76-.4-1.7-1.21-1.7S379.51,438.62,379.51,439.8Zm-1.73.09a3.37,3.37,0,0,1,.83-2.39,2.89,2.89,0,0,1,2.24-.9,2.72,2.72,0,0,1,2.1.81,3.23,3.23,0,0,1,.75,2.26,3.33,3.33,0,0,1-.83,2.36,2.92,2.92,0,0,1-2.22.88,2.71,2.71,0,0,1-2.09-.83A3.06,3.06,0,0,1,377.78,439.89Z" transform="translate(-181.72 -53.17)"/></g><g class="cls-3"><path d="M452.5,402.44A2.63,2.63,0,0,0,453,404a1.52,1.52,0,0,0,2.46.06,2.47,2.47,0,0,0,.45-1.52c0-1.36-.56-2-1.69-2a1.54,1.54,0,0,0-1.23.54A2,2,0,0,0,452.5,402.44Zm5-5.89a4,4,0,0,0-2-.53,2.69,2.69,0,0,0-2.25,1.11,4.55,4.55,0,0,0-.84,2.85h0a2.88,2.88,0,0,1,2.58-1.34,3,3,0,0,1,2.43,1.05,4,4,0,0,1,.9,2.73,4.16,4.16,0,0,1-1.17,3,4,4,0,0,1-3,1.2,3.71,3.71,0,0,1-3.2-1.51A6.82,6.82,0,0,1,449.9,401a8.18,8.18,0,0,1,1.44-5,4.71,4.71,0,0,1,4-1.92,5.84,5.84,0,0,1,2.18.33Z" transform="translate(-181.72 -53.17)"/><path d="M459.66,405.3a1.23,1.23,0,0,1,.45-1,1.59,1.59,0,0,1,1.06-.37,1.55,1.55,0,0,1,1.06.38,1.29,1.29,0,0,1,0,1.94,1.63,1.63,0,0,1-1.09.37,1.49,1.49,0,0,1-1-.39A1.18,1.18,0,0,1,459.66,405.3Z" transform="translate(-181.72 -53.17)"/><path d="M467,397.57a1.7,1.7,0,0,0,.41,1.14,1.32,1.32,0,0,0,1,.48,1.33,1.33,0,0,0,1-.47,1.65,1.65,0,0,0,.42-1.15,1.71,1.71,0,0,0-.41-1.17,1.3,1.3,0,0,0-1-.48,1.28,1.28,0,0,0-1,.48A1.76,1.76,0,0,0,467,397.57Zm-.38,5.37a1.9,1.9,0,0,0,.49,1.35,1.9,1.9,0,0,0,2.59,0,2,2,0,0,0,0-2.67,1.82,1.82,0,0,0-2.57,0A1.85,1.85,0,0,0,466.64,402.94Zm-2.53.22a3.07,3.07,0,0,1,.61-1.88,3.52,3.52,0,0,1,1.78-1.21,3.86,3.86,0,0,1-1.44-1.17,2.75,2.75,0,0,1-.5-1.59,2.82,2.82,0,0,1,.5-1.65,3.26,3.26,0,0,1,1.39-1.16,4.62,4.62,0,0,1,2-.42,4.93,4.93,0,0,1,2,.41,3.27,3.27,0,0,1,1.4,1.15,2.83,2.83,0,0,1,.5,1.64,2.57,2.57,0,0,1-.55,1.58,3.85,3.85,0,0,1-1.49,1.15,3.77,3.77,0,0,1,1.78,1.21,3.24,3.24,0,0,1-.57,4.44,5.49,5.49,0,0,1-6.23,0A3.07,3.07,0,0,1,464.11,403.16Z" transform="translate(-181.72 -53.17)"/><path d="M483.27,403.49c0,1.13.42,1.69,1.25,1.69s1.26-.58,1.26-1.76a2.06,2.06,0,0,0-.34-1.26,1.05,1.05,0,0,0-.89-.45C483.7,401.71,483.27,402.3,483.27,403.49Zm-1.72.08a3.33,3.33,0,0,1,.84-2.39,2.92,2.92,0,0,1,2.24-.89,2.71,2.71,0,0,1,2.1.8,3.15,3.15,0,0,1,.75,2.25,3.33,3.33,0,0,1-.84,2.38,2.92,2.92,0,0,1-2.22.89,2.7,2.7,0,0,1-2.08-.84A3,3,0,0,1,481.55,403.57Zm4.12-9.29-7.9,12.16h-2l7.89-12.16Zm-9.92,3c0,1.12.41,1.69,1.24,1.69s1.26-.59,1.26-1.76-.4-1.7-1.21-1.7S475.75,396.14,475.75,397.32Zm-1.73.09a3.37,3.37,0,0,1,.83-2.39,2.89,2.89,0,0,1,2.24-.9,2.72,2.72,0,0,1,2.1.81,3.23,3.23,0,0,1,.75,2.26,3.33,3.33,0,0,1-.83,2.36,2.92,2.92,0,0,1-2.23.88,2.71,2.71,0,0,1-2.08-.83A3.06,3.06,0,0,1,474,397.41Z" transform="translate(-181.72 -53.17)"/></g><g class="cls-3"><path d="M478.83,276.11a4.62,4.62,0,0,0,2.85.91,2.69,2.69,0,0,0,1.63-.45,1.55,1.55,0,0,0,.6-1.3,1.48,1.48,0,0,0-.72-1.32,3.79,3.79,0,0,0-2-.45H480.1v-1.95h1c1.64,0,2.45-.55,2.45-1.65s-.62-1.56-1.87-1.56a4.15,4.15,0,0,0-2.38.8v-2.09a6.4,6.4,0,0,1,3-.65,4.6,4.6,0,0,1,2.8.79,2.6,2.6,0,0,1,1.07,2.21,2.85,2.85,0,0,1-2.41,3v0a3.19,3.19,0,0,1,2,.93,2.66,2.66,0,0,1,.76,1.92,3.22,3.22,0,0,1-1.27,2.71,5.44,5.44,0,0,1-3.37,1,6.44,6.44,0,0,1-3-.62Z" transform="translate(-181.72 -53.17)"/><path d="M490.61,272.82q0,4.2,1.8,4.2t1.77-4.33c0-2.9-.58-4.35-1.72-4.35S490.61,269.84,490.61,272.82Zm-2.56.06a8.35,8.35,0,0,1,1.16-4.82,3.83,3.83,0,0,1,3.36-1.66c2.79,0,4.19,2.06,4.19,6.2a8.28,8.28,0,0,1-1.14,4.71,3.74,3.74,0,0,1-3.29,1.66C489.47,279,488.05,276.94,488.05,272.88Z" transform="translate(-181.72 -53.17)"/><path d="M507.27,275.81c0,1.13.42,1.69,1.25,1.69s1.25-.58,1.25-1.76a2.06,2.06,0,0,0-.33-1.26,1.05,1.05,0,0,0-.89-.45C507.7,274,507.27,274.62,507.27,275.81Zm-1.72.08a3.33,3.33,0,0,1,.84-2.39,2.92,2.92,0,0,1,2.24-.89,2.71,2.71,0,0,1,2.1.8,3.15,3.15,0,0,1,.75,2.25,3.33,3.33,0,0,1-.84,2.38,2.92,2.92,0,0,1-2.22.89,2.7,2.7,0,0,1-2.08-.84A3,3,0,0,1,505.55,275.89Zm4.12-9.29-7.9,12.17h-2l7.89-12.17Zm-9.92,3c0,1.12.41,1.69,1.24,1.69s1.26-.59,1.26-1.76-.4-1.7-1.21-1.7S499.75,268.46,499.75,269.64Zm-1.73.09a3.37,3.37,0,0,1,.83-2.39,2.89,2.89,0,0,1,2.24-.9,2.72,2.72,0,0,1,2.1.81,3.23,3.23,0,0,1,.75,2.26,3.29,3.29,0,0,1-.84,2.36,2.89,2.89,0,0,1-2.22.88,2.71,2.71,0,0,1-2.08-.83A3.06,3.06,0,0,1,498,269.73Z" transform="translate(-181.72 -53.17)"/></g><g class="cls-3"><path d="M398,198.55q-1.47,2.64-2.2,4.26a27.31,27.31,0,0,0-1.18,3.15,24.13,24.13,0,0,0-.7,3.2h-2.72a22,22,0,0,1,1.39-4.82,35.17,35.17,0,0,1,2.74-5.25h-5.8V197H398Z" transform="translate(-181.72 -53.17)"/><path d="M399.42,208a1.23,1.23,0,0,1,.45-1,1.59,1.59,0,0,1,1.06-.37,1.55,1.55,0,0,1,1.06.38,1.29,1.29,0,0,1,0,1.94,1.63,1.63,0,0,1-1.09.37,1.51,1.51,0,0,1-1-.39A1.21,1.21,0,0,1,399.42,208Z" transform="translate(-181.72 -53.17)"/><path d="M410,196.74v12.42h-2.55v-9.57a4.59,4.59,0,0,1-1.28.74,6.23,6.23,0,0,1-1.5.4v-2.17a11.53,11.53,0,0,0,3.72-1.82Z" transform="translate(-181.72 -53.17)"/><path d="M423,206.21c0,1.13.42,1.69,1.25,1.69s1.26-.58,1.26-1.76a2.06,2.06,0,0,0-.34-1.26,1.05,1.05,0,0,0-.89-.45C423.46,204.43,423,205,423,206.21Zm-1.72.08a3.33,3.33,0,0,1,.84-2.39,2.92,2.92,0,0,1,2.24-.89,2.71,2.71,0,0,1,2.1.8,3.15,3.15,0,0,1,.75,2.25,3.33,3.33,0,0,1-.84,2.38,2.92,2.92,0,0,1-2.22.89,2.7,2.7,0,0,1-2.08-.84A3.09,3.09,0,0,1,421.31,206.29Zm4.12-9.29-7.9,12.17h-2L423.45,197Zm-9.92,3c0,1.12.41,1.69,1.24,1.69S418,201.14,418,200s-.4-1.7-1.21-1.7S415.51,198.86,415.51,200Zm-1.73.09a3.37,3.37,0,0,1,.83-2.39,2.89,2.89,0,0,1,2.24-.9,2.72,2.72,0,0,1,2.1.81,3.23,3.23,0,0,1,.75,2.26,3.33,3.33,0,0,1-.83,2.36,2.92,2.92,0,0,1-2.22.88,2.71,2.71,0,0,1-2.09-.83A3.06,3.06,0,0,1,413.78,200.13Z" transform="translate(-181.72 -53.17)"/></g><g class="cls-3"><line class="cls-11" x1="412.51" y1="0.24" x2="498.9" y2="0.24"/><line class="cls-11" x1="498.9" y1="0.24" x2="498.9" y2="202.3"/><line class="cls-11" x1="498.9" y1="202.3" x2="412.51" y2="202.3"/><line class="cls-11" x1="412.51" y1="202.3" x2="412.51" y2="0.24"/></g><g class="cls-3"><rect class="cls-12" x="416.12" y="3.6" width="51.36" height="24.95"/><rect class="cls-5" x="416.12" y="3.6" width="51.36" height="24.95"/></g><g class="cls-3"><path d="M665.51,71.26l-2.3-6.33a7,7,0,0,1-.23-1.06h-.05a5.74,5.74,0,0,1-.25,1.06l-2.28,6.33Zm4.34,5.9h-2.17L666.12,73h-6.34l-1.47,4.17h-2.17l5.8-15.24h2.11Z" transform="translate(-181.72 -53.17)"/><path d="M673.88,82.68V73.83a4.2,4.2,0,0,1-1,.69,6.34,6.34,0,0,1-1.35.53V73.77a8.54,8.54,0,0,0,1.75-.72,7.47,7.47,0,0,0,1.44-.94h.49V82.68Z" transform="translate(-181.72 -53.17)"/></g><g class="cls-3"><rect class="cls-13" x="416.12" y="36.95" width="51.36" height="24.95"/><rect class="cls-5" x="416.12" y="36.95" width="51.36" height="24.95"/></g><g class="cls-3"><path d="M665.51,104.62l-2.3-6.33a7,7,0,0,1-.23-1.06h-.05a5.74,5.74,0,0,1-.25,1.06l-2.28,6.33Zm4.34,5.9h-2.17l-1.56-4.17h-6.34l-1.47,4.17h-2.17l5.8-15.24h2.11Z" transform="translate(-181.72 -53.17)"/><path d="M675.77,108.41a1.67,1.67,0,0,0-.53-1.31,2.05,2.05,0,0,0-1.44-.48,2.87,2.87,0,0,0-1.29.33,4,4,0,0,0-1.22.93v-1.27a3.65,3.65,0,0,1,1.15-.81,3.87,3.87,0,0,1,1.51-.28,3.3,3.3,0,0,1,2.26.75,2.57,2.57,0,0,1,.85,2,3.6,3.6,0,0,1-.52,2,6.29,6.29,0,0,1-1.79,1.71c-.87.6-1.45,1-1.74,1.28a2.73,2.73,0,0,0-.61.74,2.08,2.08,0,0,0-.17.87h5.14V116h-6.5v-.52a4.29,4.29,0,0,1,.24-1.52,3.67,3.67,0,0,1,.81-1.21,11.66,11.66,0,0,1,1.74-1.42,6.69,6.69,0,0,0,1.66-1.5A2.5,2.5,0,0,0,675.77,108.41Z" transform="translate(-181.72 -53.17)"/></g><g class="cls-3"><rect class="cls-14" x="416.12" y="70.32" width="51.36" height="24.95"/><rect class="cls-5" x="416.12" y="70.32" width="51.36" height="24.95"/></g><g class="cls-3"><path d="M665.51,138l-2.3-6.33a7,7,0,0,1-.23-1.06h-.05a5.74,5.74,0,0,1-.25,1.06L660.4,138Zm4.34,5.9h-2.17l-1.56-4.17h-6.34l-1.47,4.17h-2.17l5.8-15.24h2.11Z" transform="translate(-181.72 -53.17)"/><path d="M671,147.67a3.77,3.77,0,0,0,2.39.82,2.61,2.61,0,0,0,1.7-.52,1.76,1.76,0,0,0,.62-1.41c0-1.31-.94-2-2.81-2h-.86v-1.08h.82c1.66,0,2.49-.62,2.49-1.85s-.63-1.7-1.9-1.7a3.31,3.31,0,0,0-2.05.74v-1.24a4.63,4.63,0,0,1,2.37-.59,3.13,3.13,0,0,1,2.12.69,2.27,2.27,0,0,1,.8,1.8,2.52,2.52,0,0,1-2.07,2.61v0a2.81,2.81,0,0,1,1.77.79,2.31,2.31,0,0,1,.66,1.68,2.81,2.81,0,0,1-1,2.25,4,4,0,0,1-2.67.85A4.47,4.47,0,0,1,671,149Z" transform="translate(-181.72 -53.17)"/></g><g class="cls-3"><rect class="cls-15" x="416.12" y="103.67" width="51.36" height="24.95"/><rect class="cls-5" x="416.12" y="103.67" width="51.36" height="24.95"/></g><g class="cls-3"><path d="M665.51,171.34l-2.3-6.33A7,7,0,0,1,663,164h-.05a5.74,5.74,0,0,1-.25,1.06l-2.28,6.33Zm4.34,5.9h-2.17l-1.56-4.17h-6.34l-1.47,4.17h-2.17l5.8-15.24h2.11Z" transform="translate(-181.72 -53.17)"/><path d="M671.65,179.25H675v-4.93c-.46.83-1,1.64-1.49,2.42S672.37,178.36,671.65,179.25Zm4.63-6.83v6.83h1.55v1.08h-1.55v2.43H675v-2.43h-4.82v-1a36.43,36.43,0,0,0,4.74-6.89Z" transform="translate(-181.72 -53.17)"/></g><g class="cls-3"><rect class="cls-16" x="416.12" y="137.02" width="51.36" height="24.98"/><rect class="cls-5" x="416.12" y="137.02" width="51.36" height="24.98"/></g><g class="cls-3"><path d="M665.51,204.7l-2.3-6.33a7,7,0,0,1-.23-1.06h-.05a5.74,5.74,0,0,1-.25,1.06l-2.28,6.33Zm4.34,5.9h-2.17l-1.56-4.17h-6.34l-1.47,4.17h-2.17l5.8-15.24h2.11Z" transform="translate(-181.72 -53.17)"/><path d="M677.11,212.93a3.17,3.17,0,0,1-1,2.44,3.82,3.82,0,0,1-2.7.93,4.27,4.27,0,0,1-2.17-.44v-1.33a3.94,3.94,0,0,0,2.14.68,2.53,2.53,0,0,0,1.75-.6,2,2,0,0,0,.66-1.58,1.85,1.85,0,0,0-.69-1.54,3,3,0,0,0-2-.55c-.65,0-1.24,0-1.76.08l.38-5.24h4.83v1.14h-3.73l-.21,2.94.94,0a3.8,3.8,0,0,1,2.58.81A2.88,2.88,0,0,1,677.11,212.93Z" transform="translate(-181.72 -53.17)"/></g><g class="cls-3"><rect class="cls-17" x="416.12" y="170.39" width="51.36" height="24.95"/><rect class="cls-5" x="416.12" y="170.39" width="51.36" height="24.95"/></g><g class="cls-3"><path d="M665.51,238.06l-2.3-6.33a7,7,0,0,1-.23-1.06h-.05a5.74,5.74,0,0,1-.25,1.06l-2.28,6.33Zm4.34,5.9h-2.17l-1.56-4.17h-6.34L658.31,244h-2.17l5.8-15.24h2.11Z" transform="translate(-181.72 -53.17)"/><path d="M672.28,246.09a2.85,2.85,0,0,0,.54,1.75,1.7,1.7,0,0,0,1.45.73,1.72,1.72,0,0,0,1.38-.63,2.37,2.37,0,0,0,.54-1.61,2.49,2.49,0,0,0-.51-1.67,1.78,1.78,0,0,0-1.43-.59,1.85,1.85,0,0,0-1.43.6A2.06,2.06,0,0,0,672.28,246.09Zm4.59-5.63a3.73,3.73,0,0,0-1.69-.41,2.53,2.53,0,0,0-2.16,1.17,5.52,5.52,0,0,0-.82,3.19h0a2.45,2.45,0,0,1,2.34-1.42,2.79,2.79,0,0,1,2.15.87,3.35,3.35,0,0,1,.8,2.33,3.46,3.46,0,0,1-.93,2.49,3.09,3.09,0,0,1-2.36,1,2.89,2.89,0,0,1-2.47-1.23,5.86,5.86,0,0,1-.9-3.5,7.16,7.16,0,0,1,1.18-4.34,3.65,3.65,0,0,1,3.1-1.62,4.1,4.1,0,0,1,1.73.3Z" transform="translate(-181.72 -53.17)"/></g></g></svg>