<svg id="图层_1" data-name="图层 1" xmlns="http://www.w3.org/2000/svg" xmlns:xlink="http://www.w3.org/1999/xlink" viewBox="0 0 608.97 565.12"><defs><style>.cls-1,.cls-10,.cls-12,.cls-4,.cls-6,.cls-8{fill:none;}.cls-2{clip-path:url(#clip-path);}.cls-3{clip-path:url(#clip-path-2);}.cls-10,.cls-4{stroke:#bfbfbf;}.cls-10,.cls-4,.cls-6,.cls-8{stroke-linejoin:round;}.cls-12,.cls-4{stroke-width:0.48px;}.cls-5{fill:#0545c2;}.cls-6{stroke:#0545c2;}.cls-6,.cls-8{stroke-linecap:round;}.cls-10,.cls-6,.cls-8{stroke-width:0.96px;}.cls-7{fill:#8cb0fa;}.cls-8{stroke:#8cb0fa;}.cls-9{fill:#fff;}.cls-10,.cls-12{stroke-linecap:square;}.cls-11{fill:#e0f7bf;}.cls-12{stroke:#000;stroke-miterlimit:10;}</style><clipPath id="clip-path" transform="translate(-96.85 -1.79)"><rect class="cls-1" y="0.12" width="771.84" height="590.88"/></clipPath><clipPath id="clip-path-2" transform="translate(-96.85 -1.79)"><rect class="cls-1" y="0.12" width="771.83" height="590.88"/></clipPath></defs><g class="cls-2"><g class="cls-3"><line class="cls-4" x1="146.75" y1="491.29" x2="146.75" y2="66.96"/><line class="cls-4" x1="252.1" y1="491.29" x2="252.1" y2="66.96"/><line class="cls-4" x1="357.21" y1="491.29" x2="357.21" y2="66.96"/><line class="cls-4" x1="462.59" y1="491.29" x2="462.59" y2="66.96"/></g><g class="cls-3"><rect class="cls-5" x="41.4" y="406.33" width="345.82" height="63.84"/><rect class="cls-6" x="41.4" y="406.33" width="345.82" height="63.84"/></g><g class="cls-3"><rect class="cls-5" x="41.4" y="300.25" width="425.74" height="63.84"/><rect class="cls-6" x="41.4" y="300.25" width="425.74" height="63.84"/></g><g class="cls-3"><rect class="cls-5" x="41.4" y="194.17" width="417.35" height="63.84"/><rect class="cls-6" x="41.4" y="194.17" width="417.35" height="63.84"/></g><g class="cls-3"><rect class="cls-5" x="41.4" y="88.09" width="474.71" height="63.84"/><rect class="cls-6" x="41.4" y="88.09" width="474.71" height="63.84"/></g><g class="cls-3"><rect class="cls-7" x="387.22" y="406.33" width="180.72" height="63.84"/><rect class="cls-8" x="387.22" y="406.33" width="180.72" height="63.84"/></g><g class="cls-3"><rect class="cls-7" x="467.14" y="300.25" width="100.8" height="63.84"/><rect class="cls-8" x="467.14" y="300.25" width="100.8" height="63.84"/></g><g class="cls-3"><rect class="cls-7" x="458.75" y="194.17" width="109.19" height="63.84"/><rect class="cls-8" x="458.75" y="194.17" width="109.19" height="63.84"/></g><g class="cls-3"><rect class="cls-7" x="516.11" y="88.09" width="51.83" height="63.84"/><rect class="cls-8" x="516.11" y="88.09" width="51.83" height="63.84"/></g><g class="cls-3"><path class="cls-9" d="M292.23,443a4.55,4.55,0,0,0,.87,2.8,2.75,2.75,0,0,0,2.31,1.16,2.8,2.8,0,0,0,2.22-1,3.84,3.84,0,0,0,.85-2.58,4,4,0,0,0-.81-2.66,2.82,2.82,0,0,0-2.28-.95,2.93,2.93,0,0,0-2.28,1A3.28,3.28,0,0,0,292.23,443Zm7.34-9a5.85,5.85,0,0,0-2.7-.66,4,4,0,0,0-3.44,1.86,8.85,8.85,0,0,0-1.32,5.1h.05a3.91,3.91,0,0,1,3.74-2.27,4.4,4.4,0,0,1,3.42,1.39,5.29,5.29,0,0,1,1.28,3.71,5.52,5.52,0,0,1-1.48,4,4.94,4.94,0,0,1-3.76,1.55,4.61,4.61,0,0,1-3.95-2,9.32,9.32,0,0,1-1.44-5.58,11.52,11.52,0,0,1,1.89-6.95,5.85,5.85,0,0,1,4.95-2.57,6.51,6.51,0,0,1,2.76.48Z" transform="translate(-96.85 -1.79)"/><path class="cls-9" d="M305,443a4.55,4.55,0,0,0,.87,2.8,2.75,2.75,0,0,0,2.31,1.16,2.8,2.8,0,0,0,2.22-1,3.84,3.84,0,0,0,.85-2.58,4,4,0,0,0-.81-2.66,2.82,2.82,0,0,0-2.28-.95,2.93,2.93,0,0,0-2.28,1A3.28,3.28,0,0,0,305,443Zm7.34-9a5.85,5.85,0,0,0-2.7-.66,4,4,0,0,0-3.44,1.86,8.85,8.85,0,0,0-1.32,5.1h.05a3.91,3.91,0,0,1,3.74-2.27,4.4,4.4,0,0,1,3.42,1.39,5.29,5.29,0,0,1,1.28,3.71,5.52,5.52,0,0,1-1.48,4,4.94,4.94,0,0,1-3.76,1.55,4.61,4.61,0,0,1-3.95-2,9.32,9.32,0,0,1-1.44-5.58,11.52,11.52,0,0,1,1.89-6.95,5.85,5.85,0,0,1,4.95-2.57,6.51,6.51,0,0,1,2.76.48Z" transform="translate(-96.85 -1.79)"/><path class="cls-9" d="M326.6,444.47a3.28,3.28,0,0,0,.6,2.1,2,2,0,0,0,1.63.75,1.94,1.94,0,0,0,1.65-.78,3.54,3.54,0,0,0,.58-2.17,3.38,3.38,0,0,0-.58-2.13,1.92,1.92,0,0,0-1.59-.73,2,2,0,0,0-1.69.78A3.51,3.51,0,0,0,326.6,444.47Zm-1.63.1a4.65,4.65,0,0,1,1.09-3.24,3.72,3.72,0,0,1,2.9-1.21,3.48,3.48,0,0,1,2.74,1.11,5.2,5.2,0,0,1-.11,6.25,3.66,3.66,0,0,1-2.86,1.21,3.49,3.49,0,0,1-2.74-1.14A4.33,4.33,0,0,1,325,444.57Zm5-12.64-10.6,16.61h-1.78l10.6-16.61ZM316.73,436a3.3,3.3,0,0,0,.59,2.12,2,2,0,0,0,1.63.75,1.94,1.94,0,0,0,1.65-.78,3.54,3.54,0,0,0,.58-2.18,3.45,3.45,0,0,0-.57-2.12A1.89,1.89,0,0,0,319,433a2,2,0,0,0-1.67.78A3.45,3.45,0,0,0,316.73,436Zm-1.65.11a4.57,4.57,0,0,1,1.09-3.22,3.72,3.72,0,0,1,2.91-1.2,3.49,3.49,0,0,1,2.74,1.1,4.4,4.4,0,0,1,1,3.06,4.53,4.53,0,0,1-1.09,3.16,3.67,3.67,0,0,1-2.88,1.22,3.51,3.51,0,0,1-2.73-1.13A4.25,4.25,0,0,1,315.08,436.1Z" transform="translate(-96.85 -1.79)"/></g><g class="cls-3"><path class="cls-9" d="M332.48,330a2.71,2.71,0,0,0,2.72,2.7,2.7,2.7,0,0,0,1.94-.8,2.67,2.67,0,0,0,0-3.8,2.71,2.71,0,0,0-2-.77,2.63,2.63,0,0,0-1.94.76A2.56,2.56,0,0,0,332.48,330Zm-.59,7.7a3.14,3.14,0,0,0,.9,2.35,3.69,3.69,0,0,0,4.82,0,3.33,3.33,0,0,0,0-4.64,3.54,3.54,0,0,0-4.76,0A3.08,3.08,0,0,0,331.89,337.66Zm-2.05.09a4.51,4.51,0,0,1,.85-2.63,4.76,4.76,0,0,1,2.2-1.72,4.84,4.84,0,0,1-1.71-1.55,3.65,3.65,0,0,1-.63-2.06,4,4,0,0,1,.61-2.14,4.1,4.1,0,0,1,1.67-1.52,5,5,0,0,1,2.36-.56,5.12,5.12,0,0,1,2.38.55,4.1,4.1,0,0,1,1.67,1.52,4,4,0,0,1,.6,2.15,3.75,3.75,0,0,1-.61,2,4.77,4.77,0,0,1-1.7,1.57,4.73,4.73,0,0,1,2.18,1.73,4.49,4.49,0,0,1,.84,2.62,4.75,4.75,0,0,1-.67,2.52A4.54,4.54,0,0,1,338,342a6.59,6.59,0,0,1-5.54,0,4.73,4.73,0,0,1-1.91-1.74A4.81,4.81,0,0,1,329.84,337.75Z" transform="translate(-96.85 -1.79)"/><path class="cls-9" d="M347.59,342.36V328.24a7.15,7.15,0,0,1-1.66,1.09,9.82,9.82,0,0,1-2.15.86v-2.05a14,14,0,0,0,2.8-1.16,12.81,12.81,0,0,0,2.29-1.49h.79v16.87Z" transform="translate(-96.85 -1.79)"/><path class="cls-9" d="M366.68,338.39a3.28,3.28,0,0,0,.6,2.1,2,2,0,0,0,1.63.75,1.94,1.94,0,0,0,1.65-.78,3.54,3.54,0,0,0,.58-2.17,3.38,3.38,0,0,0-.58-2.13,1.92,1.92,0,0,0-1.59-.73,2,2,0,0,0-1.69.78A3.53,3.53,0,0,0,366.68,338.39Zm-1.63.1a4.65,4.65,0,0,1,1.09-3.24A3.71,3.71,0,0,1,369,334a3.48,3.48,0,0,1,2.74,1.11,5.2,5.2,0,0,1-.11,6.25,3.67,3.67,0,0,1-2.86,1.21,3.49,3.49,0,0,1-2.74-1.14A4.33,4.33,0,0,1,365.05,338.49Zm5-12.64-10.6,16.61H357.7l10.6-16.61Zm-13.28,4.06a3.3,3.3,0,0,0,.6,2.12,2,2,0,0,0,1.63.75,1.94,1.94,0,0,0,1.65-.78,3.54,3.54,0,0,0,.58-2.18,3.45,3.45,0,0,0-.57-2.12,1.9,1.9,0,0,0-1.6-.75,2,2,0,0,0-1.67.78A3.45,3.45,0,0,0,356.8,329.91Zm-1.64.11a4.57,4.57,0,0,1,1.09-3.22,3.72,3.72,0,0,1,2.91-1.2,3.49,3.49,0,0,1,2.74,1.1,4.4,4.4,0,0,1,1,3.06,4.53,4.53,0,0,1-1.09,3.16,3.67,3.67,0,0,1-2.89,1.22,3.5,3.5,0,0,1-2.72-1.13A4.25,4.25,0,0,1,355.16,330Z" transform="translate(-96.85 -1.79)"/></g><g class="cls-3"><path class="cls-9" d="M336.15,221.06a60.84,60.84,0,0,0-4.09,8.4,29.33,29.33,0,0,0-1.84,6.82h-2.17a28.87,28.87,0,0,1,1.86-6.64,62.48,62.48,0,0,1,3.93-8h-8.18v-1.84h10.49Z" transform="translate(-96.85 -1.79)"/><path class="cls-9" d="M340.37,224.78a3.91,3.91,0,0,0,.85,2.64,3.12,3.12,0,0,0,5.43-2.08,4.71,4.71,0,0,0-.88-2.94,2.89,2.89,0,0,0-4.52-.16A3.72,3.72,0,0,0,340.37,224.78Zm-1.2,9.26a5.84,5.84,0,0,0,2.94.79,4,4,0,0,0,3.44-1.75,8.65,8.65,0,0,0,1.22-5s0,0,0,0a3.79,3.79,0,0,1-3.65,2.07,4.56,4.56,0,0,1-3.44-1.43,5.15,5.15,0,0,1-1.37-3.71,5.56,5.56,0,0,1,1.49-4,5.13,5.13,0,0,1,3.87-1.56,4.47,4.47,0,0,1,3.85,1.94,9.62,9.62,0,0,1,1.39,5.63q0,4.58-1.79,7a5.8,5.8,0,0,1-5,2.46,6.83,6.83,0,0,1-2.94-.56Z" transform="translate(-96.85 -1.79)"/><path class="cls-9" d="M362.36,232.31a3.28,3.28,0,0,0,.6,2.1,2,2,0,0,0,1.63.75,1.94,1.94,0,0,0,1.65-.78,3.54,3.54,0,0,0,.58-2.17,3.33,3.33,0,0,0-.58-2.12,1.9,1.9,0,0,0-1.59-.74,2,2,0,0,0-1.69.78A3.53,3.53,0,0,0,362.36,232.31Zm-1.63.1a4.65,4.65,0,0,1,1.09-3.24,3.71,3.71,0,0,1,2.9-1.21,3.48,3.48,0,0,1,2.74,1.11,5.2,5.2,0,0,1-.11,6.25,3.67,3.67,0,0,1-2.86,1.21,3.49,3.49,0,0,1-2.74-1.14A4.33,4.33,0,0,1,360.73,232.41Zm5-12.64-10.6,16.61h-1.78L364,219.77Zm-13.28,4.06a3.3,3.3,0,0,0,.6,2.12,2,2,0,0,0,1.63.75,1.94,1.94,0,0,0,1.65-.78,3.54,3.54,0,0,0,.58-2.18,3.45,3.45,0,0,0-.57-2.12,1.9,1.9,0,0,0-1.6-.75,2,2,0,0,0-1.67.78A3.45,3.45,0,0,0,352.48,223.83Zm-1.64.11a4.57,4.57,0,0,1,1.09-3.22,3.72,3.72,0,0,1,2.91-1.2,3.49,3.49,0,0,1,2.74,1.1,4.4,4.4,0,0,1,1,3.06,4.56,4.56,0,0,1-1.09,3.17,3.67,3.67,0,0,1-2.89,1.21,3.5,3.5,0,0,1-2.72-1.13A4.25,4.25,0,0,1,350.84,223.94Z" transform="translate(-96.85 -1.79)"/></g><g class="cls-3"><path class="cls-9" d="M356.45,118.7a3.91,3.91,0,0,0,.85,2.64,3.12,3.12,0,0,0,5.43-2.08,4.71,4.71,0,0,0-.88-2.94,2.89,2.89,0,0,0-4.52-.16A3.72,3.72,0,0,0,356.45,118.7Zm-1.2,9.26a5.74,5.74,0,0,0,2.94.79,4,4,0,0,0,3.44-1.75,8.65,8.65,0,0,0,1.22-5s0,0-.05,0a3.79,3.79,0,0,1-3.65,2.07,4.52,4.52,0,0,1-3.44-1.43,5.15,5.15,0,0,1-1.37-3.71,5.56,5.56,0,0,1,1.49-4,5.13,5.13,0,0,1,3.87-1.56,4.47,4.47,0,0,1,3.85,1.94,9.62,9.62,0,0,1,1.39,5.63q0,4.58-1.79,7a5.8,5.8,0,0,1-5,2.46,6.83,6.83,0,0,1-2.94-.56Z" transform="translate(-96.85 -1.79)"/><path class="cls-9" d="M369.1,122.17q0,6.58,3.33,6.58t3.29-6.68c0-4.62-1.08-6.92-3.22-6.92S369.1,117.49,369.1,122.17Zm-2.13.1c0-2.92.48-5.12,1.45-6.62a4.69,4.69,0,0,1,4.19-2.24q5.25,0,5.25,8.46a11.44,11.44,0,0,1-1.48,6.39,4.68,4.68,0,0,1-4.14,2.21,4.39,4.39,0,0,1-3.89-2.1A11.11,11.11,0,0,1,367,122.27Z" transform="translate(-96.85 -1.79)"/><path class="cls-9" d="M391.16,126.23a3.28,3.28,0,0,0,.6,2.1,2,2,0,0,0,1.63.75,1.94,1.94,0,0,0,1.65-.78,3.54,3.54,0,0,0,.58-2.17A3.33,3.33,0,0,0,395,124a1.91,1.91,0,0,0-1.6-.74,2,2,0,0,0-1.68.78A3.53,3.53,0,0,0,391.16,126.23Zm-1.63.1a4.65,4.65,0,0,1,1.09-3.24,3.71,3.71,0,0,1,2.9-1.21,3.49,3.49,0,0,1,2.74,1.11,5.2,5.2,0,0,1-.11,6.25,3.67,3.67,0,0,1-2.86,1.21,3.49,3.49,0,0,1-2.74-1.14A4.33,4.33,0,0,1,389.53,126.33Zm5-12.64L384,130.3h-1.78l10.6-16.61Zm-13.28,4.06a3.3,3.3,0,0,0,.6,2.12,2,2,0,0,0,1.63.75,1.94,1.94,0,0,0,1.65-.78,3.54,3.54,0,0,0,.58-2.18,3.45,3.45,0,0,0-.57-2.12,1.9,1.9,0,0,0-1.6-.75,2,2,0,0,0-1.67.78A3.45,3.45,0,0,0,381.28,117.75Zm-1.64.11a4.61,4.61,0,0,1,1.08-3.22,3.76,3.76,0,0,1,2.92-1.2,3.49,3.49,0,0,1,2.74,1.1,4.4,4.4,0,0,1,1,3.06,4.56,4.56,0,0,1-1.09,3.17,3.67,3.67,0,0,1-2.89,1.21,3.5,3.5,0,0,1-2.72-1.13A4.25,4.25,0,0,1,379.64,117.86Z" transform="translate(-96.85 -1.79)"/></g><g class="cls-3"><path d="M553.52,445.68a6.1,6.1,0,0,0,3.82,1.31,4.09,4.09,0,0,0,2.71-.84,2.78,2.78,0,0,0,1-2.24q0-3.14-4.48-3.14h-1.38v-1.72h1.31q4,0,4-2.94c0-1.82-1-2.72-3-2.72a5.29,5.29,0,0,0-3.27,1.17v-2a7.36,7.36,0,0,1,3.78-.94,5,5,0,0,1,3.39,1.1,3.62,3.62,0,0,1,1.28,2.87,4,4,0,0,1-3.3,4.16v.05a4.36,4.36,0,0,1,2.82,1.26,3.64,3.64,0,0,1,1,2.67,4.48,4.48,0,0,1-1.6,3.59,6.36,6.36,0,0,1-4.27,1.36,7.24,7.24,0,0,1-3.78-.87Z" transform="translate(-96.85 -1.79)"/><path d="M567.24,442.83h5.36V435q-1.11,2-2.38,3.86C569.38,440.08,568.38,441.41,567.24,442.83Zm7.39-10.9v10.9h2.47v1.73h-2.47v3.88h-2v-3.88h-7.71v-1.63A55.31,55.31,0,0,0,569,437.6a49.54,49.54,0,0,0,3.43-5.67Z" transform="translate(-96.85 -1.79)"/><path d="M589.88,444.47a3.28,3.28,0,0,0,.6,2.1,2,2,0,0,0,1.63.75,1.94,1.94,0,0,0,1.65-.78,3.61,3.61,0,0,0,.58-2.17,3.44,3.44,0,0,0-.58-2.13,1.93,1.93,0,0,0-1.6-.73,2,2,0,0,0-1.68.78A3.51,3.51,0,0,0,589.88,444.47Zm-1.63.1a4.7,4.7,0,0,1,1.08-3.24,3.73,3.73,0,0,1,2.91-1.21,3.49,3.49,0,0,1,2.74,1.11,5.2,5.2,0,0,1-.11,6.25,3.68,3.68,0,0,1-2.87,1.21,3.48,3.48,0,0,1-2.73-1.14A4.33,4.33,0,0,1,588.25,444.57Zm5-12.64-10.6,16.61H580.9l10.6-16.61ZM580,436a3.3,3.3,0,0,0,.6,2.12,2,2,0,0,0,1.63.75,1.94,1.94,0,0,0,1.65-.78,3.6,3.6,0,0,0,.58-2.18,3.45,3.45,0,0,0-.57-2.12,1.91,1.91,0,0,0-1.61-.75,2,2,0,0,0-1.67.78A3.51,3.51,0,0,0,580,436Zm-1.64.11a4.61,4.61,0,0,1,1.08-3.22,3.74,3.74,0,0,1,2.92-1.2,3.5,3.5,0,0,1,2.74,1.1,4.4,4.4,0,0,1,1,3.06A4.53,4.53,0,0,1,585,439a3.69,3.69,0,0,1-2.89,1.22,3.54,3.54,0,0,1-2.73-1.13A4.29,4.29,0,0,1,578.36,436.1Z" transform="translate(-96.85 -1.79)"/></g><g class="cls-3"><path d="M598.15,342.36V328.24a7.15,7.15,0,0,1-1.66,1.09,10.08,10.08,0,0,1-2.16.86v-2.05a13.86,13.86,0,0,0,2.81-1.16,13.19,13.19,0,0,0,2.29-1.49h.79v16.87Z" transform="translate(-96.85 -1.79)"/><path d="M608,330.86a3.86,3.86,0,0,0,.85,2.64,3.24,3.24,0,0,0,4.54.08,2.94,2.94,0,0,0,.89-2.16,4.78,4.78,0,0,0-.88-2.94,2.77,2.77,0,0,0-2.32-1.17,2.82,2.82,0,0,0-2.21,1A3.77,3.77,0,0,0,608,330.86Zm-1.2,9.26a5.81,5.81,0,0,0,2.94.79,3.93,3.93,0,0,0,3.43-1.75,8.57,8.57,0,0,0,1.22-5s0,0,0,0a3.79,3.79,0,0,1-3.65,2.07,4.58,4.58,0,0,1-3.45-1.43,5.14,5.14,0,0,1-1.36-3.71,5.56,5.56,0,0,1,1.49-4,5.13,5.13,0,0,1,3.87-1.56,4.49,4.49,0,0,1,3.85,1.94,9.6,9.6,0,0,1,1.38,5.63c0,3.05-.59,5.39-1.79,7a5.77,5.77,0,0,1-4.95,2.46,6.83,6.83,0,0,1-2.94-.56Z" transform="translate(-96.85 -1.79)"/><path d="M630,338.39a3.28,3.28,0,0,0,.6,2.1,2,2,0,0,0,1.63.75,1.94,1.94,0,0,0,1.65-.78,3.61,3.61,0,0,0,.58-2.17,3.44,3.44,0,0,0-.58-2.13,1.93,1.93,0,0,0-1.6-.73,2,2,0,0,0-1.68.78A3.53,3.53,0,0,0,630,338.39Zm-1.63.1a4.7,4.7,0,0,1,1.08-3.24,3.73,3.73,0,0,1,2.91-1.21,3.49,3.49,0,0,1,2.74,1.11,5.2,5.2,0,0,1-.11,6.25,3.68,3.68,0,0,1-2.87,1.21,3.48,3.48,0,0,1-2.73-1.14A4.33,4.33,0,0,1,628.33,338.49Zm5-12.64-10.6,16.61H621l10.6-16.61Zm-13.28,4.06a3.3,3.3,0,0,0,.6,2.12,2,2,0,0,0,1.63.75A1.94,1.94,0,0,0,624,332a3.6,3.6,0,0,0,.58-2.18,3.45,3.45,0,0,0-.57-2.12,1.91,1.91,0,0,0-1.61-.75,2,2,0,0,0-1.67.78A3.51,3.51,0,0,0,620.08,329.91Zm-1.64.11a4.61,4.61,0,0,1,1.08-3.22,3.74,3.74,0,0,1,2.92-1.2,3.5,3.5,0,0,1,2.74,1.1,4.4,4.4,0,0,1,1,3.06,4.58,4.58,0,0,1-1.09,3.16,3.69,3.69,0,0,1-2.89,1.22,3.54,3.54,0,0,1-2.73-1.13A4.29,4.29,0,0,1,618.44,330Z" transform="translate(-96.85 -1.79)"/></g><g class="cls-3"><path d="M596.84,224.1A2.7,2.7,0,0,0,596,222a3.26,3.26,0,0,0-2.29-.76,4.6,4.6,0,0,0-2.07.52,7.24,7.24,0,0,0-1.95,1.49v-2a5.79,5.79,0,0,1,1.84-1.29,6,6,0,0,1,2.42-.45,5.25,5.25,0,0,1,3.6,1.2,4.1,4.1,0,0,1,1.36,3.25,5.87,5.87,0,0,1-.83,3.15,10.11,10.11,0,0,1-2.87,2.73c-1.37,1-2.3,1.63-2.76,2a4.15,4.15,0,0,0-1,1.19,3.13,3.13,0,0,0-.27,1.37h8.2v1.86H589v-.82a6.69,6.69,0,0,1,.39-2.43,6.08,6.08,0,0,1,1.29-1.94,18.05,18.05,0,0,1,2.79-2.26,11,11,0,0,0,2.65-2.4A4,4,0,0,0,596.84,224.1Z" transform="translate(-96.85 -1.79)"/><path d="M606.55,236.28V222.16a7.15,7.15,0,0,1-1.66,1.09,10.08,10.08,0,0,1-2.16.86v-2.05a13.86,13.86,0,0,0,2.81-1.16,13.19,13.19,0,0,0,2.29-1.49h.79v16.87Z" transform="translate(-96.85 -1.79)"/><path d="M625.64,232.31a3.28,3.28,0,0,0,.6,2.1,2,2,0,0,0,1.63.75,1.94,1.94,0,0,0,1.65-.78,3.61,3.61,0,0,0,.58-2.17,3.39,3.39,0,0,0-.58-2.12,1.91,1.91,0,0,0-1.6-.74,2,2,0,0,0-1.68.78A3.53,3.53,0,0,0,625.64,232.31Zm-1.63.1a4.7,4.7,0,0,1,1.08-3.24A3.73,3.73,0,0,1,628,228a3.49,3.49,0,0,1,2.74,1.11,5.2,5.2,0,0,1-.11,6.25,3.68,3.68,0,0,1-2.87,1.21,3.48,3.48,0,0,1-2.73-1.14A4.33,4.33,0,0,1,624,232.41Zm5-12.64-10.6,16.61h-1.78l10.6-16.61Zm-13.28,4.06a3.3,3.3,0,0,0,.6,2.12,2,2,0,0,0,1.63.75,1.94,1.94,0,0,0,1.65-.78,3.6,3.6,0,0,0,.58-2.18,3.45,3.45,0,0,0-.57-2.12,1.91,1.91,0,0,0-1.61-.75,2,2,0,0,0-1.67.78A3.51,3.51,0,0,0,615.76,223.83Zm-1.64.11a4.61,4.61,0,0,1,1.08-3.22,3.74,3.74,0,0,1,2.92-1.2,3.5,3.5,0,0,1,2.74,1.1,4.4,4.4,0,0,1,1,3.06,4.56,4.56,0,0,1-1.09,3.17,3.68,3.68,0,0,1-2.89,1.21,3.54,3.54,0,0,1-2.73-1.13A4.29,4.29,0,0,1,614.12,223.94Z" transform="translate(-96.85 -1.79)"/></g><g class="cls-3"><path d="M622.63,130.2V116.08a7.15,7.15,0,0,1-1.66,1.09,10.08,10.08,0,0,1-2.16.86v-2a13.86,13.86,0,0,0,2.81-1.16,13.19,13.19,0,0,0,2.29-1.49h.79V130.2Z" transform="translate(-96.85 -1.79)"/><path d="M632.37,122.17c0,4.39,1.12,6.58,3.34,6.58s3.28-2.23,3.28-6.68c0-4.62-1.07-6.92-3.22-6.92S632.37,117.49,632.37,122.17Zm-2.13.1a12.36,12.36,0,0,1,1.45-6.62,4.71,4.71,0,0,1,4.2-2.24q5.25,0,5.25,8.46a11.52,11.52,0,0,1-1.48,6.39,4.69,4.69,0,0,1-4.14,2.21,4.4,4.4,0,0,1-3.9-2.1A11.11,11.11,0,0,1,630.24,122.27Z" transform="translate(-96.85 -1.79)"/><path d="M654.44,126.23a3.28,3.28,0,0,0,.6,2.1,2,2,0,0,0,1.63.75,1.94,1.94,0,0,0,1.65-.78,3.61,3.61,0,0,0,.58-2.17,3.39,3.39,0,0,0-.58-2.12,1.91,1.91,0,0,0-1.6-.74,2,2,0,0,0-1.68.78A3.53,3.53,0,0,0,654.44,126.23Zm-1.63.1a4.7,4.7,0,0,1,1.08-3.24,3.73,3.73,0,0,1,2.91-1.21,3.51,3.51,0,0,1,2.74,1.11,5.2,5.2,0,0,1-.11,6.25,3.68,3.68,0,0,1-2.87,1.21,3.48,3.48,0,0,1-2.73-1.14A4.33,4.33,0,0,1,652.81,126.33Zm5-12.64-10.6,16.61h-1.78l10.6-16.61Zm-13.28,4.06a3.3,3.3,0,0,0,.6,2.12,2,2,0,0,0,1.63.75,1.94,1.94,0,0,0,1.65-.78,3.6,3.6,0,0,0,.58-2.18,3.45,3.45,0,0,0-.57-2.12,1.91,1.91,0,0,0-1.61-.75,2,2,0,0,0-1.67.78A3.51,3.51,0,0,0,644.56,117.75Zm-1.64.11a4.61,4.61,0,0,1,1.08-3.22,3.73,3.73,0,0,1,2.92-1.2,3.5,3.5,0,0,1,2.74,1.1,4.4,4.4,0,0,1,1,3.06,4.6,4.6,0,0,1-1.09,3.17,3.68,3.68,0,0,1-2.89,1.21,3.52,3.52,0,0,1-2.73-1.13A4.29,4.29,0,0,1,642.92,117.86Z" transform="translate(-96.85 -1.79)"/></g><g class="cls-3"><line class="cls-10" x1="41.4" y1="491.29" x2="41.4" y2="66.96"/><line class="cls-10" x1="567.94" y1="491.29" x2="567.94" y2="66.96"/></g><g class="cls-3"><path d="M114.72,443.63a8.93,8.93,0,0,1-3.88.72,6.52,6.52,0,0,1-4.88-1.84,6.69,6.69,0,0,1-1.8-4.9,7.2,7.2,0,0,1,2-5.28,7,7,0,0,1,5.2-2.05,9.48,9.48,0,0,1,3.34.52v2.8a6.06,6.06,0,0,0-3.13-.81,4.17,4.17,0,0,0-3.19,1.28,4.7,4.7,0,0,0-1.19,3.33,4.52,4.52,0,0,0,1.13,3.22,4,4,0,0,0,3.07,1.22,6.38,6.38,0,0,0,3.31-.88Z" transform="translate(-96.85 -1.79)"/><path d="M124.19,438.76,122.64,434a5.14,5.14,0,0,1-.21-1.18h-.08a5,5,0,0,1-.23,1.15l-1.56,4.75Zm4.87,5.36h-3.17l-1-3.12h-4.95l-1,3.12h-3.15l5-13.61h3.41Z" transform="translate(-96.85 -1.79)"/></g><g class="cls-3"><path d="M112.43,332.68,110.88,328a5.14,5.14,0,0,1-.21-1.18h-.08a5,5,0,0,1-.23,1.15l-1.56,4.75ZM117.3,338h-3.17l-1-3.12h-5l-1,3.12H104l5-13.61h3.41Z" transform="translate(-96.85 -1.79)"/><path d="M128.61,326l-7,9.67h6.95V338H117.73v-1.62l7.08-9.62h-6.56v-2.37h10.36Z" transform="translate(-96.85 -1.79)"/></g><g class="cls-3"><path d="M109,232h-3l-5.76-8.8a9.71,9.71,0,0,1-.65-1.11h0c0,.47.08,1.19.08,2.17V232H96.85V218.35H100l5.55,8.56c.37.56.6.92.68,1.08h.05a12.68,12.68,0,0,1-.09-1.88v-7.76H109Z" transform="translate(-96.85 -1.79)"/><path d="M124.67,232V223.7c0-.76,0-1.72.11-2.87h-.07c-.18.87-.32,1.45-.42,1.75L120.93,232h-2.31l-3.4-9.3c-.08-.22-.22-.83-.43-1.83h-.08c.08,1.14.12,2.28.12,3.43V232h-2.62V218.35h4.22l2.93,8.22a9.75,9.75,0,0,1,.5,1.92h.06a17.08,17.08,0,0,1,.57-1.93l2.94-8.21h4.1V232Z" transform="translate(-96.85 -1.79)"/></g><g class="cls-3"><path d="M116.08,114.64H112.2v11.24h-2.91V114.64h-3.87v-2.37h10.66Z" transform="translate(-96.85 -1.79)"/><path d="M128.9,125.88h-3.45L123,121.36a4.07,4.07,0,0,1-.27-.88h0a7.41,7.41,0,0,1-.32.91l-2.45,4.49h-3.47l4.36-6.81-4-6.8h3.53l2,4.16a7.83,7.83,0,0,1,.42,1.13h0q.19-.56.45-1.17l2.24-4.12h3.24L124.68,119Z" transform="translate(-96.85 -1.79)"/></g><g class="cls-3"><path d="M127.88,513.31q0,4.71,2,4.71c1.32,0,2-1.62,2-4.85s-.64-4.87-1.92-4.87S127.88,510,127.88,513.31Zm-2.88.07a9.46,9.46,0,0,1,1.3-5.4,4.31,4.31,0,0,1,3.76-1.86c3.13,0,4.69,2.32,4.69,6.94a9.28,9.28,0,0,1-1.27,5.28,4.21,4.21,0,0,1-3.68,1.85Q125,520.19,125,513.38Z" transform="translate(-96.85 -1.79)"/><path d="M146.55,516.65c0,1.27.46,1.9,1.4,1.9s1.4-.65,1.4-2a2.3,2.3,0,0,0-.37-1.41,1.17,1.17,0,0,0-1-.5C147,514.67,146.55,515.33,146.55,516.65Zm-1.92.1a3.73,3.73,0,0,1,.94-2.68,3.25,3.25,0,0,1,2.5-1,3.05,3.05,0,0,1,2.35.9,3.52,3.52,0,0,1,.84,2.52,3.74,3.74,0,0,1-.94,2.66,3.25,3.25,0,0,1-2.49,1,3,3,0,0,1-2.33-.94A3.46,3.46,0,0,1,144.63,516.75Zm4.61-10.4L140.39,520h-2.2L147,506.35Zm-11.11,3.4q0,1.89,1.38,1.89c1,0,1.42-.66,1.42-2s-.45-1.91-1.36-1.91S138.13,508.43,138.13,509.75Zm-1.94.1a3.78,3.78,0,0,1,.93-2.68,3.24,3.24,0,0,1,2.51-1,3,3,0,0,1,2.35.91,3.59,3.59,0,0,1,.84,2.52,3.66,3.66,0,0,1-.94,2.64,3.2,3.2,0,0,1-2.48,1,3,3,0,0,1-2.33-.93A3.42,3.42,0,0,1,136.19,509.85Z" transform="translate(-96.85 -1.79)"/></g><g class="cls-3"><path d="M228.37,517.59h5.77V520h-9v-1a4.7,4.7,0,0,1,.39-1.94,6.17,6.17,0,0,1,1.07-1.64,13.3,13.3,0,0,1,2.13-1.78,8.25,8.25,0,0,0,1.84-1.75,2.7,2.7,0,0,0,.53-1.61c0-1.22-.67-1.83-2-1.83a5.08,5.08,0,0,0-3.36,1.4v-2.53a7.31,7.31,0,0,1,4-1.15,4.72,4.72,0,0,1,3.22,1,3.63,3.63,0,0,1,1.19,2.87,4.9,4.9,0,0,1-.34,1.84,5.28,5.28,0,0,1-1,1.54,12.42,12.42,0,0,1-2.08,1.73,12.4,12.4,0,0,0-1.85,1.52A1.53,1.53,0,0,0,228.37,517.59Z" transform="translate(-96.85 -1.79)"/><path d="M238.75,513.31c0,3.14.68,4.71,2,4.71s2-1.62,2-4.85-.64-4.87-1.92-4.87S238.75,510,238.75,513.31Zm-2.87.07a9.46,9.46,0,0,1,1.3-5.4,4.31,4.31,0,0,1,3.76-1.86c3.13,0,4.69,2.32,4.69,6.94a9.28,9.28,0,0,1-1.27,5.28,4.21,4.21,0,0,1-3.68,1.85Q235.88,520.19,235.88,513.38Z" transform="translate(-96.85 -1.79)"/><path d="M257.43,516.65c0,1.27.46,1.9,1.39,1.9s1.41-.65,1.41-2a2.3,2.3,0,0,0-.37-1.41,1.17,1.17,0,0,0-1-.5C257.91,514.67,257.43,515.33,257.43,516.65Zm-1.93.1a3.77,3.77,0,0,1,.94-2.68,3.28,3.28,0,0,1,2.51-1,3.07,3.07,0,0,1,2.35.9,3.52,3.52,0,0,1,.84,2.52,3.74,3.74,0,0,1-.94,2.66,3.25,3.25,0,0,1-2.49,1,3,3,0,0,1-2.33-.94A3.46,3.46,0,0,1,255.5,516.75Zm4.62-10.4L251.27,520h-2.2l8.82-13.62ZM249,509.75c0,1.26.47,1.89,1.39,1.89s1.42-.66,1.42-2-.45-1.91-1.36-1.91S249,508.43,249,509.75Zm-1.93.1a3.78,3.78,0,0,1,.93-2.68,3.24,3.24,0,0,1,2.51-1,3,3,0,0,1,2.35.91,3.58,3.58,0,0,1,.83,2.52,3.7,3.7,0,0,1-.93,2.64,3.22,3.22,0,0,1-2.48,1,3,3,0,0,1-2.33-.93A3.42,3.42,0,0,1,247.07,509.85Z" transform="translate(-96.85 -1.79)"/></g><g class="cls-3"><path d="M332.32,515h3.56v-5a19.46,19.46,0,0,1-1.2,1.92C334.15,512.67,333.37,513.69,332.32,515Zm6.15-8.64V515h1.92v2.07h-1.92V520h-2.59v-2.9h-6.07V515a48.26,48.26,0,0,0,3.54-4.47,28,28,0,0,0,2.49-4.16Z" transform="translate(-96.85 -1.79)"/><path d="M344.11,513.31q0,4.71,2,4.71t2-4.85q0-4.87-1.92-4.87T344.11,513.31Zm-2.87.07a9.38,9.38,0,0,1,1.3-5.4,4.31,4.31,0,0,1,3.76-1.86c3.13,0,4.69,2.32,4.69,6.94a9.28,9.28,0,0,1-1.27,5.28,4.21,4.21,0,0,1-3.68,1.85Q341.24,520.19,341.24,513.38Z" transform="translate(-96.85 -1.79)"/><path d="M362.79,516.65c0,1.27.46,1.9,1.39,1.9s1.41-.65,1.41-2a2.37,2.37,0,0,0-.37-1.41,1.18,1.18,0,0,0-1-.5C363.26,514.67,362.79,515.33,362.79,516.65Zm-1.93.1a3.77,3.77,0,0,1,.94-2.68,3.27,3.27,0,0,1,2.51-1,3.07,3.07,0,0,1,2.35.9,3.52,3.52,0,0,1,.84,2.52,3.74,3.74,0,0,1-.94,2.66,3.25,3.25,0,0,1-2.49,1,3,3,0,0,1-2.33-.94A3.46,3.46,0,0,1,360.86,516.75Zm4.61-10.4L356.63,520h-2.21l8.83-13.62Zm-11.11,3.4c0,1.26.47,1.89,1.39,1.89s1.42-.66,1.42-2-.46-1.91-1.36-1.91S354.36,508.43,354.36,509.75Zm-1.93.1a3.78,3.78,0,0,1,.93-2.68,3.24,3.24,0,0,1,2.51-1,3,3,0,0,1,2.34.91,3.59,3.59,0,0,1,.84,2.52,3.7,3.7,0,0,1-.93,2.64,3.22,3.22,0,0,1-2.48,1,3.07,3.07,0,0,1-2.34-.93A3.46,3.46,0,0,1,352.43,509.85Z" transform="translate(-96.85 -1.79)"/></g><g class="cls-3"><path d="M438.51,515.49a2.94,2.94,0,0,0,.53,1.79,1.69,1.69,0,0,0,2.75.06,2.74,2.74,0,0,0,.5-1.7c0-1.52-.62-2.29-1.88-2.29A1.72,1.72,0,0,0,439,514,2.24,2.24,0,0,0,438.51,515.49Zm5.62-6.6a4.51,4.51,0,0,0-2.26-.59,3,3,0,0,0-2.51,1.23,5.14,5.14,0,0,0-.95,3.2h0a3.24,3.24,0,0,1,2.89-1.5,3.4,3.4,0,0,1,2.72,1.18,4.52,4.52,0,0,1,1,3.05,4.65,4.65,0,0,1-1.31,3.39,4.45,4.45,0,0,1-3.35,1.34,4.19,4.19,0,0,1-3.58-1.68,7.72,7.72,0,0,1-1.24-4.62,9.17,9.17,0,0,1,1.61-5.61,5.29,5.29,0,0,1,4.49-2.16,6.6,6.6,0,0,1,2.43.37Z" transform="translate(-96.85 -1.79)"/><path d="M449.23,513.31q0,4.71,2,4.71t2-4.85q0-4.87-1.92-4.87T449.23,513.31Zm-2.87.07a9.38,9.38,0,0,1,1.3-5.4,4.31,4.31,0,0,1,3.76-1.86c3.13,0,4.69,2.32,4.69,6.94a9.28,9.28,0,0,1-1.27,5.28,4.21,4.21,0,0,1-3.68,1.85Q446.36,520.19,446.36,513.38Z" transform="translate(-96.85 -1.79)"/><path d="M467.91,516.65c0,1.27.46,1.9,1.39,1.9s1.41-.65,1.41-2a2.3,2.3,0,0,0-.38-1.41,1.15,1.15,0,0,0-1-.5C468.38,514.67,467.91,515.33,467.91,516.65Zm-1.93.1a3.77,3.77,0,0,1,.94-2.68,3.27,3.27,0,0,1,2.51-1,3,3,0,0,1,2.34.9,3.52,3.52,0,0,1,.84,2.52,3.7,3.7,0,0,1-.94,2.66,3.22,3.22,0,0,1-2.48,1,3,3,0,0,1-2.33-.94A3.42,3.42,0,0,1,466,516.75Zm4.61-10.4L461.75,520h-2.21l8.83-13.62Zm-11.11,3.4c0,1.26.46,1.89,1.39,1.89s1.41-.66,1.41-2-.45-1.91-1.35-1.91S459.48,508.43,459.48,509.75Zm-1.93.1a3.78,3.78,0,0,1,.93-2.68,3.22,3.22,0,0,1,2.5-1,3,3,0,0,1,2.35.91,3.59,3.59,0,0,1,.84,2.52,3.7,3.7,0,0,1-.93,2.64,3.22,3.22,0,0,1-2.48,1,3.07,3.07,0,0,1-2.34-.93A3.46,3.46,0,0,1,457.55,509.85Z" transform="translate(-96.85 -1.79)"/></g><g class="cls-3"><path d="M544,510a1.88,1.88,0,0,0,.46,1.28,1.53,1.53,0,0,0,2.31,0,1.81,1.81,0,0,0,.48-1.29,2,2,0,0,0-.46-1.31,1.47,1.47,0,0,0-1.17-.53,1.44,1.44,0,0,0-1.17.53A2,2,0,0,0,544,510Zm-.42,6a2.12,2.12,0,0,0,.54,1.52,2.13,2.13,0,0,0,2.9,0,2.09,2.09,0,0,0,.56-1.52,2,2,0,0,0-.57-1.48,2.05,2.05,0,0,0-2.88,0A2.07,2.07,0,0,0,543.59,516Zm-2.84.25a3.45,3.45,0,0,1,.68-2.1,3.93,3.93,0,0,1,2-1.36,4.13,4.13,0,0,1-1.6-1.31,3,3,0,0,1-.57-1.78,3.28,3.28,0,0,1,.56-1.85,3.79,3.79,0,0,1,1.56-1.3,5.22,5.22,0,0,1,2.24-.47,5.45,5.45,0,0,1,2.25.46,3.76,3.76,0,0,1,1.58,1.29,3.27,3.27,0,0,1,.56,1.84,2.86,2.86,0,0,1-.62,1.76,4.14,4.14,0,0,1-1.66,1.29,4.22,4.22,0,0,1,2,1.36,3.43,3.43,0,0,1,.71,2.15,3.49,3.49,0,0,1-1.34,2.82,6.13,6.13,0,0,1-7,0A3.46,3.46,0,0,1,540.75,516.29Z" transform="translate(-96.85 -1.79)"/><path d="M554.59,513.31q0,4.71,2,4.71t2-4.85q0-4.87-1.92-4.87T554.59,513.31Zm-2.87.07A9.38,9.38,0,0,1,553,508a4.31,4.31,0,0,1,3.76-1.86c3.13,0,4.69,2.32,4.69,6.94a9.36,9.36,0,0,1-1.27,5.28,4.21,4.21,0,0,1-3.68,1.85Q551.72,520.19,551.72,513.38Z" transform="translate(-96.85 -1.79)"/><path d="M573.26,516.65c0,1.27.47,1.9,1.4,1.9s1.41-.65,1.41-2a2.3,2.3,0,0,0-.38-1.41,1.16,1.16,0,0,0-1-.5Q573.26,514.67,573.26,516.65Zm-1.92.1a3.73,3.73,0,0,1,.94-2.68,3.26,3.26,0,0,1,2.5-1,3.05,3.05,0,0,1,2.35.9,3.52,3.52,0,0,1,.84,2.52,3.7,3.7,0,0,1-.94,2.66,3.22,3.22,0,0,1-2.48,1,3,3,0,0,1-2.33-.94A3.42,3.42,0,0,1,571.34,516.75Zm4.61-10.4L567.11,520H564.9l8.83-13.62Zm-11.11,3.4c0,1.26.46,1.89,1.39,1.89s1.41-.66,1.41-2-.45-1.91-1.35-1.91S564.84,508.43,564.84,509.75Zm-1.93.1a3.78,3.78,0,0,1,.93-2.68,3.22,3.22,0,0,1,2.5-1,3,3,0,0,1,2.35.91,3.59,3.59,0,0,1,.84,2.52,3.7,3.7,0,0,1-.93,2.64,3.23,3.23,0,0,1-2.49,1,3,3,0,0,1-2.33-.93A3.46,3.46,0,0,1,562.91,509.85Z" transform="translate(-96.85 -1.79)"/></g><g class="cls-3"><path d="M647.47,506.05V520h-2.86V509.25a5.06,5.06,0,0,1-1.44.82,6.81,6.81,0,0,1-1.68.45v-2.43a12.68,12.68,0,0,0,4.17-2Z" transform="translate(-96.85 -1.79)"/><path d="M654.43,513.31q0,4.71,2,4.71t2-4.85q0-4.87-1.93-4.87T654.43,513.31Zm-2.87.07a9.38,9.38,0,0,1,1.3-5.4,4.3,4.3,0,0,1,3.76-1.86c3.12,0,4.69,2.32,4.69,6.94a9.28,9.28,0,0,1-1.28,5.28,4.18,4.18,0,0,1-3.68,1.85Q651.56,520.19,651.56,513.38Z" transform="translate(-96.85 -1.79)"/><path d="M665.47,513.31q0,4.71,2,4.71t2-4.85q0-4.87-1.93-4.87T665.47,513.31Zm-2.87.07a9.38,9.38,0,0,1,1.3-5.4,4.3,4.3,0,0,1,3.76-1.86c3.12,0,4.69,2.32,4.69,6.94a9.28,9.28,0,0,1-1.28,5.28,4.18,4.18,0,0,1-3.68,1.85Q662.61,520.19,662.6,513.38Z" transform="translate(-96.85 -1.79)"/><path d="M684.14,516.65c0,1.27.47,1.9,1.4,1.9s1.41-.65,1.41-2a2.3,2.3,0,0,0-.38-1.41,1.16,1.16,0,0,0-1-.5Q684.14,514.67,684.14,516.65Zm-1.92.1a3.73,3.73,0,0,1,.94-2.68,3.26,3.26,0,0,1,2.5-1,3.05,3.05,0,0,1,2.35.9,3.52,3.52,0,0,1,.84,2.52,3.7,3.7,0,0,1-.94,2.66,3.22,3.22,0,0,1-2.48,1,3,3,0,0,1-2.33-.94A3.42,3.42,0,0,1,682.22,516.75Zm4.61-10.4L678,520h-2.21l8.83-13.62Zm-11.11,3.4c0,1.26.46,1.89,1.39,1.89s1.41-.66,1.41-2-.45-1.91-1.35-1.91S675.72,508.43,675.72,509.75Zm-1.93.1a3.82,3.82,0,0,1,.92-2.68,3.25,3.25,0,0,1,2.51-1,3,3,0,0,1,2.35.91,3.59,3.59,0,0,1,.84,2.52,3.7,3.7,0,0,1-.93,2.64,3.23,3.23,0,0,1-2.49,1,3,3,0,0,1-2.33-.93A3.46,3.46,0,0,1,673.79,509.85Z" transform="translate(-96.85 -1.79)"/></g><g class="cls-3"><path d="M392.35,566.91a14.5,14.5,0,0,1-3.68-10.07,15.42,15.42,0,0,1,3.68-10.19h2.82a16.39,16.39,0,0,0-3.5,10.19,15.88,15.88,0,0,0,3.52,10.07Z" transform="translate(-96.85 -1.79)"/><path d="M401,557.82q-1.86.24-1.86,1.68a1.37,1.37,0,0,0,.45,1.07,1.76,1.76,0,0,0,1.22.4,2.29,2.29,0,0,0,1.74-.74,2.68,2.68,0,0,0,.68-1.86v-.84Zm-3.89-5.74a7.4,7.4,0,0,1,2.14-.72,11.15,11.15,0,0,1,2.28-.28q4.95,0,4.95,5v7.12h-3.27v-1.72h-.05a3.86,3.86,0,0,1-3.52,2,3.71,3.71,0,0,1-2.68-1,3.38,3.38,0,0,1-1-2.59c0-2.26,1.34-3.58,4-3.95l3.24-.43c0-1.38-.72-2.06-2.14-2.06a6.85,6.85,0,0,0-4,1.28Z" transform="translate(-96.85 -1.79)"/><path d="M408.2,566.91a15.85,15.85,0,0,0,3.54-10.07,16.38,16.38,0,0,0-3.54-10.19H411a15.36,15.36,0,0,1,3.72,10.19A14.51,14.51,0,0,1,411,566.91Z" transform="translate(-96.85 -1.79)"/></g><g class="cls-3"><rect class="cls-11" x="330.84" y="0.24" width="277.89" height="60.48"/><rect class="cls-12" x="330.84" y="0.24" width="277.89" height="60.48"/></g><g class="cls-3"><rect class="cls-7" x="339.23" y="8.64" width="41.02" height="14.88"/><rect class="cls-8" x="339.23" y="8.64" width="41.02" height="14.88"/></g><g class="cls-3"><path d="M493.05,12.28v5.38h2.32a3.05,3.05,0,0,0,2.19-.79,2.68,2.68,0,0,0,.84-2.06,2.31,2.31,0,0,0-.77-1.86,3.27,3.27,0,0,0-2.23-.67Zm9.16,13.52h-2.32l-2.53-4.23A6,6,0,0,0,496,19.84a2.52,2.52,0,0,0-1.5-.46h-1.42V25.8h-2V10.56h4.65a5.23,5.23,0,0,1,3.48,1.07,3.74,3.74,0,0,1,1.26,3q0,3.16-3.39,4.11v.05a3.11,3.11,0,0,1,1.09.76,11.53,11.53,0,0,1,1.19,1.68Z" transform="translate(-96.85 -1.79)"/><path d="M511,19.3a3.41,3.41,0,0,0-.7-2.28,2.39,2.39,0,0,0-1.93-.8,2.71,2.71,0,0,0-2,.85,4,4,0,0,0-1,2.23Zm1.93,1.55h-7.61a3.91,3.91,0,0,0,.95,2.69,3.34,3.34,0,0,0,2.53.95,5.36,5.36,0,0,0,3.35-1.17V25a6.4,6.4,0,0,1-3.8,1,4.68,4.68,0,0,1-3.69-1.49,6.06,6.06,0,0,1-1.32-4.15,6,6,0,0,1,1.45-4.13,4.65,4.65,0,0,1,3.6-1.62A4.21,4.21,0,0,1,511.7,16a5.67,5.67,0,0,1,1.2,3.85Z" transform="translate(-96.85 -1.79)"/><path d="M524.75,25.8h-1.91V19.61c0-2.24-.82-3.36-2.45-3.36a2.65,2.65,0,0,0-2.09.95,3.55,3.55,0,0,0-.82,2.39V25.8h-1.92V14.92h1.92v1.8h0a3.93,3.93,0,0,1,3.57-2.06,3.29,3.29,0,0,1,2.73,1.15,5.17,5.17,0,0,1,.93,3.34Z" transform="translate(-96.85 -1.79)"/><path d="M535,19.3a3.41,3.41,0,0,0-.7-2.28,2.39,2.39,0,0,0-1.93-.8,2.71,2.71,0,0,0-2,.85,4,4,0,0,0-1.05,2.23Zm1.93,1.55h-7.61a3.91,3.91,0,0,0,1,2.69,3.34,3.34,0,0,0,2.53.95,5.36,5.36,0,0,0,3.35-1.17V25a6.4,6.4,0,0,1-3.8,1,4.68,4.68,0,0,1-3.69-1.49,6.06,6.06,0,0,1-1.32-4.15,6,6,0,0,1,1.45-4.13,4.65,4.65,0,0,1,3.6-1.62A4.21,4.21,0,0,1,535.7,16a5.67,5.67,0,0,1,1.2,3.85Z" transform="translate(-96.85 -1.79)"/><path d="M553.5,14.92,550.25,25.8h-2l-2.16-7.64a5.5,5.5,0,0,1-.18-1h0a4.38,4.38,0,0,1-.22,1l-2.35,7.66h-1.94l-3.27-10.88h2L542.26,23a5.2,5.2,0,0,1,.15,1h.08a4.93,4.93,0,0,1,.18-1l2.35-8h1.78L549.08,23a6.7,6.7,0,0,1,.16,1h.08a5.55,5.55,0,0,1,.18-1l2.13-8.07Z" transform="translate(-96.85 -1.79)"/><path d="M558.88,20.68a3.33,3.33,0,0,0-1.85.67,1.87,1.87,0,0,0-.5,1.38,1.62,1.62,0,0,0,.55,1.27,2.09,2.09,0,0,0,1.45.49,2.71,2.71,0,0,0,2.08-.89,3.17,3.17,0,0,0,.82-2.22v-1Zm-3.23-5a7,7,0,0,1,3.75-1q3.93,0,3.93,4.13v7h-1.9V24.12h0a4,4,0,0,1-5.86,1.08,3,3,0,0,1-.93-2.31c0-2,1.2-3.22,3.61-3.56l3.23-.45c0-1.78-.74-2.66-2.21-2.66a5.51,5.51,0,0,0-3.57,1.31Z" transform="translate(-96.85 -1.79)"/><path d="M568.35,21.32a3.14,3.14,0,0,0,.86,2.23,3,3,0,0,0,4.54-.27,5.43,5.43,0,0,0,.87-3.27,4.3,4.3,0,0,0-.81-2.74,2.64,2.64,0,0,0-2.2-1,3,3,0,0,0-2.34,1,3.69,3.69,0,0,0-.92,2.58Zm0,2.94V25.8h-1.92V9.69h1.92V16.8h0a4.11,4.11,0,0,1,3.74-2.14,4,4,0,0,1,3.25,1.44A5.93,5.93,0,0,1,576.6,20a6.68,6.68,0,0,1-1.35,4.39,4.48,4.48,0,0,1-3.61,1.62,3.57,3.57,0,0,1-3.24-1.79Z" transform="translate(-96.85 -1.79)"/><ellipse cx="483.5" cy="15.95" rx="1.36" ry="11.39"/><path d="M591.61,19.3a3.47,3.47,0,0,0-.7-2.28,2.39,2.39,0,0,0-1.94-.8,2.7,2.7,0,0,0-2,.85,4,4,0,0,0-1.06,2.23Zm1.93,1.55h-7.62a4,4,0,0,0,1,2.69,3.34,3.34,0,0,0,2.53.95,5.36,5.36,0,0,0,3.35-1.17V25a6.44,6.44,0,0,1-3.81,1,4.68,4.68,0,0,1-3.68-1.49A6.06,6.06,0,0,1,584,20.41a6,6,0,0,1,1.45-4.13,4.65,4.65,0,0,1,3.6-1.62A4.21,4.21,0,0,1,592.34,16a5.67,5.67,0,0,1,1.2,3.85Z" transform="translate(-96.85 -1.79)"/><path d="M609.13,19.3a3.47,3.47,0,0,0-.7-2.28,2.39,2.39,0,0,0-1.94-.8,2.7,2.7,0,0,0-2,.85,4,4,0,0,0-1.06,2.23Zm1.93,1.55h-7.62a4,4,0,0,0,1,2.69,3.32,3.32,0,0,0,2.53.95,5.36,5.36,0,0,0,3.35-1.17V25a6.44,6.44,0,0,1-3.81,1,4.68,4.68,0,0,1-3.68-1.49,6.06,6.06,0,0,1-1.32-4.15,6,6,0,0,1,1.45-4.13,4.65,4.65,0,0,1,3.6-1.62A4.21,4.21,0,0,1,609.86,16a5.67,5.67,0,0,1,1.2,3.85Z" transform="translate(-96.85 -1.79)"/><path d="M622.91,25.8H621V19.61c0-2.24-.82-3.36-2.45-3.36a2.63,2.63,0,0,0-2.09.95,3.55,3.55,0,0,0-.82,2.39V25.8h-1.93V14.92h1.93v1.8h0a3.93,3.93,0,0,1,3.57-2.06A3.29,3.29,0,0,1,622,15.81a5.17,5.17,0,0,1,.93,3.34Z" transform="translate(-96.85 -1.79)"/><path d="M633.13,19.3a3.47,3.47,0,0,0-.7-2.28,2.39,2.39,0,0,0-1.94-.8,2.7,2.7,0,0,0-2,.85,4,4,0,0,0-1.06,2.23Zm1.93,1.55h-7.62a4,4,0,0,0,1,2.69,3.32,3.32,0,0,0,2.53.95,5.36,5.36,0,0,0,3.35-1.17V25a6.46,6.46,0,0,1-3.81,1,4.68,4.68,0,0,1-3.68-1.49,6.06,6.06,0,0,1-1.32-4.15,6,6,0,0,1,1.45-4.13,4.65,4.65,0,0,1,3.6-1.62A4.21,4.21,0,0,1,633.86,16a5.67,5.67,0,0,1,1.2,3.85Z" transform="translate(-96.85 -1.79)"/><path d="M643.55,16.83a2.26,2.26,0,0,0-1.33-.35,2.18,2.18,0,0,0-1.85,1.05,4.79,4.79,0,0,0-.73,2.76V25.8h-1.93V14.92h1.93v2.21h0c.55-1.6,1.5-2.4,2.86-2.4a2.72,2.72,0,0,1,1,.15Z" transform="translate(-96.85 -1.79)"/><path d="M652.91,19.32a2.94,2.94,0,0,0-.85-2.16,2.79,2.79,0,0,0-2.1-.91,2.9,2.9,0,0,0-2.45,1.16,5.17,5.17,0,0,0-.88,3.17,4.44,4.44,0,0,0,.85,2.81,2.72,2.72,0,0,0,2.24,1.07,2.94,2.94,0,0,0,2.31-1,3.8,3.8,0,0,0,.88-2.6Zm1.93,5.56c0,4-2,6-5.86,6a7.78,7.78,0,0,1-3.53-.75V28.31a7.27,7.27,0,0,0,3.5,1q4,0,4-4.17V24h0a4.38,4.38,0,0,1-7,.59,5.85,5.85,0,0,1-1.23-3.89A6.7,6.7,0,0,1,646,16.29a4.48,4.48,0,0,1,3.62-1.63,3.53,3.53,0,0,1,3.23,1.73h0V14.92h1.93Z" transform="translate(-96.85 -1.79)"/><path d="M667.21,14.92l-4.94,12.52c-.92,2.32-2.21,3.48-3.89,3.48a4.5,4.5,0,0,1-1.23-.15v-1.7a2.94,2.94,0,0,0,1.09.22,2.1,2.1,0,0,0,2-1.53l.84-2-4.27-10.86h2.14l2.84,8.17.23.9h0a8.35,8.35,0,0,1,.24-.88l3-8.19Z" transform="translate(-96.85 -1.79)"/></g><g class="cls-3"><rect class="cls-5" x="339.23" y="37.68" width="41.02" height="14.88"/><rect class="cls-6" x="339.23" y="37.68" width="41.02" height="14.88"/></g><g class="cls-3"><path d="M503.53,54.84H501.2L493.53,43a5.9,5.9,0,0,1-.52-1H493a18.19,18.19,0,0,1,.08,2.13V54.84h-1.95V39.6h2.47L501,51.25q.53.82.63,1h0a16.12,16.12,0,0,1-.1-2.22V39.6h1.95Z" transform="translate(-96.85 -1.79)"/><path d="M508.4,49.46a4.3,4.3,0,0,0,1,3,3.22,3.22,0,0,0,2.55,1.08,3.06,3.06,0,0,0,2.52-1.06,4.69,4.69,0,0,0,.86-3,4.76,4.76,0,0,0-.86-3,3.07,3.07,0,0,0-2.52-1.07,3.18,3.18,0,0,0-2.56,1.12A4.54,4.54,0,0,0,508.4,49.46Zm-2,.06a5.89,5.89,0,0,1,1.5-4.26A5.43,5.43,0,0,1,512,43.7a5,5,0,0,1,3.84,1.5,5.85,5.85,0,0,1,1.39,4.15,5.84,5.84,0,0,1-1.49,4.16,5.77,5.77,0,0,1-7.88.05A5.62,5.62,0,0,1,506.43,49.52Z" transform="translate(-96.85 -1.79)"/><path d="M529.07,54.84h-1.91V48.65c0-2.24-.82-3.36-2.45-3.36a2.65,2.65,0,0,0-2.09,1,3.55,3.55,0,0,0-.82,2.39v6.21h-1.92V44h1.92v1.8h0a3.93,3.93,0,0,1,3.57-2.06,3.29,3.29,0,0,1,2.73,1.15,5.17,5.17,0,0,1,.93,3.34Z" transform="translate(-96.85 -1.79)"/><path d="M538.19,45.87a2.24,2.24,0,0,0-1.33-.35,2.18,2.18,0,0,0-1.85,1,4.79,4.79,0,0,0-.73,2.76v5.51h-1.92V44h1.92v2.21h0c.55-1.6,1.51-2.4,2.86-2.4a2.68,2.68,0,0,1,1,.15Z" transform="translate(-96.85 -1.79)"/><path d="M547,48.34a3.47,3.47,0,0,0-.7-2.28,2.39,2.39,0,0,0-1.94-.8,2.7,2.7,0,0,0-2,.85,4,4,0,0,0-1.05,2.23Zm1.93,1.55h-7.61a3.91,3.91,0,0,0,1,2.69,3.34,3.34,0,0,0,2.53,1,5.36,5.36,0,0,0,3.35-1.17v1.72a6.4,6.4,0,0,1-3.8,1,4.68,4.68,0,0,1-3.69-1.49,6.06,6.06,0,0,1-1.32-4.15,6,6,0,0,1,1.45-4.13,4.65,4.65,0,0,1,3.6-1.62,4.21,4.21,0,0,1,3.34,1.37,5.67,5.67,0,0,1,1.2,3.85Z" transform="translate(-96.85 -1.79)"/><path d="M560.75,54.84h-1.91V48.65c0-2.24-.82-3.36-2.45-3.36a2.63,2.63,0,0,0-2.09,1,3.55,3.55,0,0,0-.82,2.39v6.21h-1.92V44h1.92v1.8h0a3.93,3.93,0,0,1,3.57-2.06,3.29,3.29,0,0,1,2.73,1.15,5.17,5.17,0,0,1,.93,3.34Z" transform="translate(-96.85 -1.79)"/><path d="M571,48.34a3.47,3.47,0,0,0-.7-2.28,2.39,2.39,0,0,0-1.94-.8,2.7,2.7,0,0,0-2,.85,4,4,0,0,0-1.06,2.23Zm1.93,1.55h-7.62a4,4,0,0,0,1,2.69,3.34,3.34,0,0,0,2.53,1,5.36,5.36,0,0,0,3.35-1.17v1.72a6.43,6.43,0,0,1-3.8,1,4.68,4.68,0,0,1-3.69-1.49,6.06,6.06,0,0,1-1.32-4.15,6,6,0,0,1,1.45-4.13,4.65,4.65,0,0,1,3.6-1.62,4.21,4.21,0,0,1,3.34,1.37,5.67,5.67,0,0,1,1.2,3.85Z" transform="translate(-96.85 -1.79)"/><path d="M589.5,44l-3.25,10.88h-2l-2.16-7.64a5.5,5.5,0,0,1-.18-1h0a4.38,4.38,0,0,1-.22,1l-2.35,7.66h-1.94L574.08,44h2L578.26,52a5.2,5.2,0,0,1,.15,1h.08a4.93,4.93,0,0,1,.18-1L581,44h1.78L585.08,52a6.7,6.7,0,0,1,.16,1h.08a5.55,5.55,0,0,1,.18-1L587.63,44Z" transform="translate(-96.85 -1.79)"/><path d="M594.88,49.72a3.33,3.33,0,0,0-1.85.67,1.87,1.87,0,0,0-.5,1.38,1.62,1.62,0,0,0,.55,1.27,2.07,2.07,0,0,0,1.45.49,2.72,2.72,0,0,0,2.08-.89,3.17,3.17,0,0,0,.82-2.22v-1Zm-3.23-5a7,7,0,0,1,3.75-1q3.93,0,3.93,4.13v7h-1.9V53.16h0a4,4,0,0,1-5.86,1.08,3,3,0,0,1-.93-2.31c0-2,1.2-3.22,3.61-3.56l3.23-.45c0-1.78-.74-2.66-2.21-2.66a5.51,5.51,0,0,0-3.57,1.31Z" transform="translate(-96.85 -1.79)"/><path d="M604.35,50.36a3.14,3.14,0,0,0,.86,2.23,3,3,0,0,0,4.54-.27,5.43,5.43,0,0,0,.87-3.27,4.28,4.28,0,0,0-.81-2.74,2.64,2.64,0,0,0-2.2-1,3,3,0,0,0-2.34,1,3.69,3.69,0,0,0-.92,2.58Zm0,2.94v1.54h-1.92V38.73h1.92v7.11h0a4.11,4.11,0,0,1,3.74-2.14,4,4,0,0,1,3.25,1.44,5.93,5.93,0,0,1,1.21,3.94,6.62,6.62,0,0,1-1.36,4.39,4.45,4.45,0,0,1-3.6,1.62,3.57,3.57,0,0,1-3.24-1.79Z" transform="translate(-96.85 -1.79)"/><ellipse cx="519.5" cy="44.99" rx="1.36" ry="11.39"/><path d="M627.61,48.34a3.47,3.47,0,0,0-.7-2.28,2.39,2.39,0,0,0-1.94-.8,2.7,2.7,0,0,0-2,.85,4,4,0,0,0-1.06,2.23Zm1.93,1.55h-7.62a4,4,0,0,0,1,2.69,3.32,3.32,0,0,0,2.53,1,5.36,5.36,0,0,0,3.35-1.17v1.72a6.44,6.44,0,0,1-3.81,1,4.68,4.68,0,0,1-3.68-1.49A6.06,6.06,0,0,1,620,49.45a6,6,0,0,1,1.45-4.13A4.65,4.65,0,0,1,625,43.7a4.21,4.21,0,0,1,3.34,1.37,5.67,5.67,0,0,1,1.2,3.85Z" transform="translate(-96.85 -1.79)"/><path d="M645.13,48.34a3.47,3.47,0,0,0-.7-2.28,2.39,2.39,0,0,0-1.94-.8,2.7,2.7,0,0,0-2,.85,4,4,0,0,0-1.06,2.23Zm1.93,1.55h-7.62a3.91,3.91,0,0,0,1,2.69,3.32,3.32,0,0,0,2.53,1,5.38,5.38,0,0,0,3.35-1.17v1.72a6.46,6.46,0,0,1-3.81,1,4.68,4.68,0,0,1-3.68-1.49,6.06,6.06,0,0,1-1.32-4.15,6,6,0,0,1,1.45-4.13,4.65,4.65,0,0,1,3.6-1.62,4.21,4.21,0,0,1,3.34,1.37,5.67,5.67,0,0,1,1.2,3.85Z" transform="translate(-96.85 -1.79)"/><path d="M658.91,54.84H657V48.65c0-2.24-.81-3.36-2.45-3.36a2.63,2.63,0,0,0-2.08,1,3.55,3.55,0,0,0-.82,2.39v6.21h-1.93V44h1.93v1.8h0a3.93,3.93,0,0,1,3.57-2.06A3.29,3.29,0,0,1,658,44.85a5.17,5.17,0,0,1,.93,3.34Z" transform="translate(-96.85 -1.79)"/><path d="M669.13,48.34a3.47,3.47,0,0,0-.7-2.28,2.39,2.39,0,0,0-1.94-.8,2.7,2.7,0,0,0-2,.85,4,4,0,0,0-1.06,2.23Zm1.93,1.55h-7.62a3.91,3.91,0,0,0,1,2.69,3.32,3.32,0,0,0,2.53,1,5.38,5.38,0,0,0,3.35-1.17v1.72a6.46,6.46,0,0,1-3.81,1,4.68,4.68,0,0,1-3.68-1.49,6.06,6.06,0,0,1-1.32-4.15,6,6,0,0,1,1.45-4.13,4.63,4.63,0,0,1,3.6-1.62,4.21,4.21,0,0,1,3.34,1.37,5.67,5.67,0,0,1,1.2,3.85Z" transform="translate(-96.85 -1.79)"/><path d="M679.55,45.87a2.26,2.26,0,0,0-1.33-.35,2.18,2.18,0,0,0-1.85,1,4.79,4.79,0,0,0-.73,2.76v5.51h-1.93V44h1.93v2.21h0q.83-2.4,2.85-2.4a2.74,2.74,0,0,1,1,.15Z" transform="translate(-96.85 -1.79)"/><path d="M688.91,48.36a3,3,0,0,0-.85-2.16,2.79,2.79,0,0,0-2.1-.91,2.9,2.9,0,0,0-2.45,1.16,5.17,5.17,0,0,0-.88,3.17,4.44,4.44,0,0,0,.85,2.81,2.72,2.72,0,0,0,2.24,1.07,2.91,2.91,0,0,0,2.3-1,3.75,3.75,0,0,0,.89-2.6Zm1.93,5.56c0,4-2,6-5.86,6a7.78,7.78,0,0,1-3.53-.75V57.35a7.27,7.27,0,0,0,3.5,1q4,0,4-4.17V53h0a4.38,4.38,0,0,1-7,.59,5.87,5.87,0,0,1-1.23-3.89A6.7,6.7,0,0,1,682,45.33a4.48,4.48,0,0,1,3.62-1.63,3.53,3.53,0,0,1,3.23,1.73h0V44h1.93Z" transform="translate(-96.85 -1.79)"/><path d="M703.21,44l-4.94,12.52c-.92,2.32-2.21,3.48-3.89,3.48a4.4,4.4,0,0,1-1.23-.15v-1.7a2.94,2.94,0,0,0,1.09.22,2.1,2.1,0,0,0,2-1.53l.84-2L692.76,44h2.14l2.84,8.17.23.9h0a8.35,8.35,0,0,1,.24-.88l3-8.19Z" transform="translate(-96.85 -1.79)"/></g></g></svg>