<svg id="图层_1" data-name="图层 1" xmlns="http://www.w3.org/2000/svg" xmlns:xlink="http://www.w3.org/1999/xlink" viewBox="0 0 624.09 565.35"><defs><style>.cls-1,.cls-10,.cls-12,.cls-4,.cls-6,.cls-8{fill:none;}.cls-2{clip-path:url(#clip-path);}.cls-3{clip-path:url(#clip-path-2);}.cls-10,.cls-4{stroke:#bfbfbf;}.cls-10,.cls-4,.cls-6,.cls-8{stroke-linejoin:round;}.cls-12,.cls-4{stroke-width:0.48px;}.cls-5{fill:#9eb8f5;}.cls-6{stroke:#9eb8f5;}.cls-6,.cls-8{stroke-linecap:round;}.cls-10,.cls-6,.cls-8{stroke-width:0.96px;}.cls-7{fill:#0a3b78;}.cls-8{stroke:#0a3b78;}.cls-9{fill:#fff;}.cls-10,.cls-12{stroke-linecap:square;}.cls-11{fill:#e0f7bf;}.cls-12{stroke:#000;stroke-miterlimit:10;}</style><clipPath id="clip-path" transform="translate(-96.85 -1.56)"><rect class="cls-1" y="0.12" width="771.84" height="590.88"/></clipPath><clipPath id="clip-path-2" transform="translate(-96.85 -1.56)"><rect class="cls-1" y="0.12" width="771.83" height="590.88"/></clipPath></defs><g class="cls-2"><g class="cls-3"><line class="cls-4" x1="146.75" y1="491.52" x2="146.75" y2="67.2"/><line class="cls-4" x1="252.1" y1="491.52" x2="252.1" y2="67.2"/><line class="cls-4" x1="357.21" y1="491.52" x2="357.21" y2="67.2"/><line class="cls-4" x1="462.59" y1="491.52" x2="462.59" y2="67.2"/></g><g class="cls-3"><rect class="cls-5" x="41.4" y="406.56" width="499.43" height="63.84"/><rect class="cls-6" x="41.4" y="406.56" width="499.43" height="63.84"/></g><g class="cls-3"><rect class="cls-5" x="41.4" y="300.48" width="236.87" height="63.84"/><rect class="cls-6" x="41.4" y="300.48" width="236.87" height="63.84"/></g><g class="cls-3"><rect class="cls-5" x="41.4" y="194.4" width="118.79" height="63.84"/><rect class="cls-6" x="41.4" y="194.4" width="118.79" height="63.84"/></g><g class="cls-3"><rect class="cls-5" x="41.4" y="88.32" width="270.48" height="63.84"/><rect class="cls-6" x="41.4" y="88.32" width="270.48" height="63.84"/></g><g class="cls-3"><rect class="cls-7" x="540.83" y="406.56" width="27.11" height="63.84"/><rect class="cls-8" x="540.83" y="406.56" width="27.11" height="63.84"/></g><g class="cls-3"><rect class="cls-7" x="278.27" y="300.48" width="289.67" height="63.84"/><rect class="cls-8" x="278.27" y="300.48" width="289.67" height="63.84"/></g><g class="cls-3"><rect class="cls-7" x="160.19" y="194.4" width="407.75" height="63.84"/><rect class="cls-8" x="160.19" y="194.4" width="407.75" height="63.84"/></g><g class="cls-3"><rect class="cls-7" x="311.88" y="88.32" width="256.06" height="63.84"/><rect class="cls-8" x="311.88" y="88.32" width="256.06" height="63.84"/></g><g class="cls-3"><path d="M368.69,436.94a3.88,3.88,0,0,0,.85,2.63A3.12,3.12,0,0,0,375,437.5a4.71,4.71,0,0,0-.88-2.94,2.89,2.89,0,0,0-4.52-.16A3.72,3.72,0,0,0,368.69,436.94Zm-1.2,9.26a5.84,5.84,0,0,0,2.94.79,4,4,0,0,0,3.44-1.75,8.65,8.65,0,0,0,1.22-5s0,0,0,0a3.79,3.79,0,0,1-3.65,2.07,4.56,4.56,0,0,1-3.44-1.43,5.15,5.15,0,0,1-1.37-3.71,5.56,5.56,0,0,1,1.49-4,5.13,5.13,0,0,1,3.87-1.56,4.47,4.47,0,0,1,3.85,1.94,9.6,9.6,0,0,1,1.39,5.63q0,4.57-1.79,7a5.8,5.8,0,0,1-5,2.46,6.83,6.83,0,0,1-2.94-.56Z" transform="translate(-96.85 -1.56)"/><path d="M389.47,443.34a5.07,5.07,0,0,1-1.6,3.9,6.11,6.11,0,0,1-4.32,1.48,6.85,6.85,0,0,1-3.46-.69V445.9A6.16,6.16,0,0,0,383.5,447a4,4,0,0,0,2.79-1,3.25,3.25,0,0,0,1.06-2.53,3,3,0,0,0-1.1-2.45,4.89,4.89,0,0,0-3.12-.88,24,24,0,0,0-2.81.14l.61-8.38h7.72v1.83h-6l-.34,4.68,1.5-.06a6.06,6.06,0,0,1,4.12,1.3A4.59,4.59,0,0,1,389.47,443.34Z" transform="translate(-96.85 -1.56)"/><path d="M403.4,444.47a3.28,3.28,0,0,0,.6,2.1,2,2,0,0,0,1.63.75,1.94,1.94,0,0,0,1.65-.78,3.54,3.54,0,0,0,.58-2.17,3.38,3.38,0,0,0-.58-2.13,1.93,1.93,0,0,0-1.6-.73,2,2,0,0,0-1.68.78A3.51,3.51,0,0,0,403.4,444.47Zm-1.63.1a4.65,4.65,0,0,1,1.09-3.24,3.71,3.71,0,0,1,2.9-1.21,3.49,3.49,0,0,1,2.74,1.11,5.2,5.2,0,0,1-.11,6.25,3.68,3.68,0,0,1-2.87,1.21,3.48,3.48,0,0,1-2.73-1.14A4.33,4.33,0,0,1,401.77,444.57Zm5-12.64-10.6,16.61h-1.78L405,431.93ZM393.52,436a3.3,3.3,0,0,0,.6,2.12,2,2,0,0,0,1.63.75,1.94,1.94,0,0,0,1.65-.78,3.54,3.54,0,0,0,.58-2.18,3.45,3.45,0,0,0-.57-2.12,1.9,1.9,0,0,0-1.6-.75,2,2,0,0,0-1.67.78A3.45,3.45,0,0,0,393.52,436Zm-1.64.11a4.61,4.61,0,0,1,1.08-3.22,3.76,3.76,0,0,1,2.92-1.2,3.49,3.49,0,0,1,2.74,1.1,4.4,4.4,0,0,1,1,3.06,4.53,4.53,0,0,1-1.09,3.16,3.67,3.67,0,0,1-2.89,1.22,3.5,3.5,0,0,1-2.72-1.13A4.25,4.25,0,0,1,391.88,436.1Z" transform="translate(-96.85 -1.56)"/></g><g class="cls-3"><path d="M236.76,336.75h5.36v-7.86c-.73,1.32-1.53,2.61-2.37,3.86S237.91,335.33,236.76,336.75Zm7.39-10.9v10.9h2.47v1.73h-2.47v3.88h-2v-3.88h-7.7v-1.63a54.09,54.09,0,0,0,4.13-5.33,51.2,51.2,0,0,0,3.44-5.67Z" transform="translate(-96.85 -1.56)"/><path d="M258.19,337.26a5,5,0,0,1-1.6,3.9,6.1,6.1,0,0,1-4.31,1.48,6.87,6.87,0,0,1-3.47-.69v-2.13a6.16,6.16,0,0,0,3.41,1.09,4,4,0,0,0,2.79-1,3.22,3.22,0,0,0,1.06-2.53A3,3,0,0,0,255,335a4.89,4.89,0,0,0-3.12-.88,23.69,23.69,0,0,0-2.8.14l.6-8.38h7.72v1.83h-6l-.34,4.68,1.5-.06a6.06,6.06,0,0,1,4.12,1.3A4.59,4.59,0,0,1,258.19,337.26Z" transform="translate(-96.85 -1.56)"/><path d="M272.13,338.39a3.28,3.28,0,0,0,.59,2.1,2,2,0,0,0,1.63.75,1.94,1.94,0,0,0,1.65-.78,3.54,3.54,0,0,0,.58-2.17,3.38,3.38,0,0,0-.58-2.13,1.92,1.92,0,0,0-1.59-.73,2,2,0,0,0-1.69.78A3.53,3.53,0,0,0,272.13,338.39Zm-1.64.1a4.7,4.7,0,0,1,1.09-3.24,3.72,3.72,0,0,1,2.9-1.21,3.48,3.48,0,0,1,2.74,1.11,5.2,5.2,0,0,1-.11,6.25,3.66,3.66,0,0,1-2.86,1.21,3.49,3.49,0,0,1-2.74-1.14A4.33,4.33,0,0,1,270.49,338.49Zm5-12.64-10.61,16.61h-1.78l10.61-16.61Zm-13.28,4.06a3.3,3.3,0,0,0,.59,2.12,2,2,0,0,0,1.63.75,1.94,1.94,0,0,0,1.65-.78,3.54,3.54,0,0,0,.58-2.18,3.45,3.45,0,0,0-.57-2.12,1.89,1.89,0,0,0-1.6-.75,2,2,0,0,0-1.67.78A3.45,3.45,0,0,0,262.25,329.91Zm-1.65.11a4.57,4.57,0,0,1,1.09-3.22,3.72,3.72,0,0,1,2.91-1.2,3.53,3.53,0,0,1,2.75,1.1,4.45,4.45,0,0,1,1,3.06,4.53,4.53,0,0,1-1.09,3.16,3.67,3.67,0,0,1-2.88,1.22,3.51,3.51,0,0,1-2.73-1.13A4.29,4.29,0,0,1,260.6,330Z" transform="translate(-96.85 -1.56)"/></g><g class="cls-3"><path d="M184.29,224.1a2.7,2.7,0,0,0-.84-2.1,3.28,3.28,0,0,0-2.29-.76,4.53,4.53,0,0,0-2.07.52,6.94,6.94,0,0,0-2,1.49v-2a5.69,5.69,0,0,1,1.84-1.29,6,6,0,0,1,2.41-.45,5.25,5.25,0,0,1,3.6,1.2,4.11,4.11,0,0,1,1.37,3.25,5.79,5.79,0,0,1-.84,3.15,10.06,10.06,0,0,1-2.86,2.73c-1.38,1-2.3,1.63-2.77,2a4.09,4.09,0,0,0-1,1.19,3,3,0,0,0-.28,1.37h8.21v1.86H176.47v-.82a6.69,6.69,0,0,1,.39-2.43,5.87,5.87,0,0,1,1.28-1.94,19.09,19.09,0,0,1,2.79-2.26,10.61,10.61,0,0,0,2.65-2.4A4,4,0,0,0,184.29,224.1Z" transform="translate(-96.85 -1.56)"/><path d="M189.44,233.52a6.13,6.13,0,0,0,3.83,1.31A4,4,0,0,0,196,234a2.79,2.79,0,0,0,1-2.24q0-3.13-4.49-3.14H191.1v-1.72h1.32q4,0,4-2.94c0-1.82-1-2.72-3-2.72a5.31,5.31,0,0,0-3.27,1.17v-2a7.38,7.38,0,0,1,3.79-.94,5,5,0,0,1,3.38,1.1,3.59,3.59,0,0,1,1.28,2.87,4,4,0,0,1-3.3,4.16v0a4.39,4.39,0,0,1,2.83,1.26,3.68,3.68,0,0,1,1,2.67,4.49,4.49,0,0,1-1.61,3.59,6.35,6.35,0,0,1-4.26,1.36,7.26,7.26,0,0,1-3.79-.87Z" transform="translate(-96.85 -1.56)"/><path d="M213.09,232.31a3.34,3.34,0,0,0,.59,2.1,2,2,0,0,0,1.63.75,1.94,1.94,0,0,0,1.65-.78,3.54,3.54,0,0,0,.58-2.17,3.33,3.33,0,0,0-.58-2.12,1.9,1.9,0,0,0-1.59-.74,2,2,0,0,0-1.69.78A3.6,3.6,0,0,0,213.09,232.31Zm-1.63.1a4.7,4.7,0,0,1,1.08-3.24,3.72,3.72,0,0,1,2.9-1.21,3.48,3.48,0,0,1,2.74,1.11,5.2,5.2,0,0,1-.11,6.25,3.66,3.66,0,0,1-2.86,1.21,3.49,3.49,0,0,1-2.74-1.14A4.32,4.32,0,0,1,211.46,232.41Zm5-12.64-10.61,16.61H204.1l10.61-16.61Zm-13.28,4.06a3.36,3.36,0,0,0,.59,2.12,2,2,0,0,0,1.63.75,1.94,1.94,0,0,0,1.65-.78,3.54,3.54,0,0,0,.58-2.18,3.45,3.45,0,0,0-.57-2.12,1.89,1.89,0,0,0-1.6-.75,2,2,0,0,0-1.67.78A3.45,3.45,0,0,0,203.21,223.83Zm-1.64.11a4.61,4.61,0,0,1,1.08-3.22,3.72,3.72,0,0,1,2.91-1.2,3.53,3.53,0,0,1,2.75,1.1,4.45,4.45,0,0,1,1,3.06,4.56,4.56,0,0,1-1.09,3.17,3.66,3.66,0,0,1-2.88,1.21,3.51,3.51,0,0,1-2.73-1.13A4.29,4.29,0,0,1,201.57,223.94Z" transform="translate(-96.85 -1.56)"/></g><g class="cls-3"><path d="M262.27,125.1a5,5,0,0,1-1.6,3.9,6.1,6.1,0,0,1-4.31,1.49,6.85,6.85,0,0,1-3.47-.7v-2.13a6.16,6.16,0,0,0,3.41,1.09,4,4,0,0,0,2.79-1,3.22,3.22,0,0,0,1.06-2.53,3,3,0,0,0-1.1-2.45,4.89,4.89,0,0,0-3.12-.88,23.69,23.69,0,0,0-2.8.14l.6-8.38h7.72v1.83h-6l-.34,4.68,1.5-.06a6.06,6.06,0,0,1,4.12,1.3A4.59,4.59,0,0,1,262.27,125.1Z" transform="translate(-96.85 -1.56)"/><path d="M269.83,130.2V116.08a6.93,6.93,0,0,1-1.66,1.09A9.82,9.82,0,0,1,266,118v-2a14,14,0,0,0,2.8-1.16,12.81,12.81,0,0,0,2.29-1.49h.79V130.2Z" transform="translate(-96.85 -1.56)"/><path d="M288.93,126.23a3.28,3.28,0,0,0,.59,2.1,2,2,0,0,0,1.63.75,1.94,1.94,0,0,0,1.65-.78,3.54,3.54,0,0,0,.58-2.17,3.33,3.33,0,0,0-.58-2.12,1.9,1.9,0,0,0-1.59-.74,2,2,0,0,0-1.69.78A3.53,3.53,0,0,0,288.93,126.23Zm-1.64.1a4.7,4.7,0,0,1,1.09-3.24,3.72,3.72,0,0,1,2.9-1.21A3.48,3.48,0,0,1,294,123a5.2,5.2,0,0,1-.11,6.25,3.66,3.66,0,0,1-2.86,1.21,3.49,3.49,0,0,1-2.74-1.14A4.33,4.33,0,0,1,287.29,126.33Zm5-12.64L281.72,130.3h-1.78l10.61-16.61Zm-13.28,4.06a3.3,3.3,0,0,0,.59,2.12,2,2,0,0,0,1.63.75,1.94,1.94,0,0,0,1.65-.78,3.54,3.54,0,0,0,.58-2.18,3.45,3.45,0,0,0-.57-2.12,1.89,1.89,0,0,0-1.6-.75,2,2,0,0,0-1.67.78A3.45,3.45,0,0,0,279.05,117.75Zm-1.65.11a4.57,4.57,0,0,1,1.09-3.22,3.72,3.72,0,0,1,2.91-1.2,3.53,3.53,0,0,1,2.75,1.1,4.45,4.45,0,0,1,1,3.06,4.56,4.56,0,0,1-1.09,3.17,3.66,3.66,0,0,1-2.88,1.21,3.51,3.51,0,0,1-2.73-1.13A4.29,4.29,0,0,1,277.4,117.86Z" transform="translate(-96.85 -1.56)"/></g><g class="cls-3"><path class="cls-9" d="M646.27,443.34a5,5,0,0,1-1.61,3.9,6.08,6.08,0,0,1-4.31,1.48,6.82,6.82,0,0,1-3.46-.69V445.9A6.14,6.14,0,0,0,640.3,447a4,4,0,0,0,2.79-1,3.25,3.25,0,0,0,1.06-2.53,2.94,2.94,0,0,0-1.11-2.45,4.85,4.85,0,0,0-3.12-.88,23.8,23.8,0,0,0-2.8.14l.61-8.38h7.72v1.83h-6l-.34,4.68,1.5-.06a6.06,6.06,0,0,1,4.12,1.3A4.59,4.59,0,0,1,646.27,443.34Z" transform="translate(-96.85 -1.56)"/><path class="cls-9" d="M660.2,444.47a3.28,3.28,0,0,0,.6,2.1,2,2,0,0,0,1.63.75,1.94,1.94,0,0,0,1.65-.78,3.61,3.61,0,0,0,.58-2.17,3.44,3.44,0,0,0-.58-2.13,1.93,1.93,0,0,0-1.6-.73,2,2,0,0,0-1.68.78A3.51,3.51,0,0,0,660.2,444.47Zm-1.63.1a4.7,4.7,0,0,1,1.08-3.24,3.73,3.73,0,0,1,2.91-1.21,3.51,3.51,0,0,1,2.74,1.11,5.2,5.2,0,0,1-.11,6.25,3.68,3.68,0,0,1-2.87,1.21,3.48,3.48,0,0,1-2.73-1.14A4.33,4.33,0,0,1,658.57,444.57Zm5-12.64L653,448.54h-1.78l10.6-16.61ZM650.32,436a3.3,3.3,0,0,0,.6,2.12,2,2,0,0,0,1.63.75,1.94,1.94,0,0,0,1.65-.78,3.6,3.6,0,0,0,.58-2.18,3.45,3.45,0,0,0-.57-2.12,1.91,1.91,0,0,0-1.61-.75,2,2,0,0,0-1.67.78A3.51,3.51,0,0,0,650.32,436Zm-1.64.11a4.61,4.61,0,0,1,1.08-3.22,3.73,3.73,0,0,1,2.92-1.2,3.5,3.5,0,0,1,2.74,1.1,4.4,4.4,0,0,1,1,3.06,4.58,4.58,0,0,1-1.09,3.16,3.69,3.69,0,0,1-2.89,1.22,3.52,3.52,0,0,1-2.73-1.13A4.29,4.29,0,0,1,648.68,436.1Z" transform="translate(-96.85 -1.56)"/></g><g class="cls-3"><path class="cls-9" d="M508.75,337.26a5,5,0,0,1-1.61,3.9,6.08,6.08,0,0,1-4.31,1.48,6.82,6.82,0,0,1-3.46-.69v-2.13a6.14,6.14,0,0,0,3.41,1.09,4,4,0,0,0,2.79-1,3.25,3.25,0,0,0,1.06-2.53,2.94,2.94,0,0,0-1.11-2.45,4.84,4.84,0,0,0-3.11-.88,23.87,23.87,0,0,0-2.81.14l.61-8.38h7.72v1.83h-6l-.34,4.68,1.5-.06a6.06,6.06,0,0,1,4.12,1.3A4.59,4.59,0,0,1,508.75,337.26Z" transform="translate(-96.85 -1.56)"/><path class="cls-9" d="M521.47,337.26a5,5,0,0,1-1.61,3.9,6.08,6.08,0,0,1-4.31,1.48,6.82,6.82,0,0,1-3.46-.69v-2.13a6.14,6.14,0,0,0,3.41,1.09,4,4,0,0,0,2.79-1,3.25,3.25,0,0,0,1.06-2.53,2.94,2.94,0,0,0-1.11-2.45,4.84,4.84,0,0,0-3.11-.88,23.87,23.87,0,0,0-2.81.14l.61-8.38h7.72v1.83h-6l-.34,4.68,1.5-.06a6.06,6.06,0,0,1,4.12,1.3A4.59,4.59,0,0,1,521.47,337.26Z" transform="translate(-96.85 -1.56)"/><path class="cls-9" d="M535.4,338.39a3.28,3.28,0,0,0,.6,2.1,2,2,0,0,0,1.63.75,1.94,1.94,0,0,0,1.65-.78,3.61,3.61,0,0,0,.58-2.17,3.44,3.44,0,0,0-.58-2.13,1.93,1.93,0,0,0-1.6-.73,2,2,0,0,0-1.68.78A3.53,3.53,0,0,0,535.4,338.39Zm-1.63.1a4.7,4.7,0,0,1,1.08-3.24,3.73,3.73,0,0,1,2.91-1.21,3.49,3.49,0,0,1,2.74,1.11,5.2,5.2,0,0,1-.11,6.25,3.68,3.68,0,0,1-2.87,1.21,3.48,3.48,0,0,1-2.73-1.14A4.33,4.33,0,0,1,533.77,338.49Zm5-12.64-10.6,16.61h-1.78L537,325.85Zm-13.28,4.06a3.3,3.3,0,0,0,.6,2.12,2,2,0,0,0,1.63.75,1.94,1.94,0,0,0,1.65-.78,3.6,3.6,0,0,0,.58-2.18,3.45,3.45,0,0,0-.57-2.12,1.91,1.91,0,0,0-1.61-.75,2,2,0,0,0-1.66.78A3.45,3.45,0,0,0,525.52,329.91Zm-1.64.11A4.61,4.61,0,0,1,525,326.8a3.74,3.74,0,0,1,2.92-1.2,3.49,3.49,0,0,1,2.74,1.1,4.4,4.4,0,0,1,1,3.06,4.53,4.53,0,0,1-1.09,3.16,3.69,3.69,0,0,1-2.89,1.22A3.54,3.54,0,0,1,524.9,333,4.29,4.29,0,0,1,523.88,330Z" transform="translate(-96.85 -1.56)"/></g><g class="cls-3"><path class="cls-9" d="M450.15,221.06a60.84,60.84,0,0,0-4.09,8.4,28.84,28.84,0,0,0-1.84,6.82h-2.17a28.87,28.87,0,0,1,1.86-6.64,62.48,62.48,0,0,1,3.93-8h-8.18v-1.84h10.49Z" transform="translate(-96.85 -1.56)"/><path class="cls-9" d="M462.87,221.06a60.84,60.84,0,0,0-4.09,8.4,28.84,28.84,0,0,0-1.84,6.82h-2.17a28.87,28.87,0,0,1,1.86-6.64,62.48,62.48,0,0,1,3.93-8h-8.18v-1.84h10.49Z" transform="translate(-96.85 -1.56)"/><path class="cls-9" d="M476.36,232.31a3.28,3.28,0,0,0,.6,2.1,2,2,0,0,0,1.63.75,1.94,1.94,0,0,0,1.65-.78,3.61,3.61,0,0,0,.58-2.17,3.39,3.39,0,0,0-.58-2.12,1.91,1.91,0,0,0-1.6-.74,2,2,0,0,0-1.68.78A3.53,3.53,0,0,0,476.36,232.31Zm-1.63.1a4.7,4.7,0,0,1,1.08-3.24,3.74,3.74,0,0,1,2.91-1.21,3.49,3.49,0,0,1,2.74,1.11,5.2,5.2,0,0,1-.11,6.25,3.68,3.68,0,0,1-2.87,1.21,3.48,3.48,0,0,1-2.73-1.14A4.33,4.33,0,0,1,474.73,232.41Zm5-12.64-10.6,16.61h-1.78L478,219.77Zm-13.28,4.06a3.3,3.3,0,0,0,.6,2.12,2,2,0,0,0,1.63.75,1.94,1.94,0,0,0,1.65-.78,3.6,3.6,0,0,0,.58-2.18,3.45,3.45,0,0,0-.57-2.12,1.91,1.91,0,0,0-1.61-.75,2,2,0,0,0-1.66.78A3.45,3.45,0,0,0,466.48,223.83Zm-1.64.11a4.61,4.61,0,0,1,1.08-3.22,3.76,3.76,0,0,1,2.92-1.2,3.49,3.49,0,0,1,2.74,1.1,4.4,4.4,0,0,1,1,3.06,4.56,4.56,0,0,1-1.09,3.17,3.68,3.68,0,0,1-2.89,1.21,3.5,3.5,0,0,1-2.72-1.13A4.25,4.25,0,0,1,464.84,223.94Z" transform="translate(-96.85 -1.56)"/></g><g class="cls-3"><path class="cls-9" d="M516.84,124.59h5.36v-7.86q-1.11,2-2.38,3.86C519,121.84,518,123.17,516.84,124.59Zm7.39-10.9v10.9h2.47v1.73h-2.47v3.88h-2v-3.88h-7.7v-1.63a54.09,54.09,0,0,0,4.13-5.33,49.54,49.54,0,0,0,3.43-5.67Z" transform="translate(-96.85 -1.56)"/><path class="cls-9" d="M530.21,118.7a3.86,3.86,0,0,0,.85,2.64,3.24,3.24,0,0,0,4.54.08,2.94,2.94,0,0,0,.89-2.16,4.78,4.78,0,0,0-.88-2.94,2.77,2.77,0,0,0-2.32-1.17,2.82,2.82,0,0,0-2.21,1A3.77,3.77,0,0,0,530.21,118.7ZM529,128a5.74,5.74,0,0,0,2.94.79,3.92,3.92,0,0,0,3.43-1.75,8.57,8.57,0,0,0,1.22-5s0,0,0,0a3.79,3.79,0,0,1-3.65,2.07,4.54,4.54,0,0,1-3.45-1.43A5.14,5.14,0,0,1,528.1,119a5.56,5.56,0,0,1,1.49-4,5.13,5.13,0,0,1,3.87-1.56,4.49,4.49,0,0,1,3.85,1.94,9.63,9.63,0,0,1,1.38,5.63c0,3-.59,5.39-1.79,7a5.77,5.77,0,0,1-4.95,2.46,6.83,6.83,0,0,1-2.94-.56Z" transform="translate(-96.85 -1.56)"/><path class="cls-9" d="M552.2,126.23a3.28,3.28,0,0,0,.6,2.1,2,2,0,0,0,1.63.75,1.94,1.94,0,0,0,1.65-.78,3.61,3.61,0,0,0,.58-2.17,3.39,3.39,0,0,0-.58-2.12,1.91,1.91,0,0,0-1.6-.74,2,2,0,0,0-1.68.78A3.53,3.53,0,0,0,552.2,126.23Zm-1.63.1a4.7,4.7,0,0,1,1.08-3.24,3.73,3.73,0,0,1,2.91-1.21A3.49,3.49,0,0,1,557.3,123a5.2,5.2,0,0,1-.11,6.25,3.68,3.68,0,0,1-2.87,1.21,3.48,3.48,0,0,1-2.73-1.14A4.33,4.33,0,0,1,550.57,126.33Zm5-12.64L545,130.3h-1.78l10.6-16.61Zm-13.28,4.06a3.3,3.3,0,0,0,.6,2.12,2,2,0,0,0,1.63.75,1.94,1.94,0,0,0,1.65-.78,3.6,3.6,0,0,0,.58-2.18,3.45,3.45,0,0,0-.57-2.12,1.91,1.91,0,0,0-1.61-.75,2,2,0,0,0-1.66.78A3.45,3.45,0,0,0,542.32,117.75Zm-1.64.11a4.61,4.61,0,0,1,1.08-3.22,3.74,3.74,0,0,1,2.92-1.2,3.49,3.49,0,0,1,2.74,1.1,4.4,4.4,0,0,1,1,3.06,4.56,4.56,0,0,1-1.09,3.17,3.68,3.68,0,0,1-2.89,1.21,3.54,3.54,0,0,1-2.73-1.13A4.29,4.29,0,0,1,540.68,117.86Z" transform="translate(-96.85 -1.56)"/></g><g class="cls-3"><line class="cls-10" x1="41.4" y1="491.52" x2="41.4" y2="67.2"/><line class="cls-10" x1="567.94" y1="491.52" x2="567.94" y2="67.2"/></g><g class="cls-3"><path d="M114.72,443.63a8.93,8.93,0,0,1-3.88.72,6.52,6.52,0,0,1-4.88-1.84,6.69,6.69,0,0,1-1.8-4.9,7.2,7.2,0,0,1,2-5.28,7,7,0,0,1,5.2-2.05,9.48,9.48,0,0,1,3.34.52v2.8a6.06,6.06,0,0,0-3.13-.81,4.17,4.17,0,0,0-3.19,1.28,4.7,4.7,0,0,0-1.19,3.33,4.52,4.52,0,0,0,1.13,3.22,4,4,0,0,0,3.07,1.22,6.38,6.38,0,0,0,3.31-.88Z" transform="translate(-96.85 -1.56)"/><path d="M124.19,438.76,122.64,434a5.14,5.14,0,0,1-.21-1.18h-.08a5,5,0,0,1-.23,1.15l-1.56,4.75Zm4.87,5.36h-3.17l-1-3.12h-4.95l-1,3.12h-3.15l5-13.61h3.41Z" transform="translate(-96.85 -1.56)"/></g><g class="cls-3"><path d="M112.43,332.68,110.88,328a5.14,5.14,0,0,1-.21-1.18h-.08a5,5,0,0,1-.23,1.15l-1.56,4.75ZM117.3,338h-3.17l-1-3.12h-5l-1,3.12H104l5-13.61h3.41Z" transform="translate(-96.85 -1.56)"/><path d="M128.61,326l-7,9.67h6.95V338H117.73v-1.62l7.08-9.62h-6.56v-2.37h10.36Z" transform="translate(-96.85 -1.56)"/></g><g class="cls-3"><path d="M109,232h-3l-5.76-8.8a9.71,9.71,0,0,1-.65-1.11h0c0,.47.08,1.19.08,2.17V232H96.85V218.35H100l5.55,8.56c.37.56.6.92.68,1.08h.05a12.68,12.68,0,0,1-.09-1.88v-7.76H109Z" transform="translate(-96.85 -1.56)"/><path d="M124.67,232V223.7c0-.76,0-1.72.11-2.87h-.07c-.18.87-.32,1.45-.42,1.75L120.93,232h-2.31l-3.4-9.3c-.08-.22-.22-.83-.43-1.83h-.08c.08,1.14.12,2.28.12,3.43V232h-2.62V218.35h4.22l2.93,8.22a9.75,9.75,0,0,1,.5,1.92h.06a17.08,17.08,0,0,1,.57-1.93l2.94-8.21h4.1V232Z" transform="translate(-96.85 -1.56)"/></g><g class="cls-3"><path d="M116.08,114.64H112.2v11.24h-2.91V114.64h-3.87v-2.37h10.66Z" transform="translate(-96.85 -1.56)"/><path d="M128.9,125.88h-3.45L123,121.36a4.07,4.07,0,0,1-.27-.88h0a7.41,7.41,0,0,1-.32.91l-2.45,4.49h-3.47l4.36-6.81-4-6.8h3.53l2,4.16a7.83,7.83,0,0,1,.42,1.13h0q.19-.56.45-1.17l2.24-4.12h3.24L124.68,119Z" transform="translate(-96.85 -1.56)"/></g><g class="cls-3"><path d="M127.88,513.31q0,4.71,2,4.71c1.32,0,2-1.62,2-4.85s-.64-4.87-1.92-4.87S127.88,510,127.88,513.31Zm-2.88.07a9.46,9.46,0,0,1,1.3-5.4,4.31,4.31,0,0,1,3.76-1.86c3.13,0,4.69,2.32,4.69,6.94a9.28,9.28,0,0,1-1.27,5.28,4.21,4.21,0,0,1-3.68,1.85Q125,520.19,125,513.38Z" transform="translate(-96.85 -1.56)"/><path d="M146.55,516.65c0,1.27.46,1.9,1.4,1.9s1.4-.65,1.4-2a2.3,2.3,0,0,0-.37-1.41,1.17,1.17,0,0,0-1-.5C147,514.67,146.55,515.33,146.55,516.65Zm-1.92.1a3.73,3.73,0,0,1,.94-2.68,3.25,3.25,0,0,1,2.5-1,3.05,3.05,0,0,1,2.35.9,3.52,3.52,0,0,1,.84,2.52,3.74,3.74,0,0,1-.94,2.66,3.25,3.25,0,0,1-2.49,1,3,3,0,0,1-2.33-.94A3.46,3.46,0,0,1,144.63,516.75Zm4.61-10.4L140.39,520h-2.2L147,506.35Zm-11.11,3.4q0,1.89,1.38,1.89c1,0,1.42-.66,1.42-2s-.45-1.91-1.36-1.91S138.13,508.43,138.13,509.75Zm-1.94.1a3.78,3.78,0,0,1,.93-2.68,3.24,3.24,0,0,1,2.51-1,3,3,0,0,1,2.35.91,3.59,3.59,0,0,1,.84,2.52,3.66,3.66,0,0,1-.94,2.64,3.2,3.2,0,0,1-2.48,1,3,3,0,0,1-2.33-.93A3.42,3.42,0,0,1,136.19,509.85Z" transform="translate(-96.85 -1.56)"/></g><g class="cls-3"><path d="M228.37,517.59h5.77V520h-9v-1a4.7,4.7,0,0,1,.39-1.94,6.17,6.17,0,0,1,1.07-1.64,13.3,13.3,0,0,1,2.13-1.78,8.25,8.25,0,0,0,1.84-1.75,2.7,2.7,0,0,0,.53-1.61c0-1.22-.67-1.83-2-1.83a5.08,5.08,0,0,0-3.36,1.4v-2.53a7.31,7.31,0,0,1,4-1.15,4.72,4.72,0,0,1,3.22,1,3.63,3.63,0,0,1,1.19,2.87,4.9,4.9,0,0,1-.34,1.84,5.28,5.28,0,0,1-1,1.54,12.42,12.42,0,0,1-2.08,1.73,12.4,12.4,0,0,0-1.85,1.52A1.53,1.53,0,0,0,228.37,517.59Z" transform="translate(-96.85 -1.56)"/><path d="M238.75,513.31c0,3.14.68,4.71,2,4.71s2-1.62,2-4.85-.64-4.87-1.92-4.87S238.75,510,238.75,513.31Zm-2.87.07a9.46,9.46,0,0,1,1.3-5.4,4.31,4.31,0,0,1,3.76-1.86c3.13,0,4.69,2.32,4.69,6.94a9.28,9.28,0,0,1-1.27,5.28,4.21,4.21,0,0,1-3.68,1.85Q235.88,520.19,235.88,513.38Z" transform="translate(-96.85 -1.56)"/><path d="M257.43,516.65c0,1.27.46,1.9,1.39,1.9s1.41-.65,1.41-2a2.3,2.3,0,0,0-.37-1.41,1.17,1.17,0,0,0-1-.5C257.91,514.67,257.43,515.33,257.43,516.65Zm-1.93.1a3.77,3.77,0,0,1,.94-2.68,3.28,3.28,0,0,1,2.51-1,3.07,3.07,0,0,1,2.35.9,3.52,3.52,0,0,1,.84,2.52,3.74,3.74,0,0,1-.94,2.66,3.25,3.25,0,0,1-2.49,1,3,3,0,0,1-2.33-.94A3.46,3.46,0,0,1,255.5,516.75Zm4.62-10.4L251.27,520h-2.2l8.82-13.62ZM249,509.75c0,1.26.47,1.89,1.39,1.89s1.42-.66,1.42-2-.45-1.91-1.36-1.91S249,508.43,249,509.75Zm-1.93.1a3.78,3.78,0,0,1,.93-2.68,3.24,3.24,0,0,1,2.51-1,3,3,0,0,1,2.35.91,3.58,3.58,0,0,1,.83,2.52,3.7,3.7,0,0,1-.93,2.64,3.22,3.22,0,0,1-2.48,1,3,3,0,0,1-2.33-.93A3.42,3.42,0,0,1,247.07,509.85Z" transform="translate(-96.85 -1.56)"/></g><g class="cls-3"><path d="M332.32,515h3.56v-5a19.46,19.46,0,0,1-1.2,1.92C334.15,512.67,333.37,513.69,332.32,515Zm6.15-8.64V515h1.92v2.07h-1.92V520h-2.59v-2.9h-6.07V515a48.26,48.26,0,0,0,3.54-4.47,28,28,0,0,0,2.49-4.16Z" transform="translate(-96.85 -1.56)"/><path d="M344.11,513.31q0,4.71,2,4.71t2-4.85q0-4.87-1.92-4.87T344.11,513.31Zm-2.87.07a9.38,9.38,0,0,1,1.3-5.4,4.31,4.31,0,0,1,3.76-1.86c3.13,0,4.69,2.32,4.69,6.94a9.28,9.28,0,0,1-1.27,5.28,4.21,4.21,0,0,1-3.68,1.85Q341.24,520.19,341.24,513.38Z" transform="translate(-96.85 -1.56)"/><path d="M362.79,516.65c0,1.27.46,1.9,1.39,1.9s1.41-.65,1.41-2a2.37,2.37,0,0,0-.37-1.41,1.18,1.18,0,0,0-1-.5C363.26,514.67,362.79,515.33,362.79,516.65Zm-1.93.1a3.77,3.77,0,0,1,.94-2.68,3.27,3.27,0,0,1,2.51-1,3.07,3.07,0,0,1,2.35.9,3.52,3.52,0,0,1,.84,2.52,3.74,3.74,0,0,1-.94,2.66,3.25,3.25,0,0,1-2.49,1,3,3,0,0,1-2.33-.94A3.46,3.46,0,0,1,360.86,516.75Zm4.61-10.4L356.63,520h-2.21l8.83-13.62Zm-11.11,3.4c0,1.26.47,1.89,1.39,1.89s1.42-.66,1.42-2-.46-1.91-1.36-1.91S354.36,508.43,354.36,509.75Zm-1.93.1a3.78,3.78,0,0,1,.93-2.68,3.24,3.24,0,0,1,2.51-1,3,3,0,0,1,2.34.91,3.59,3.59,0,0,1,.84,2.52,3.7,3.7,0,0,1-.93,2.64,3.22,3.22,0,0,1-2.48,1,3.07,3.07,0,0,1-2.34-.93A3.46,3.46,0,0,1,352.43,509.85Z" transform="translate(-96.85 -1.56)"/></g><g class="cls-3"><path d="M438.51,515.49a2.94,2.94,0,0,0,.53,1.79,1.69,1.69,0,0,0,2.75.06,2.74,2.74,0,0,0,.5-1.7c0-1.52-.62-2.29-1.88-2.29A1.72,1.72,0,0,0,439,514,2.24,2.24,0,0,0,438.51,515.49Zm5.62-6.6a4.51,4.51,0,0,0-2.26-.59,3,3,0,0,0-2.51,1.23,5.14,5.14,0,0,0-.95,3.2h0a3.24,3.24,0,0,1,2.89-1.5,3.4,3.4,0,0,1,2.72,1.18,4.52,4.52,0,0,1,1,3.05,4.65,4.65,0,0,1-1.31,3.39,4.45,4.45,0,0,1-3.35,1.34,4.19,4.19,0,0,1-3.58-1.68,7.72,7.72,0,0,1-1.24-4.62,9.17,9.17,0,0,1,1.61-5.61,5.29,5.29,0,0,1,4.49-2.16,6.6,6.6,0,0,1,2.43.37Z" transform="translate(-96.85 -1.56)"/><path d="M449.23,513.31q0,4.71,2,4.71t2-4.85q0-4.87-1.92-4.87T449.23,513.31Zm-2.87.07a9.38,9.38,0,0,1,1.3-5.4,4.31,4.31,0,0,1,3.76-1.86c3.13,0,4.69,2.32,4.69,6.94a9.28,9.28,0,0,1-1.27,5.28,4.21,4.21,0,0,1-3.68,1.85Q446.36,520.19,446.36,513.38Z" transform="translate(-96.85 -1.56)"/><path d="M467.91,516.65c0,1.27.46,1.9,1.39,1.9s1.41-.65,1.41-2a2.3,2.3,0,0,0-.38-1.41,1.15,1.15,0,0,0-1-.5C468.38,514.67,467.91,515.33,467.91,516.65Zm-1.93.1a3.77,3.77,0,0,1,.94-2.68,3.27,3.27,0,0,1,2.51-1,3,3,0,0,1,2.34.9,3.52,3.52,0,0,1,.84,2.52,3.7,3.7,0,0,1-.94,2.66,3.22,3.22,0,0,1-2.48,1,3,3,0,0,1-2.33-.94A3.42,3.42,0,0,1,466,516.75Zm4.61-10.4L461.75,520h-2.21l8.83-13.62Zm-11.11,3.4c0,1.26.46,1.89,1.39,1.89s1.41-.66,1.41-2-.45-1.91-1.35-1.91S459.48,508.43,459.48,509.75Zm-1.93.1a3.78,3.78,0,0,1,.93-2.68,3.22,3.22,0,0,1,2.5-1,3,3,0,0,1,2.35.91,3.59,3.59,0,0,1,.84,2.52,3.7,3.7,0,0,1-.93,2.64,3.22,3.22,0,0,1-2.48,1,3.07,3.07,0,0,1-2.34-.93A3.46,3.46,0,0,1,457.55,509.85Z" transform="translate(-96.85 -1.56)"/></g><g class="cls-3"><path d="M544,510a1.88,1.88,0,0,0,.46,1.28,1.53,1.53,0,0,0,2.31,0,1.81,1.81,0,0,0,.48-1.29,2,2,0,0,0-.46-1.31,1.47,1.47,0,0,0-1.17-.53,1.44,1.44,0,0,0-1.17.53A2,2,0,0,0,544,510Zm-.42,6a2.12,2.12,0,0,0,.54,1.52,2.13,2.13,0,0,0,2.9,0,2.09,2.09,0,0,0,.56-1.52,2,2,0,0,0-.57-1.48,2.05,2.05,0,0,0-2.88,0A2.07,2.07,0,0,0,543.59,516Zm-2.84.25a3.45,3.45,0,0,1,.68-2.1,3.93,3.93,0,0,1,2-1.36,4.13,4.13,0,0,1-1.6-1.31,3,3,0,0,1-.57-1.78,3.28,3.28,0,0,1,.56-1.85,3.79,3.79,0,0,1,1.56-1.3,5.22,5.22,0,0,1,2.24-.47,5.45,5.45,0,0,1,2.25.46,3.76,3.76,0,0,1,1.58,1.29,3.27,3.27,0,0,1,.56,1.84,2.86,2.86,0,0,1-.62,1.76,4.14,4.14,0,0,1-1.66,1.29,4.22,4.22,0,0,1,2,1.36,3.43,3.43,0,0,1,.71,2.15,3.49,3.49,0,0,1-1.34,2.82,6.13,6.13,0,0,1-7,0A3.46,3.46,0,0,1,540.75,516.29Z" transform="translate(-96.85 -1.56)"/><path d="M554.59,513.31q0,4.71,2,4.71t2-4.85q0-4.87-1.92-4.87T554.59,513.31Zm-2.87.07A9.38,9.38,0,0,1,553,508a4.31,4.31,0,0,1,3.76-1.86c3.13,0,4.69,2.32,4.69,6.94a9.36,9.36,0,0,1-1.27,5.28,4.21,4.21,0,0,1-3.68,1.85Q551.72,520.19,551.72,513.38Z" transform="translate(-96.85 -1.56)"/><path d="M573.26,516.65c0,1.27.47,1.9,1.4,1.9s1.41-.65,1.41-2a2.3,2.3,0,0,0-.38-1.41,1.16,1.16,0,0,0-1-.5Q573.26,514.67,573.26,516.65Zm-1.92.1a3.73,3.73,0,0,1,.94-2.68,3.26,3.26,0,0,1,2.5-1,3.05,3.05,0,0,1,2.35.9,3.52,3.52,0,0,1,.84,2.52,3.7,3.7,0,0,1-.94,2.66,3.22,3.22,0,0,1-2.48,1,3,3,0,0,1-2.33-.94A3.42,3.42,0,0,1,571.34,516.75Zm4.61-10.4L567.11,520H564.9l8.83-13.62Zm-11.11,3.4c0,1.26.46,1.89,1.39,1.89s1.41-.66,1.41-2-.45-1.91-1.35-1.91S564.84,508.43,564.84,509.75Zm-1.93.1a3.78,3.78,0,0,1,.93-2.68,3.22,3.22,0,0,1,2.5-1,3,3,0,0,1,2.35.91,3.59,3.59,0,0,1,.84,2.52,3.7,3.7,0,0,1-.93,2.64,3.23,3.23,0,0,1-2.49,1,3,3,0,0,1-2.33-.93A3.46,3.46,0,0,1,562.91,509.85Z" transform="translate(-96.85 -1.56)"/></g><g class="cls-3"><path d="M647.47,506.05V520h-2.86V509.25a5.06,5.06,0,0,1-1.44.82,6.81,6.81,0,0,1-1.68.45v-2.43a12.68,12.68,0,0,0,4.17-2Z" transform="translate(-96.85 -1.56)"/><path d="M654.43,513.31q0,4.71,2,4.71t2-4.85q0-4.87-1.93-4.87T654.43,513.31Zm-2.87.07a9.38,9.38,0,0,1,1.3-5.4,4.3,4.3,0,0,1,3.76-1.86c3.12,0,4.69,2.32,4.69,6.94a9.28,9.28,0,0,1-1.28,5.28,4.18,4.18,0,0,1-3.68,1.85Q651.56,520.19,651.56,513.38Z" transform="translate(-96.85 -1.56)"/><path d="M665.47,513.31q0,4.71,2,4.71t2-4.85q0-4.87-1.93-4.87T665.47,513.31Zm-2.87.07a9.38,9.38,0,0,1,1.3-5.4,4.3,4.3,0,0,1,3.76-1.86c3.12,0,4.69,2.32,4.69,6.94a9.28,9.28,0,0,1-1.28,5.28,4.18,4.18,0,0,1-3.68,1.85Q662.61,520.19,662.6,513.38Z" transform="translate(-96.85 -1.56)"/><path d="M684.14,516.65c0,1.27.47,1.9,1.4,1.9s1.41-.65,1.41-2a2.3,2.3,0,0,0-.38-1.41,1.16,1.16,0,0,0-1-.5Q684.14,514.67,684.14,516.65Zm-1.92.1a3.73,3.73,0,0,1,.94-2.68,3.26,3.26,0,0,1,2.5-1,3.05,3.05,0,0,1,2.35.9,3.52,3.52,0,0,1,.84,2.52,3.7,3.7,0,0,1-.94,2.66,3.22,3.22,0,0,1-2.48,1,3,3,0,0,1-2.33-.94A3.42,3.42,0,0,1,682.22,516.75Zm4.61-10.4L678,520h-2.21l8.83-13.62Zm-11.11,3.4c0,1.26.46,1.89,1.39,1.89s1.41-.66,1.41-2-.45-1.91-1.35-1.91S675.72,508.43,675.72,509.75Zm-1.93.1a3.82,3.82,0,0,1,.92-2.68,3.25,3.25,0,0,1,2.51-1,3,3,0,0,1,2.35.91,3.59,3.59,0,0,1,.84,2.52,3.7,3.7,0,0,1-.93,2.64,3.23,3.23,0,0,1-2.49,1,3,3,0,0,1-2.33-.93A3.46,3.46,0,0,1,673.79,509.85Z" transform="translate(-96.85 -1.56)"/></g><g class="cls-3"><path d="M391.39,566.91a14.5,14.5,0,0,1-3.68-10.07,15.42,15.42,0,0,1,3.68-10.19h2.82a16.39,16.39,0,0,0-3.5,10.19,15.88,15.88,0,0,0,3.52,10.07Z" transform="translate(-96.85 -1.56)"/><path d="M399.27,558.06a2.84,2.84,0,0,0,.69,2,2.24,2.24,0,0,0,1.76.79,2.33,2.33,0,0,0,2-1,4.81,4.81,0,0,0,.72-2.84,3.89,3.89,0,0,0-.65-2.38,2.22,2.22,0,0,0-1.87-.86,2.42,2.42,0,0,0-1.91.87,3.23,3.23,0,0,0-.75,2.21Zm.05,3.68v1.42h-3.44V545.71h3.44v7.46h.05a4.34,4.34,0,0,1,3.86-2.09,4.26,4.26,0,0,1,3.49,1.56,6.62,6.62,0,0,1,1.26,4.29,7.23,7.23,0,0,1-1.45,4.72,4.69,4.69,0,0,1-3.85,1.79,3.69,3.69,0,0,1-3.31-1.7Z" transform="translate(-96.85 -1.56)"/><path d="M409.16,566.91a15.85,15.85,0,0,0,3.54-10.07,16.38,16.38,0,0,0-3.54-10.19H412a15.36,15.36,0,0,1,3.72,10.19A14.51,14.51,0,0,1,412,566.91Z" transform="translate(-96.85 -1.56)"/></g><g class="cls-3"><rect class="cls-11" x="397.29" y="0.24" width="226.56" height="60.48"/><rect class="cls-12" x="397.29" y="0.24" width="226.56" height="60.48"/></g><g class="cls-3"><rect class="cls-7" x="405.71" y="8.64" width="41.03" height="14.88"/><rect class="cls-8" x="405.71" y="8.64" width="41.03" height="14.88"/></g><g class="cls-3"><path d="M566.77,12.07h-4.4V25.56h-2V12.07H556V10.32h10.75Z" transform="translate(-96.85 -1.56)"/><path d="M574.67,16.59a2.24,2.24,0,0,0-1.33-.35,2.18,2.18,0,0,0-1.85,1.05,4.79,4.79,0,0,0-.73,2.76v5.51h-1.92V14.68h1.92v2.21h0c.55-1.6,1.51-2.4,2.86-2.4a2.68,2.68,0,0,1,1,.15Z" transform="translate(-96.85 -1.56)"/><path d="M580,20.44a3.33,3.33,0,0,0-1.85.67,1.87,1.87,0,0,0-.5,1.38,1.62,1.62,0,0,0,.55,1.27,2.07,2.07,0,0,0,1.45.49,2.71,2.71,0,0,0,2.08-.89,3.17,3.17,0,0,0,.82-2.22v-1Zm-3.23-5a7,7,0,0,1,3.75-1q3.93,0,3.93,4.13v7h-1.9V23.88h0A4,4,0,0,1,576.64,25a3,3,0,0,1-.93-2.31c0-2,1.2-3.22,3.61-3.56l3.23-.45c0-1.78-.74-2.66-2.21-2.66a5.51,5.51,0,0,0-3.57,1.31Z" transform="translate(-96.85 -1.56)"/><path d="M595.08,19.08a3,3,0,0,0-.86-2.18A2.84,2.84,0,0,0,592.1,16a2.91,2.91,0,0,0-2.42,1.15,5,5,0,0,0-.89,3.12,4.43,4.43,0,0,0,.86,2.88,2.73,2.73,0,0,0,2.26,1.06,2.89,2.89,0,0,0,2.29-1,3.83,3.83,0,0,0,.88-2.58ZM597,25.56h-1.93V23.75h0a4,4,0,0,1-3.7,2.06,4,4,0,0,1-3.28-1.47,6,6,0,0,1-1.22-4,6.5,6.5,0,0,1,1.37-4.32,4.49,4.49,0,0,1,3.61-1.63A3.45,3.45,0,0,1,595,16.15h0V9.45H597Z" transform="translate(-96.85 -1.56)"/><path d="M600.51,25.56V14.68h1.92V25.56Zm-.23-14.72a1.2,1.2,0,0,1,1.21-1.21,1.21,1.21,0,0,1,.88.34,1.15,1.15,0,0,1,.36.87,1.13,1.13,0,0,1-.36.85,1.21,1.21,0,0,1-.88.34,1.18,1.18,0,0,1-.87-.34A1.15,1.15,0,0,1,600.28,10.84Z" transform="translate(-96.85 -1.56)"/><path d="M607,20.18a4.35,4.35,0,0,0,1,3,3.25,3.25,0,0,0,2.56,1.08,3.06,3.06,0,0,0,2.52-1.06,4.69,4.69,0,0,0,.86-3,4.76,4.76,0,0,0-.86-3.05A3.07,3.07,0,0,0,610.54,16,3.2,3.2,0,0,0,608,17.13,4.6,4.6,0,0,0,607,20.18Zm-2,.06a5.89,5.89,0,0,1,1.5-4.26,5.43,5.43,0,0,1,4.09-1.56,5,5,0,0,1,3.84,1.5,5.9,5.9,0,0,1,1.39,4.15,5.84,5.84,0,0,1-1.49,4.16,5.18,5.18,0,0,1-4,1.58,5.13,5.13,0,0,1-3.9-1.53A5.62,5.62,0,0,1,605.07,20.24Z" transform="translate(-96.85 -1.56)"/><path d="M627.71,25.56H625.8V19.37c0-2.24-.82-3.36-2.45-3.36a2.63,2.63,0,0,0-2.09.95,3.55,3.55,0,0,0-.82,2.39v6.21h-1.93V14.68h1.93v1.8h0a3.93,3.93,0,0,1,3.57-2.06,3.29,3.29,0,0,1,2.73,1.15,5.17,5.17,0,0,1,.93,3.34Z" transform="translate(-96.85 -1.56)"/><path d="M634.48,20.44a3.33,3.33,0,0,0-1.85.67,1.87,1.87,0,0,0-.5,1.38,1.62,1.62,0,0,0,.55,1.27,2.07,2.07,0,0,0,1.45.49,2.72,2.72,0,0,0,2.08-.89,3.17,3.17,0,0,0,.82-2.22v-1Zm-3.23-5a7,7,0,0,1,3.75-1q3.93,0,3.93,4.13v7H637V23.88h0A4,4,0,0,1,631.12,25a3,3,0,0,1-.93-2.31c0-2,1.2-3.22,3.61-3.56l3.23-.45c0-1.78-.74-2.66-2.21-2.66a5.51,5.51,0,0,0-3.57,1.31Z" transform="translate(-96.85 -1.56)"/><ellipse cx="546.14" cy="15.95" rx="1.36" ry="11.39"/><path d="M660.25,19.06a3.47,3.47,0,0,0-.7-2.28,2.39,2.39,0,0,0-1.94-.8,2.7,2.7,0,0,0-2,.85,4,4,0,0,0-1.06,2.23Zm1.93,1.55h-7.62a3.91,3.91,0,0,0,1,2.69,3.32,3.32,0,0,0,2.53.95,5.38,5.38,0,0,0,3.35-1.17V24.8a6.46,6.46,0,0,1-3.81,1,4.68,4.68,0,0,1-3.68-1.49,6.06,6.06,0,0,1-1.32-4.15A6,6,0,0,1,654,16a4.65,4.65,0,0,1,3.6-1.62A4.21,4.21,0,0,1,661,15.79a5.67,5.67,0,0,1,1.2,3.85Z" transform="translate(-96.85 -1.56)"/><path d="M674,25.56h-1.92V19.37c0-2.24-.81-3.36-2.45-3.36a2.63,2.63,0,0,0-2.08.95,3.51,3.51,0,0,0-.82,2.39v6.21h-1.93V14.68h1.93v1.8h0a3.93,3.93,0,0,1,3.57-2.06,3.29,3.29,0,0,1,2.73,1.15,5.17,5.17,0,0,1,.93,3.34Z" transform="translate(-96.85 -1.56)"/><path d="M684.25,19.06a3.47,3.47,0,0,0-.7-2.28,2.39,2.39,0,0,0-1.94-.8,2.7,2.7,0,0,0-2,.85,4,4,0,0,0-1.06,2.23Zm1.93,1.55h-7.62a3.91,3.91,0,0,0,1,2.69,3.32,3.32,0,0,0,2.53.95,5.38,5.38,0,0,0,3.35-1.17V24.8a6.46,6.46,0,0,1-3.81,1,4.68,4.68,0,0,1-3.68-1.49,6.06,6.06,0,0,1-1.32-4.15A6,6,0,0,1,678,16a4.63,4.63,0,0,1,3.6-1.62A4.21,4.21,0,0,1,685,15.79a5.67,5.67,0,0,1,1.2,3.85Z" transform="translate(-96.85 -1.56)"/><path d="M694.67,16.59a2.26,2.26,0,0,0-1.33-.35,2.18,2.18,0,0,0-1.85,1.05,4.79,4.79,0,0,0-.73,2.76v5.51h-1.93V14.68h1.93v2.21h0q.83-2.4,2.85-2.4a2.74,2.74,0,0,1,1,.15Z" transform="translate(-96.85 -1.56)"/><path d="M704,19.08a3,3,0,0,0-.85-2.16,2.79,2.79,0,0,0-2.1-.91,2.9,2.9,0,0,0-2.45,1.16,5.17,5.17,0,0,0-.88,3.17,4.44,4.44,0,0,0,.85,2.81,2.72,2.72,0,0,0,2.24,1.07,2.91,2.91,0,0,0,2.3-1,3.75,3.75,0,0,0,.89-2.6ZM706,24.64c0,4-2,6-5.86,6a7.78,7.78,0,0,1-3.53-.75V28.07a7.27,7.27,0,0,0,3.5,1q4,0,4-4.17V23.76h0a4.38,4.38,0,0,1-7,.59,5.87,5.87,0,0,1-1.23-3.89,6.7,6.7,0,0,1,1.35-4.41,4.48,4.48,0,0,1,3.62-1.63A3.53,3.53,0,0,1,704,16.15h0V14.68H706Z" transform="translate(-96.85 -1.56)"/><path d="M718.33,14.68,713.39,27.2c-.92,2.32-2.21,3.48-3.89,3.48a4.4,4.4,0,0,1-1.23-.15v-1.7a2.94,2.94,0,0,0,1.09.22,2.1,2.1,0,0,0,1.95-1.53l.84-2-4.27-10.86H710l2.84,8.17.23.9h0a8.35,8.35,0,0,1,.24-.88l3-8.19Z" transform="translate(-96.85 -1.56)"/></g><g class="cls-3"><rect class="cls-5" x="405.71" y="37.68" width="41.03" height="14.88"/><rect class="cls-6" x="405.71" y="37.68" width="41.03" height="14.88"/></g><g class="cls-3"><path d="M568,54a9,9,0,0,1-4.22.88,6.82,6.82,0,0,1-5.23-2.08,7.67,7.67,0,0,1-2-5.5,8.07,8.07,0,0,1,2.2-5.92,7.51,7.51,0,0,1,5.6-2.25,9.14,9.14,0,0,1,3.61.62v2.06a7.34,7.34,0,0,0-3.59-.91,5.46,5.46,0,0,0-4.15,1.7,6.4,6.4,0,0,0-1.61,4.58,6.11,6.11,0,0,0,1.5,4.34,5.07,5.07,0,0,0,3.91,1.61,7.43,7.43,0,0,0,3.94-1Z" transform="translate(-96.85 -1.56)"/><ellipse cx="474.86" cy="44.99" rx="1.36" ry="11.39"/><path d="M583,48.1a3.47,3.47,0,0,0-.7-2.28,2.39,2.39,0,0,0-1.94-.8,2.7,2.7,0,0,0-2,.85,4,4,0,0,0-1.06,2.23Zm1.93,1.55h-7.62a4,4,0,0,0,1,2.69,3.34,3.34,0,0,0,2.53.95,5.36,5.36,0,0,0,3.35-1.17v1.72a6.44,6.44,0,0,1-3.81,1,4.68,4.68,0,0,1-3.68-1.49,6.06,6.06,0,0,1-1.32-4.15,6,6,0,0,1,1.45-4.13,4.65,4.65,0,0,1,3.6-1.62,4.21,4.21,0,0,1,3.34,1.37,5.67,5.67,0,0,1,1.2,3.85Z" transform="translate(-96.85 -1.56)"/><path d="M591,49.48a3.33,3.33,0,0,0-1.85.67,1.87,1.87,0,0,0-.5,1.38,1.62,1.62,0,0,0,.55,1.27,2.07,2.07,0,0,0,1.45.49,2.71,2.71,0,0,0,2.08-.89,3.17,3.17,0,0,0,.82-2.22v-1Zm-3.23-5a7,7,0,0,1,3.75-1q3.93,0,3.93,4.13v7h-1.9V52.92h-.05A4,4,0,0,1,587.68,54a3,3,0,0,1-.93-2.31c0-2,1.2-3.22,3.61-3.56l3.23-.45c0-1.78-.74-2.66-2.21-2.66a5.51,5.51,0,0,0-3.57,1.31Z" transform="translate(-96.85 -1.56)"/><path d="M607.79,54.6h-1.91V48.41c0-2.24-.82-3.36-2.45-3.36a2.63,2.63,0,0,0-2.09,1,3.55,3.55,0,0,0-.82,2.39V54.6H598.6V43.72h1.92v1.8h0a3.93,3.93,0,0,1,3.57-2.06,3.29,3.29,0,0,1,2.73,1.15,5.17,5.17,0,0,1,.93,3.34Z" transform="translate(-96.85 -1.56)"/><path d="M624,48.1a3.47,3.47,0,0,0-.7-2.28,2.39,2.39,0,0,0-1.94-.8,2.7,2.7,0,0,0-2,.85,4,4,0,0,0-1.06,2.23Zm1.93,1.55h-7.62a4,4,0,0,0,1,2.69,3.32,3.32,0,0,0,2.53.95,5.36,5.36,0,0,0,3.35-1.17v1.72a6.44,6.44,0,0,1-3.81,1,4.68,4.68,0,0,1-3.68-1.49,6.06,6.06,0,0,1-1.32-4.15,6,6,0,0,1,1.45-4.13,4.65,4.65,0,0,1,3.6-1.62,4.21,4.21,0,0,1,3.34,1.37,5.67,5.67,0,0,1,1.2,3.85Z" transform="translate(-96.85 -1.56)"/><path d="M637.79,54.6h-1.92V48.41c0-2.24-.81-3.36-2.44-3.36a2.63,2.63,0,0,0-2.09,1,3.55,3.55,0,0,0-.82,2.39V54.6h-1.93V43.72h1.93v1.8h0a3.93,3.93,0,0,1,3.57-2.06,3.29,3.29,0,0,1,2.73,1.15,5.17,5.17,0,0,1,.93,3.34Z" transform="translate(-96.85 -1.56)"/><path d="M648,48.1a3.47,3.47,0,0,0-.7-2.28,2.39,2.39,0,0,0-1.94-.8,2.7,2.7,0,0,0-2,.85,4,4,0,0,0-1.06,2.23Zm1.93,1.55h-7.62a3.91,3.91,0,0,0,1,2.69,3.32,3.32,0,0,0,2.53.95,5.38,5.38,0,0,0,3.35-1.17v1.72a6.46,6.46,0,0,1-3.81,1,4.68,4.68,0,0,1-3.68-1.49,6.06,6.06,0,0,1-1.32-4.15,6,6,0,0,1,1.45-4.13,4.65,4.65,0,0,1,3.6-1.62,4.21,4.21,0,0,1,3.34,1.37,5.67,5.67,0,0,1,1.2,3.85Z" transform="translate(-96.85 -1.56)"/><path d="M658.43,45.63a2.26,2.26,0,0,0-1.33-.35,2.18,2.18,0,0,0-1.85,1,4.79,4.79,0,0,0-.73,2.76V54.6h-1.93V43.72h1.93v2.21h0c.55-1.6,1.5-2.4,2.86-2.4a2.72,2.72,0,0,1,1,.15Z" transform="translate(-96.85 -1.56)"/><path d="M667.79,48.12a2.94,2.94,0,0,0-.85-2.16,2.79,2.79,0,0,0-2.1-.91,2.9,2.9,0,0,0-2.45,1.16,5.17,5.17,0,0,0-.88,3.17,4.44,4.44,0,0,0,.85,2.81,2.72,2.72,0,0,0,2.24,1.07,2.94,2.94,0,0,0,2.31-1,3.8,3.8,0,0,0,.88-2.6Zm1.93,5.56c0,4-2,6-5.86,6a7.78,7.78,0,0,1-3.53-.75V57.11a7.27,7.27,0,0,0,3.5,1q4,0,4-4.17V52.8h0a4.38,4.38,0,0,1-7,.59,5.87,5.87,0,0,1-1.23-3.89,6.7,6.7,0,0,1,1.35-4.41,4.48,4.48,0,0,1,3.62-1.63,3.53,3.53,0,0,1,3.23,1.73h0V43.72h1.93Z" transform="translate(-96.85 -1.56)"/><path d="M682.09,43.72l-4.94,12.52c-.92,2.32-2.21,3.48-3.89,3.48a4.45,4.45,0,0,1-1.23-.15v-1.7a2.94,2.94,0,0,0,1.09.22,2.1,2.1,0,0,0,2-1.53l.84-2-4.27-10.86h2.14l2.84,8.17.23.9h0a8.35,8.35,0,0,1,.24-.88l3-8.19Z" transform="translate(-96.85 -1.56)"/></g></g></svg>